<svg width="26" height="26" viewBox="0 0 26 26" fill="none" xmlns="http://www.w3.org/2000/svg">
<path fill-rule="evenodd" clip-rule="evenodd" d="M15.52 13.192L14.939 13.774C13.937 12.8923 12.9927 11.947 12.112 10.944L12.692 10.364C12.9706 10.0854 13.1917 9.75468 13.3424 9.39067C13.4932 9.02666 13.5709 8.63651 13.5709 8.2425C13.5709 7.84849 13.4932 7.45834 13.3424 7.09433C13.1917 6.73032 12.9706 6.39958 12.692 6.121L11.278 4.707C10.7154 4.14459 9.95249 3.82864 9.157 3.82864C8.36151 3.82864 7.59858 4.14459 7.036 4.707L4.23 7.513C4.09434 7.64858 4.00052 7.82031 3.95974 8.00772C3.91896 8.19513 3.93294 8.39031 4 8.57C6.374 14.93 10.818 19.404 17.308 21.882C17.4883 21.9509 17.6848 21.9661 17.8736 21.9259C18.0624 21.8856 18.2355 21.7915 18.372 21.655L21.178 18.849C21.7404 18.2864 22.0564 17.5235 22.0564 16.728C22.0564 15.9325 21.7404 15.1696 21.178 14.607L19.763 13.192C19.2004 12.6296 18.4375 12.3136 17.642 12.3136C16.8465 12.3136 16.0826 12.6296 15.52 13.192ZM19.764 16.021C19.9515 16.2085 20.0568 16.4628 20.0568 16.728C20.0568 16.9932 19.9515 17.2475 19.764 17.435L17.422 19.776C11.998 17.546 8.249 13.776 6.105 8.466L8.45 6.12C8.63753 5.93253 8.89184 5.82721 9.157 5.82721C9.42216 5.82721 9.67647 5.93253 9.864 6.12L11.278 7.535C11.4655 7.72253 11.5708 7.97684 11.5708 8.242C11.5708 8.50716 11.4655 8.76147 11.278 8.949L10.044 10.183C9.86791 10.3591 9.76386 10.5946 9.75221 10.8433C9.74056 11.0921 9.82214 11.3362 9.981 11.528C11.2991 13.1197 12.7632 14.5848 14.354 15.904C14.5458 16.0629 14.7899 16.1444 15.0387 16.1328C15.2874 16.1211 15.5229 16.0171 15.699 15.841L16.935 14.606C17.1225 14.4185 17.3768 14.3132 17.642 14.3132C17.9072 14.3132 18.1615 14.4185 18.349 14.606L19.764 16.021Z" fill="#F653E9"/>
<path fill-rule="evenodd" clip-rule="evenodd" d="M13 24C19.075 24 24 19.075 24 13C24 6.925 19.075 2 13 2C6.925 2 2 6.925 2 13C2 19.075 6.925 24 13 24ZM13 26C20.18 26 26 20.18 26 13C26 5.82 20.18 0 13 0C5.82 0 0 5.82 0 13C0 20.18 5.82 26 13 26Z" fill="#F653E9"/>
</svg>
