<svg width="26" height="26" viewBox="0 0 26 26" fill="none" xmlns="http://www.w3.org/2000/svg">
<path d="M18.9903 15.8235C18.9903 16.9155 19.301 17.351 20.1135 17.351C21.9244 17.351 23.0775 15.0435 23.0775 11.2059C23.0775 5.34028 18.8031 2.53228 13.4666 2.53228C7.97674 2.53228 2.98343 6.21388 2.98343 13.1715C2.98343 19.8171 7.35143 23.4363 14.0594 23.4363C16.337 23.4363 17.8658 23.1867 20.2045 22.4067L20.7063 24.4958C18.3975 25.2459 15.9301 25.463 14.0282 25.463C5.22983 25.463 0.517334 20.627 0.517334 13.1702C0.517334 5.65098 5.97863 0.53418 13.4978 0.53418C21.329 0.53418 25.4773 5.21418 25.4773 10.955C25.4773 15.8222 23.9498 19.535 19.145 19.535C16.9597 19.535 15.5258 18.6614 15.3386 16.7257C14.777 18.8785 13.2794 19.535 11.2501 19.535C8.53574 19.535 6.25813 17.4433 6.25813 13.2326C6.25813 8.98938 8.25624 6.36858 11.8442 6.36858C13.7474 6.36858 14.933 7.11738 15.4608 8.30298L16.3669 6.64938H18.9877V15.8235H18.9903ZM15.154 11.7051C15.154 9.99038 13.8735 9.27148 12.8127 9.27148C11.6583 9.27148 10.3804 10.2062 10.3804 12.9531C10.3804 15.1371 11.3476 16.3539 12.8127 16.3539C13.8423 16.3539 15.154 15.6987 15.154 13.8891V11.7051Z" fill="#100892"/>
</svg>
