<svg width="16" height="22" viewBox="0 0 16 22" fill="none" xmlns="http://www.w3.org/2000/svg">
<path d="M8.00008 10.4584C7.28179 10.4584 6.59291 10.1731 6.085 9.66516C5.57709 9.15725 5.29175 8.46838 5.29175 7.75008C5.29175 7.03179 5.57709 6.34291 6.085 5.835C6.59291 5.32709 7.28179 5.04175 8.00008 5.04175C8.71838 5.04175 9.40725 5.32709 9.91516 5.835C10.4231 6.34291 10.7084 7.03179 10.7084 7.75008C10.7084 8.10574 10.6384 8.45792 10.5023 8.78652C10.3661 9.11511 10.1667 9.41367 9.91516 9.66516C9.66367 9.91665 9.36511 10.1161 9.03652 10.2523C8.70793 10.3884 8.35574 10.4584 8.00008 10.4584ZM8.00008 0.166748C5.98886 0.166748 4.06001 0.965704 2.63786 2.38785C1.2157 3.81001 0.416748 5.73886 0.416748 7.75008C0.416748 13.4376 8.00008 21.8334 8.00008 21.8334C8.00008 21.8334 15.5834 13.4376 15.5834 7.75008C15.5834 5.73886 14.7845 3.81001 13.3623 2.38785C11.9402 0.965704 10.0113 0.166748 8.00008 0.166748Z" fill="#0FA958"/>
</svg>
