<svg width="20" height="20" viewBox="0 0 20 20" fill="none" xmlns="http://www.w3.org/2000/svg">
<g id="fa-regular:copyright" clip-path="url(#clip0_109_36)">
<path id="Vector" d="M10 0.3125C4.64973 0.3125 0.3125 4.64973 0.3125 10C0.3125 15.3503 4.64973 19.6875 10 19.6875C15.3503 19.6875 19.6875 15.3503 19.6875 10C19.6875 4.64973 15.3503 0.3125 10 0.3125ZM10 17.8125C5.68234 17.8125 2.1875 14.3183 2.1875 10C2.1875 5.68238 5.68168 2.1875 10 2.1875C14.3177 2.1875 17.8125 5.68168 17.8125 10C17.8125 14.3177 14.3183 17.8125 10 17.8125ZM14.1934 13.8647C13.8179 14.2441 12.4149 15.4817 10.1284 15.4817C6.90844 15.4817 4.6407 13.0823 4.6407 9.95176C4.6407 6.85988 6.9952 4.50641 10.1002 4.50641C12.2693 4.50641 13.5665 5.54625 13.9124 5.86496C13.9937 5.93971 14.0458 6.04083 14.0597 6.15038C14.0735 6.25994 14.0481 6.37086 13.988 6.46348L13.2788 7.56164C13.1288 7.79406 12.8114 7.84609 12.5953 7.67574C12.2595 7.41105 11.3525 6.79535 10.1848 6.79535C8.29797 6.79535 7.14121 8.17543 7.14121 9.92355C7.14121 11.5481 8.19152 13.1928 10.1989 13.1928C11.4746 13.1928 12.4193 12.4491 12.7663 12.1293C12.9722 11.9396 13.2974 11.9715 13.4624 12.1972L14.2384 13.2585C14.3045 13.3483 14.3364 13.4587 14.3281 13.5699C14.3199 13.6811 14.2721 13.7857 14.1934 13.8647Z" fill="white"/>
</g>
<defs>
<clipPath id="clip0_109_36">
<rect width="20" height="20" fill="white"/>
</clipPath>
</defs>
</svg>
