<svg width="50" height="40" viewBox="0 0 50 40" fill="none" xmlns="http://www.w3.org/2000/svg">
<path d="M42.3547 3.35007C39.0756 1.7645 35.6066 0.637879 32.0394 0C31.5951 0.8302 31.076 1.94682 30.7179 2.83516C26.8719 2.23748 23.0611 2.23748 19.2857 2.83516C18.9279 1.94702 18.3971 0.8302 17.9486 0C14.3779 0.638173 10.906 1.76766 7.62537 3.35835C1.09725 13.5535 -0.672474 23.4951 0.212291 33.296C4.54217 36.6376 8.73826 38.6676 12.8637 39.996C13.8889 38.5389 14.7952 36.9962 15.5732 35.3839C14.092 34.8012 12.6641 34.083 11.3064 33.2379C11.6637 32.9642 12.0126 32.679 12.3525 32.3827C20.5795 36.3595 29.5185 36.3595 37.6474 32.3827C37.9889 32.677 38.3376 32.9622 38.6933 33.2379C37.3335 34.0852 35.9029 34.8048 34.4187 35.3882C35.2011 37.007 36.1058 38.5511 37.1283 40C41.2576 38.6718 45.4576 36.6419 49.7875 33.296C50.8257 21.9344 48.014 12.084 42.3547 3.35007ZM16.6941 27.2686C14.2244 27.2686 12.199 24.8858 12.199 21.9843C12.199 19.0827 14.1812 16.6958 16.6941 16.6958C19.2072 16.6958 21.2324 19.0785 21.1892 21.9843C21.1931 24.8858 19.2072 27.2686 16.6941 27.2686ZM33.3056 27.2686C30.8359 27.2686 28.8107 24.8858 28.8107 21.9843C28.8107 19.0827 30.7927 16.6958 33.3056 16.6958C35.8187 16.6958 37.8439 19.0785 37.8008 21.9843C37.8008 24.8858 35.8187 27.2686 33.3056 27.2686Z" fill="#5865F2"/>
</svg>
