<svg width="50" height="50" viewBox="0 0 50 50" fill="none" xmlns="http://www.w3.org/2000/svg">
<path d="M37.2569 12.6953C35.078 6.9125 30.3937 3.24995 23.3187 3.24995C14.3156 3.24995 8.01636 9.93511 7.475 18.657C3.13359 20.0453 0 24.4734 0 29.489C0 35.6289 4.82656 40.8156 10.5382 40.8156H11.9273C12.7898 40.8156 13.4898 40.1164 13.4898 39.2531C13.4898 38.3898 12.7898 37.6906 11.9273 37.6906H10.5382C6.51948 37.6906 3.07573 33.9351 3.07573 29.489C3.07573 25.5601 5.83042 22.0156 9.28589 21.4218L10.7039 21.1773L10.5773 19.7445L10.5656 19.7265C10.5664 12.1156 15.5757 6.37495 23.3187 6.37495C29.525 6.37495 33.0117 9.43277 34.625 14.6484L34.9586 15.7242L36.0852 15.7484C41.8891 15.8703 46.9781 20.5797 46.9781 26.4313C46.9781 31.7563 43.4492 37.6906 38.1054 37.6906H37.6609C36.7984 37.6906 36.0984 38.3898 36.0984 39.2531C36.0984 40.1164 36.7984 40.8156 37.6609 40.8156V40.8109C45.4734 40.6047 49.9773 33.1406 49.9773 26.4313C49.9757 19.218 44.3234 13.4555 37.257 12.6953H37.2569ZM31.5593 37.8647C31.1226 37.4085 30.4164 37.4084 29.9805 37.8647L26.5437 41.6561V25.9264C26.5437 25.0639 25.8438 24.3639 24.9813 24.3639C24.1187 24.3639 23.4188 25.0639 23.4188 25.9264V41.6702L20.093 37.9624C19.6562 37.5062 18.9484 37.4085 18.5125 37.8647L18.1187 38.0804C17.682 38.5382 17.682 39.2757 18.1187 39.7319L23.7585 45.9694C23.7664 45.9772 23.768 45.9874 23.775 45.9952L24.1703 46.4085C24.3898 46.6374 24.6765 46.7507 24.9656 46.7491C25.2523 46.7507 25.5406 46.6374 25.7578 46.4085L26.1531 45.9952C26.1609 45.9874 26.1648 45.9788 26.171 45.9694L31.9539 39.6343C32.3906 39.178 32.3906 38.6359 31.9539 38.1781L31.5593 37.8647Z" fill="white"/>
</svg>
