<svg width="846" height="999" viewBox="0 0 846 999" fill="none" xmlns="http://www.w3.org/2000/svg">
<g filter="url(#filter0_f_354_371)">
<path d="M324.726 800.359C342.167 789.939 658.48 701.841 749.648 681C820.997 690.157 983.197 708.472 1061.2 708.472C1139.21 708.472 1178.27 733.417 1188.05 745.89C1192.54 781.571 1198.83 860.513 1188.05 890.826C1174.57 928.718 1142.07 982.714 1131.76 1039.55C1121.45 1096.39 1089.74 1058.5 1061.2 1068.92C1032.67 1079.34 861.428 1070.81 777.395 1068.92C693.362 1067.02 587.924 1047.6 457.911 1039.55C327.897 1031.5 300.151 1001.66 289.845 982.714C279.539 963.768 233.558 903.141 258.134 852.934C282.71 802.728 307.285 810.78 324.726 800.359Z" fill="#8962BA"/>
<path d="M324.726 800.359C342.167 789.939 658.48 701.841 749.648 681C820.997 690.157 983.197 708.472 1061.2 708.472C1139.21 708.472 1178.27 733.417 1188.05 745.89C1192.54 781.571 1198.83 860.513 1188.05 890.826C1174.57 928.718 1142.07 982.714 1131.76 1039.55C1121.45 1096.39 1089.74 1058.5 1061.2 1068.92C1032.67 1079.34 861.428 1070.81 777.395 1068.92C693.362 1067.02 587.924 1047.6 457.911 1039.55C327.897 1031.5 300.151 1001.66 289.845 982.714C279.539 963.768 233.558 903.141 258.134 852.934C282.71 802.728 307.285 810.78 324.726 800.359Z" stroke="#100892" stroke-width="0.5"/>
</g>
<g filter="url(#filter1_f_354_371)">
<path d="M324.726 550.188C342.167 541.704 658.48 469.969 749.648 453C820.997 460.456 983.197 475.369 1061.2 475.369C1139.21 475.369 1178.27 495.681 1188.05 505.837C1192.54 534.89 1198.83 599.168 1188.05 623.851C1174.57 654.704 1142.07 698.671 1131.76 744.951C1121.45 791.231 1089.74 760.378 1061.2 768.862C1032.67 777.347 861.428 770.405 777.395 768.862C693.362 767.32 587.924 751.507 457.911 744.951C327.897 738.394 300.151 714.097 289.845 698.671C279.539 683.244 233.558 633.878 258.134 592.998C282.71 552.117 307.285 558.673 324.726 550.188Z" fill="#C67CA9"/>
<path d="M324.726 550.188C342.167 541.704 658.48 469.969 749.648 453C820.997 460.456 983.197 475.369 1061.2 475.369C1139.21 475.369 1178.27 495.681 1188.05 505.837C1192.54 534.89 1198.83 599.168 1188.05 623.851C1174.57 654.704 1142.07 698.671 1131.76 744.951C1121.45 791.231 1089.74 760.378 1061.2 768.862C1032.67 777.347 861.428 770.405 777.395 768.862C693.362 767.32 587.924 751.507 457.911 744.951C327.897 738.394 300.151 714.097 289.845 698.671C279.539 683.244 233.558 633.878 258.134 592.998C282.71 552.117 307.285 558.673 324.726 550.188Z" stroke="#100892" stroke-width="0.5"/>
</g>
<g filter="url(#filter2_f_354_371)">
<path d="M320.661 304.041C337.14 293.038 636.01 200.007 722.151 178C789.565 187.67 942.821 207.009 1016.53 207.009C1090.23 207.009 1127.14 233.351 1136.38 246.522C1140.62 284.201 1146.56 367.562 1136.38 399.572C1123.64 439.585 1092.93 496.604 1083.19 556.624C1073.46 616.643 1043.49 576.63 1016.53 587.634C989.562 598.637 827.767 589.634 748.368 587.634C668.969 585.633 569.345 565.126 446.501 556.624C323.657 548.121 297.44 516.611 287.703 496.604C277.965 476.598 234.52 412.577 257.741 359.559C280.961 306.542 304.182 315.045 320.661 304.041Z" fill="#F653E9"/>
<path d="M320.661 304.041C337.14 293.038 636.01 200.007 722.151 178C789.565 187.67 942.821 207.009 1016.53 207.009C1090.23 207.009 1127.14 233.351 1136.38 246.522C1140.62 284.201 1146.56 367.562 1136.38 399.572C1123.64 439.585 1092.93 496.604 1083.19 556.624C1073.46 616.643 1043.49 576.63 1016.53 587.634C989.562 598.637 827.767 589.634 748.368 587.634C668.969 585.633 569.345 565.126 446.501 556.624C323.657 548.121 297.44 516.611 287.703 496.604C277.965 476.598 234.52 412.577 257.741 359.559C280.961 306.542 304.182 315.045 320.661 304.041Z" stroke="#100892" stroke-width="0.5"/>
</g>
<g filter="url(#filter3_f_354_371)">
<path d="M322.303 65.4775C339.17 56.3564 645.085 -20.7579 733.256 -39C802.259 -30.9845 959.126 -14.9536 1034.57 -14.9536C1110.01 -14.9536 1147.79 6.88165 1157.24 17.7993C1161.59 49.032 1167.67 118.131 1157.24 144.665C1144.21 177.832 1112.77 225.096 1102.81 274.847C1092.84 324.598 1062.17 291.431 1034.57 300.552C1006.97 309.673 841.361 302.21 760.09 300.552C678.82 298.893 576.848 281.895 451.109 274.847C325.369 267.799 298.535 241.68 288.568 225.096C278.601 208.512 234.132 155.444 257.9 111.497C281.667 67.5505 305.435 74.5985 322.303 65.4775Z" fill="#100892"/>
<path d="M322.303 65.4775C339.17 56.3564 645.085 -20.7579 733.256 -39C802.259 -30.9845 959.126 -14.9536 1034.57 -14.9536C1110.01 -14.9536 1147.79 6.88165 1157.24 17.7993C1161.59 49.032 1167.67 118.131 1157.24 144.665C1144.21 177.832 1112.77 225.096 1102.81 274.847C1092.84 324.598 1062.17 291.431 1034.57 300.552C1006.97 309.673 841.361 302.21 760.09 300.552C678.82 298.893 576.848 281.895 451.109 274.847C325.369 267.799 298.535 241.68 288.568 225.096C278.601 208.512 234.132 155.444 257.9 111.497C281.667 67.5505 305.435 74.5985 322.303 65.4775Z" stroke="#100892" stroke-width="0.5"/>
</g>
<defs>
<filter id="filter0_f_354_371" x="0.75" y="430.746" width="1443.5" height="893.504" filterUnits="userSpaceOnUse" color-interpolation-filters="sRGB">
<feFlood flood-opacity="0" result="BackgroundImageFix"/>
<feBlend mode="normal" in="SourceGraphic" in2="BackgroundImageFix" result="shape"/>
<feGaussianBlur stdDeviation="125" result="effect1_foregroundBlur_354_371"/>
</filter>
<filter id="filter1_f_354_371" x="0.749756" y="202.748" width="1443.5" height="820.502" filterUnits="userSpaceOnUse" color-interpolation-filters="sRGB">
<feFlood flood-opacity="0" result="BackgroundImageFix"/>
<feBlend mode="normal" in="SourceGraphic" in2="BackgroundImageFix" result="shape"/>
<feGaussianBlur stdDeviation="125" result="effect1_foregroundBlur_354_371"/>
</filter>
<filter id="filter2_f_354_371" x="0.75" y="-72.2545" width="1391.5" height="915.505" filterUnits="userSpaceOnUse" color-interpolation-filters="sRGB">
<feFlood flood-opacity="0" result="BackgroundImageFix"/>
<feBlend mode="normal" in="SourceGraphic" in2="BackgroundImageFix" result="shape"/>
<feGaussianBlur stdDeviation="125" result="effect1_foregroundBlur_354_371"/>
</filter>
<filter id="filter3_f_354_371" x="0.75" y="-289.253" width="1412.5" height="844.503" filterUnits="userSpaceOnUse" color-interpolation-filters="sRGB">
<feFlood flood-opacity="0" result="BackgroundImageFix"/>
<feBlend mode="normal" in="SourceGraphic" in2="BackgroundImageFix" result="shape"/>
<feGaussianBlur stdDeviation="125" result="effect1_foregroundBlur_354_371"/>
</filter>
</defs>
</svg>
