<svg width="964" height="175" viewBox="0 0 964 175" fill="none" xmlns="http://www.w3.org/2000/svg">
<path d="M45.6142 99.2094L68.4865 105.024C81.8311 108.417 89.9736 121.902 86.7622 135.291C82.2118 154.263 96.592 172.5 116.102 172.5H879C924.563 172.5 961.5 135.563 961.5 90V85C961.5 39.4365 924.564 2.5 879 2.5H118.095C97.4783 2.5 82.1809 21.6176 86.7022 41.7323C89.9617 56.2336 80.9667 70.6634 66.5116 74.1221L45.536 79.1409L44.9253 79.2684C33.7605 81.5988 34.3964 97.6988 45.6142 99.2094Z" fill="black" fill-opacity="0.6" stroke="url(#paint0_linear_65_696)" stroke-width="5"/>
<path d="M149.556 32.2273V55.5H144.635V32.2273H149.556ZM153.604 55.5V32.2273H158.525V51.4432H168.502V55.5H153.604ZM179.167 55.5V32.2273H194.576V36.2841H184.087V41.8295H193.553V45.8864H184.087V55.5H179.167ZM204.4 55.8409C202.635 55.8409 201.108 55.4659 199.82 54.7159C198.54 53.9583 197.551 52.9053 196.854 51.5568C196.157 50.2008 195.809 48.6288 195.809 46.8409C195.809 45.0379 196.157 43.4621 196.854 42.1136C197.551 40.7576 198.54 39.7045 199.82 38.9545C201.108 38.197 202.635 37.8182 204.4 37.8182C206.165 37.8182 207.688 38.197 208.968 38.9545C210.256 39.7045 211.248 40.7576 211.945 42.1136C212.642 43.4621 212.991 45.0379 212.991 46.8409C212.991 48.6288 212.642 50.2008 211.945 51.5568C211.248 52.9053 210.256 53.9583 208.968 54.7159C207.688 55.4659 206.165 55.8409 204.4 55.8409ZM204.422 52.0909C205.225 52.0909 205.896 51.8636 206.434 51.4091C206.972 50.947 207.377 50.3182 207.65 49.5227C207.93 48.7273 208.07 47.822 208.07 46.8068C208.07 45.7917 207.93 44.8864 207.65 44.0909C207.377 43.2955 206.972 42.6667 206.434 42.2045C205.896 41.7424 205.225 41.5114 204.422 41.5114C203.612 41.5114 202.93 41.7424 202.377 42.2045C201.831 42.6667 201.419 43.2955 201.138 44.0909C200.866 44.8864 200.729 45.7917 200.729 46.8068C200.729 47.822 200.866 48.7273 201.138 49.5227C201.419 50.3182 201.831 50.947 202.377 51.4091C202.93 51.8636 203.612 52.0909 204.422 52.0909ZM216.138 55.5V38.0455H220.831V41.0909H221.013C221.331 40.0076 221.866 39.1894 222.616 38.6364C223.366 38.0758 224.229 37.7955 225.206 37.7955C225.449 37.7955 225.71 37.8106 225.991 37.8409C226.271 37.8712 226.517 37.9129 226.729 37.9659V42.2614C226.502 42.1932 226.188 42.1326 225.786 42.0795C225.385 42.0265 225.017 42 224.684 42C223.972 42 223.335 42.1553 222.775 42.4659C222.222 42.7689 221.782 43.1932 221.456 43.7386C221.138 44.2841 220.979 44.9129 220.979 45.625V55.5H216.138ZM234.073 45.4091V55.5H229.232V38.0455H233.846V41.125H234.05C234.437 40.1098 235.084 39.3068 235.993 38.7159C236.903 38.1174 238.005 37.8182 239.3 37.8182C240.512 37.8182 241.569 38.0833 242.471 38.6136C243.372 39.1439 244.073 39.9015 244.573 40.8864C245.073 41.8636 245.323 43.0303 245.323 44.3864V55.5H240.482V45.25C240.49 44.1818 240.217 43.3485 239.664 42.75C239.111 42.1439 238.349 41.8409 237.38 41.8409C236.728 41.8409 236.153 41.9811 235.653 42.2614C235.16 42.5417 234.774 42.9508 234.493 43.4886C234.221 44.0189 234.081 44.6591 234.073 45.4091ZM257.025 55.8409C255.26 55.8409 253.733 55.4659 252.445 54.7159C251.165 53.9583 250.176 52.9053 249.479 51.5568C248.782 50.2008 248.434 48.6288 248.434 46.8409C248.434 45.0379 248.782 43.4621 249.479 42.1136C250.176 40.7576 251.165 39.7045 252.445 38.9545C253.733 38.197 255.26 37.8182 257.025 37.8182C258.79 37.8182 260.313 38.197 261.593 38.9545C262.881 39.7045 263.873 40.7576 264.57 42.1136C265.267 43.4621 265.616 45.0379 265.616 46.8409C265.616 48.6288 265.267 50.2008 264.57 51.5568C263.873 52.9053 262.881 53.9583 261.593 54.7159C260.313 55.4659 258.79 55.8409 257.025 55.8409ZM257.047 52.0909C257.85 52.0909 258.521 51.8636 259.059 51.4091C259.597 50.947 260.002 50.3182 260.275 49.5227C260.555 48.7273 260.695 47.822 260.695 46.8068C260.695 45.7917 260.555 44.8864 260.275 44.0909C260.002 43.2955 259.597 42.6667 259.059 42.2045C258.521 41.7424 257.85 41.5114 257.047 41.5114C256.237 41.5114 255.555 41.7424 255.002 42.2045C254.456 42.6667 254.044 43.2955 253.763 44.0909C253.491 44.8864 253.354 45.7917 253.354 46.8068C253.354 47.822 253.491 48.7273 253.763 49.5227C254.044 50.3182 254.456 50.947 255.002 51.4091C255.555 51.8636 256.237 52.0909 257.047 52.0909ZM291.692 39.75C291.533 39.197 291.31 38.7083 291.022 38.2841C290.734 37.8523 290.382 37.4886 289.965 37.1932C289.556 36.8902 289.086 36.6591 288.556 36.5C288.033 36.3409 287.454 36.2614 286.817 36.2614C285.628 36.2614 284.582 36.5568 283.681 37.1477C282.787 37.7386 282.09 38.5985 281.59 39.7273C281.09 40.8485 280.84 42.2197 280.84 43.8409C280.84 45.4621 281.086 46.8409 281.579 47.9773C282.071 49.1136 282.768 49.9811 283.67 50.5795C284.571 51.1705 285.635 51.4659 286.863 51.4659C287.976 51.4659 288.927 51.2689 289.715 50.875C290.51 50.4735 291.117 49.9091 291.533 49.1818C291.957 48.4545 292.17 47.5947 292.17 46.6023L293.17 46.75H287.17V43.0455H296.908V45.9773C296.908 48.0227 296.476 49.7803 295.613 51.25C294.749 52.7121 293.56 53.8409 292.045 54.6364C290.529 55.4242 288.795 55.8182 286.84 55.8182C284.658 55.8182 282.742 55.3371 281.09 54.375C279.438 53.4053 278.151 52.0303 277.226 50.25C276.31 48.4621 275.851 46.3409 275.851 43.8864C275.851 42 276.124 40.3182 276.67 38.8409C277.223 37.3561 277.995 36.0985 278.988 35.0682C279.98 34.0379 281.135 33.2538 282.454 32.7159C283.772 32.178 285.2 31.9091 286.738 31.9091C288.056 31.9091 289.283 32.1023 290.42 32.4886C291.556 32.8674 292.563 33.4053 293.442 34.1023C294.329 34.7992 295.052 35.6288 295.613 36.5909C296.173 37.5455 296.533 38.5985 296.692 39.75H291.692ZM300.513 55.5V38.0455H305.206V41.0909H305.388C305.706 40.0076 306.241 39.1894 306.991 38.6364C307.741 38.0758 308.604 37.7955 309.581 37.7955C309.824 37.7955 310.085 37.8106 310.366 37.8409C310.646 37.8712 310.892 37.9129 311.104 37.9659V42.2614C310.877 42.1932 310.563 42.1326 310.161 42.0795C309.76 42.0265 309.392 42 309.059 42C308.347 42 307.71 42.1553 307.15 42.4659C306.597 42.7689 306.157 43.1932 305.831 43.7386C305.513 44.2841 305.354 44.9129 305.354 45.625V55.5H300.513ZM320.681 55.8409C318.916 55.8409 317.389 55.4659 316.101 54.7159C314.821 53.9583 313.832 52.9053 313.135 51.5568C312.438 50.2008 312.09 48.6288 312.09 46.8409C312.09 45.0379 312.438 43.4621 313.135 42.1136C313.832 40.7576 314.821 39.7045 316.101 38.9545C317.389 38.197 318.916 37.8182 320.681 37.8182C322.446 37.8182 323.969 38.197 325.249 38.9545C326.537 39.7045 327.529 40.7576 328.226 42.1136C328.923 43.4621 329.272 45.0379 329.272 46.8409C329.272 48.6288 328.923 50.2008 328.226 51.5568C327.529 52.9053 326.537 53.9583 325.249 54.7159C323.969 55.4659 322.446 55.8409 320.681 55.8409ZM320.704 52.0909C321.507 52.0909 322.177 51.8636 322.715 51.4091C323.253 50.947 323.658 50.3182 323.931 49.5227C324.211 48.7273 324.351 47.822 324.351 46.8068C324.351 45.7917 324.211 44.8864 323.931 44.0909C323.658 43.2955 323.253 42.6667 322.715 42.2045C322.177 41.7424 321.507 41.5114 320.704 41.5114C319.893 41.5114 319.211 41.7424 318.658 42.2045C318.113 42.6667 317.7 43.2955 317.42 44.0909C317.147 44.8864 317.01 45.7917 317.01 46.8068C317.01 47.822 317.147 48.7273 317.42 49.5227C317.7 50.3182 318.113 50.947 318.658 51.4091C319.211 51.8636 319.893 52.0909 320.704 52.0909ZM343.613 48.0682V38.0455H348.454V55.5H343.806V52.3295H343.624C343.23 53.3523 342.575 54.1742 341.658 54.7955C340.749 55.4167 339.639 55.7273 338.329 55.7273C337.162 55.7273 336.135 55.4621 335.249 54.9318C334.363 54.4015 333.67 53.6477 333.17 52.6705C332.677 51.6932 332.427 50.5227 332.42 49.1591V38.0455H337.26V48.2955C337.268 49.3258 337.545 50.1402 338.09 50.7386C338.635 51.3371 339.367 51.6364 340.283 51.6364C340.867 51.6364 341.412 51.5038 341.92 51.2386C342.427 50.9659 342.836 50.5644 343.147 50.0341C343.465 49.5038 343.62 48.8485 343.613 48.0682ZM352.326 62.0455V38.0455H357.099V40.9773H357.314C357.527 40.5076 357.833 40.0303 358.235 39.5455C358.644 39.053 359.174 38.6439 359.826 38.3182C360.485 37.9848 361.303 37.8182 362.28 37.8182C363.553 37.8182 364.727 38.1515 365.803 38.8182C366.879 39.4773 367.739 40.4735 368.383 41.8068C369.027 43.1326 369.349 44.7955 369.349 46.7955C369.349 48.7424 369.034 50.3864 368.405 51.7273C367.784 53.0606 366.936 54.072 365.86 54.7614C364.792 55.4432 363.595 55.7841 362.269 55.7841C361.33 55.7841 360.53 55.6288 359.871 55.3182C359.22 55.0076 358.686 54.6174 358.269 54.1477C357.852 53.6705 357.534 53.1894 357.314 52.7045H357.167V62.0455H352.326ZM357.064 46.7727C357.064 47.8106 357.208 48.7159 357.496 49.4886C357.784 50.2614 358.201 50.8636 358.746 51.2955C359.292 51.7197 359.955 51.9318 360.735 51.9318C361.523 51.9318 362.189 51.7159 362.735 51.2841C363.28 50.8447 363.693 50.2386 363.974 49.4659C364.261 48.6856 364.405 47.7879 364.405 46.7727C364.405 45.7652 364.265 44.8788 363.985 44.1136C363.705 43.3485 363.292 42.75 362.746 42.3182C362.201 41.8864 361.53 41.6705 360.735 41.6705C359.947 41.6705 359.28 41.8788 358.735 42.2955C358.197 42.7121 357.784 43.303 357.496 44.0682C357.208 44.8333 357.064 45.7348 357.064 46.7727ZM391.681 44.1932V47.1364H381.363V44.1932H391.681ZM408.03 32.2273V55.5H405.212V32.2273H408.03ZM412.408 34.7273V32.2273H429.863V34.7273H422.545V55.5H419.726V34.7273H412.408ZM455.939 38.0455C455.803 36.8939 455.25 36 454.28 35.3636C453.311 34.7273 452.121 34.4091 450.712 34.4091C449.682 34.4091 448.78 34.5758 448.008 34.9091C447.242 35.2424 446.644 35.7008 446.212 36.2841C445.788 36.8674 445.576 37.5303 445.576 38.2727C445.576 38.8939 445.724 39.428 446.019 39.875C446.322 40.3144 446.708 40.6818 447.178 40.9773C447.648 41.2652 448.14 41.5038 448.655 41.6932C449.17 41.875 449.644 42.0227 450.076 42.1364L452.439 42.7727C453.045 42.9318 453.72 43.1515 454.462 43.4318C455.212 43.7121 455.928 44.0947 456.61 44.5795C457.299 45.0568 457.867 45.6705 458.314 46.4205C458.761 47.1705 458.985 48.0909 458.985 49.1818C458.985 50.4394 458.655 51.5758 457.996 52.5909C457.345 53.6061 456.39 54.4129 455.133 55.0114C453.883 55.6098 452.364 55.9091 450.576 55.9091C448.909 55.9091 447.466 55.6402 446.246 55.1023C445.034 54.5644 444.08 53.8144 443.383 52.8523C442.693 51.8902 442.303 50.7727 442.212 49.5H445.121C445.197 50.3788 445.492 51.1061 446.008 51.6818C446.53 52.25 447.189 52.6742 447.985 52.9545C448.788 53.2273 449.652 53.3636 450.576 53.3636C451.652 53.3636 452.617 53.1894 453.474 52.8409C454.33 52.4848 455.008 51.9924 455.508 51.3636C456.008 50.7273 456.258 49.9848 456.258 49.1364C456.258 48.3636 456.042 47.7348 455.61 47.25C455.178 46.7652 454.61 46.3712 453.905 46.0682C453.201 45.7652 452.439 45.5 451.621 45.2727L448.758 44.4545C446.939 43.9318 445.5 43.1856 444.439 42.2159C443.379 41.2462 442.849 39.9773 442.849 38.4091C442.849 37.1061 443.201 35.9697 443.905 35C444.617 34.0227 445.572 33.2652 446.769 32.7273C447.974 32.1818 449.318 31.9091 450.803 31.9091C452.303 31.9091 453.636 32.178 454.803 32.7159C455.97 33.2462 456.894 33.9735 457.576 34.8977C458.265 35.822 458.629 36.8712 458.667 38.0455H455.939ZM478.891 32.2273H481.709V47.6364C481.709 49.2273 481.334 50.6477 480.584 51.8977C479.842 53.1402 478.793 54.1212 477.437 54.8409C476.081 55.553 474.49 55.9091 472.664 55.9091C470.838 55.9091 469.247 55.553 467.891 54.8409C466.535 54.1212 465.482 53.1402 464.732 51.8977C463.99 50.6477 463.618 49.2273 463.618 47.6364V32.2273H466.437V47.4091C466.437 48.5455 466.687 49.5568 467.187 50.4432C467.687 51.322 468.399 52.0152 469.323 52.5227C470.255 53.0227 471.368 53.2727 472.664 53.2727C473.959 53.2727 475.073 53.0227 476.005 52.5227C476.937 52.0152 477.649 51.322 478.141 50.4432C478.641 49.5568 478.891 48.5455 478.891 47.4091V32.2273ZM487.337 55.5V32.2273H495.201C497.027 32.2273 498.519 32.5568 499.678 33.2159C500.845 33.8674 501.708 34.75 502.269 35.8636C502.83 36.9773 503.11 38.2197 503.11 39.5909C503.11 40.9621 502.83 42.2083 502.269 43.3295C501.716 44.4508 500.86 45.3447 499.701 46.0114C498.542 46.6705 497.057 47 495.246 47H489.61V44.5H495.155C496.405 44.5 497.409 44.2841 498.167 43.8523C498.924 43.4205 499.474 42.8371 499.814 42.1023C500.163 41.3598 500.337 40.5227 500.337 39.5909C500.337 38.6591 500.163 37.8258 499.814 37.0909C499.474 36.3561 498.92 35.7803 498.155 35.3636C497.39 34.9394 496.375 34.7273 495.11 34.7273H490.155V55.5H487.337ZM507.65 55.5V32.2273H515.513C517.339 32.2273 518.831 32.5568 519.991 33.2159C521.157 33.8674 522.021 34.75 522.581 35.8636C523.142 36.9773 523.422 38.2197 523.422 39.5909C523.422 40.9621 523.142 42.2083 522.581 43.3295C522.028 44.4508 521.172 45.3447 520.013 46.0114C518.854 46.6705 517.369 47 515.559 47H509.922V44.5H515.468C516.718 44.5 517.722 44.2841 518.479 43.8523C519.237 43.4205 519.786 42.8371 520.127 42.1023C520.475 41.3598 520.65 40.5227 520.65 39.5909C520.65 38.6591 520.475 37.8258 520.127 37.0909C519.786 36.3561 519.233 35.7803 518.468 35.3636C517.703 34.9394 516.688 34.7273 515.422 34.7273H510.468V55.5H507.65ZM547.599 43.8636C547.599 46.3182 547.155 48.4394 546.269 50.2273C545.383 52.0152 544.167 53.3939 542.621 54.3636C541.076 55.3333 539.311 55.8182 537.326 55.8182C535.341 55.8182 533.576 55.3333 532.03 54.3636C530.485 53.3939 529.269 52.0152 528.383 50.2273C527.496 48.4394 527.053 46.3182 527.053 43.8636C527.053 41.4091 527.496 39.2879 528.383 37.5C529.269 35.7121 530.485 34.3333 532.03 33.3636C533.576 32.3939 535.341 31.9091 537.326 31.9091C539.311 31.9091 541.076 32.3939 542.621 33.3636C544.167 34.3333 545.383 35.7121 546.269 37.5C547.155 39.2879 547.599 41.4091 547.599 43.8636ZM544.871 43.8636C544.871 41.8485 544.534 40.1477 543.86 38.7614C543.193 37.375 542.288 36.3258 541.144 35.6136C540.008 34.9015 538.735 34.5455 537.326 34.5455C535.917 34.5455 534.64 34.9015 533.496 35.6136C532.36 36.3258 531.455 37.375 530.78 38.7614C530.114 40.1477 529.78 41.8485 529.78 43.8636C529.78 45.8788 530.114 47.5795 530.78 48.9659C531.455 50.3523 532.36 51.4015 533.496 52.1136C534.64 52.8258 535.917 53.1818 537.326 53.1818C538.735 53.1818 540.008 52.8258 541.144 52.1136C542.288 51.4015 543.193 50.3523 543.86 48.9659C544.534 47.5795 544.871 45.8788 544.871 43.8636ZM552.337 55.5V32.2273H560.201C562.019 32.2273 563.511 32.5379 564.678 33.1591C565.845 33.7727 566.708 34.6174 567.269 35.6932C567.83 36.7689 568.11 37.9924 568.11 39.3636C568.11 40.7348 567.83 41.9508 567.269 43.0114C566.708 44.072 565.849 44.9053 564.689 45.5114C563.53 46.1098 562.049 46.4091 560.246 46.4091H553.883V43.8636H560.155C561.398 43.8636 562.398 43.6818 563.155 43.3182C563.92 42.9545 564.474 42.4394 564.814 41.7727C565.163 41.0985 565.337 40.2955 565.337 39.3636C565.337 38.4318 565.163 37.6174 564.814 36.9205C564.466 36.2235 563.909 35.6856 563.144 35.3068C562.379 34.9205 561.367 34.7273 560.11 34.7273H555.155V55.5H552.337ZM563.292 45.0455L569.019 55.5H565.746L560.11 45.0455H563.292ZM571.533 34.7273V32.2273H588.988V34.7273H581.67V55.5H578.851V34.7273H571.533Z" fill="white"/>
<path d="M715.876 52.75V50.0909L722.089 44.3381C722.618 43.8267 723.061 43.3665 723.419 42.9574C723.783 42.5483 724.058 42.1477 724.246 41.7557C724.433 41.358 724.527 40.929 724.527 40.4688C724.527 39.9574 724.41 39.517 724.177 39.1477C723.944 38.7727 723.626 38.4858 723.223 38.2869C722.819 38.0824 722.362 37.9801 721.851 37.9801C721.317 37.9801 720.851 38.0881 720.453 38.304C720.055 38.5199 719.748 38.8295 719.533 39.233C719.317 39.6364 719.209 40.1165 719.209 40.6733H715.706C715.706 39.5312 715.964 38.5398 716.481 37.6989C716.998 36.858 717.723 36.2074 718.655 35.7472C719.587 35.2869 720.66 35.0568 721.876 35.0568C723.126 35.0568 724.214 35.2784 725.14 35.7216C726.072 36.1591 726.797 36.767 727.314 37.5455C727.831 38.3239 728.089 39.2159 728.089 40.2216C728.089 40.8807 727.959 41.5312 727.697 42.1733C727.442 42.8153 726.984 43.5284 726.325 44.3125C725.666 45.0909 724.737 46.0256 723.538 47.1165L720.99 49.6136V49.733H728.319V52.75H715.876ZM737.837 53.1335C736.371 53.1278 735.11 52.767 734.053 52.0511C733.002 51.3352 732.192 50.2983 731.624 48.9403C731.062 47.5824 730.783 45.9489 730.789 44.0398C730.789 42.1364 731.07 40.5142 731.633 39.1733C732.201 37.8324 733.011 36.8125 734.062 36.1136C735.118 35.4091 736.377 35.0568 737.837 35.0568C739.297 35.0568 740.553 35.4091 741.604 36.1136C742.661 36.8182 743.474 37.8409 744.042 39.1818C744.61 40.517 744.891 42.1364 744.886 44.0398C744.886 45.9545 744.601 47.5909 744.033 48.9489C743.471 50.3068 742.664 51.3437 741.613 52.0597C740.562 52.7756 739.303 53.1335 737.837 53.1335ZM737.837 50.0739C738.837 50.0739 739.636 49.571 740.232 48.5653C740.829 47.5597 741.124 46.0511 741.118 44.0398C741.118 42.7159 740.982 41.6136 740.709 40.733C740.442 39.8523 740.062 39.1903 739.567 38.7472C739.079 38.304 738.502 38.0824 737.837 38.0824C736.843 38.0824 736.047 38.5795 735.451 39.5739C734.854 40.5682 734.553 42.0568 734.547 44.0398C734.547 45.3807 734.681 46.5 734.948 47.3977C735.221 48.2898 735.604 48.9602 736.099 49.4091C736.593 49.8523 737.172 50.0739 737.837 50.0739ZM747.517 52.75V50.0909L753.73 44.3381C754.258 43.8267 754.702 43.3665 755.06 42.9574C755.423 42.5483 755.699 42.1477 755.886 41.7557C756.074 41.358 756.167 40.929 756.167 40.4688C756.167 39.9574 756.051 39.517 755.818 39.1477C755.585 38.7727 755.267 38.4858 754.863 38.2869C754.46 38.0824 754.003 37.9801 753.491 37.9801C752.957 37.9801 752.491 38.0881 752.094 38.304C751.696 38.5199 751.389 38.8295 751.173 39.233C750.957 39.6364 750.849 40.1165 750.849 40.6733H747.346C747.346 39.5312 747.605 38.5398 748.122 37.6989C748.639 36.858 749.363 36.2074 750.295 35.7472C751.227 35.2869 752.301 35.0568 753.517 35.0568C754.767 35.0568 755.855 35.2784 756.781 35.7216C757.713 36.1591 758.437 36.767 758.954 37.5455C759.471 38.3239 759.73 39.2159 759.73 40.2216C759.73 40.8807 759.599 41.5312 759.338 42.1733C759.082 42.8153 758.625 43.5284 757.966 44.3125C757.307 45.0909 756.378 46.0256 755.179 47.1165L752.631 49.6136V49.733H759.96V52.75H747.517ZM769.086 52.9886C767.813 52.9886 766.68 52.7699 765.685 52.3324C764.697 51.8892 763.915 51.2812 763.341 50.5085C762.773 49.7301 762.481 48.8324 762.464 47.8153H766.18C766.202 48.2415 766.341 48.6165 766.597 48.9403C766.859 49.2585 767.205 49.5057 767.637 49.6818C768.069 49.858 768.555 49.946 769.094 49.946C769.657 49.946 770.154 49.8466 770.586 49.6477C771.018 49.4489 771.356 49.1733 771.6 48.821C771.844 48.4687 771.966 48.0625 771.966 47.6023C771.966 47.1364 771.836 46.7244 771.574 46.3665C771.319 46.0028 770.949 45.7187 770.466 45.5142C769.989 45.3097 769.421 45.2074 768.762 45.2074H767.134V42.4972H768.762C769.319 42.4972 769.81 42.4006 770.236 42.2074C770.668 42.0142 771.003 41.7472 771.242 41.4062C771.481 41.0597 771.6 40.6562 771.6 40.196C771.6 39.7585 771.495 39.375 771.285 39.0455C771.08 38.7102 770.79 38.4489 770.415 38.2614C770.046 38.0739 769.614 37.9801 769.12 37.9801C768.62 37.9801 768.163 38.071 767.748 38.2528C767.333 38.429 767.001 38.6818 766.751 39.0114C766.501 39.3409 766.367 39.7273 766.35 40.1705H762.813C762.83 39.1648 763.117 38.2784 763.674 37.5114C764.231 36.7443 764.981 36.1449 765.924 35.7131C766.873 35.2756 767.944 35.0568 769.137 35.0568C770.341 35.0568 771.395 35.2756 772.299 35.7131C773.202 36.1506 773.904 36.7415 774.404 37.4858C774.91 38.2244 775.16 39.054 775.154 39.9744C775.16 40.9517 774.856 41.767 774.242 42.4205C773.634 43.0739 772.841 43.4886 771.864 43.6648V43.8011C773.148 43.9659 774.126 44.4119 774.796 45.1392C775.472 45.8608 775.807 46.7642 775.802 47.8494C775.807 48.8438 775.52 49.7273 774.941 50.5C774.367 51.2727 773.574 51.8807 772.563 52.3239C771.552 52.767 770.393 52.9886 769.086 52.9886ZM789.666 52.75V35.2955H796.552C797.876 35.2955 799.004 35.5483 799.936 36.054C800.868 36.554 801.578 37.25 802.067 38.142C802.561 39.0284 802.808 40.0511 802.808 41.2102C802.808 42.3693 802.558 43.392 802.058 44.2784C801.558 45.1648 800.834 45.8551 799.885 46.3494C798.942 46.8437 797.8 47.0909 796.459 47.0909H792.069V44.1335H795.862C796.572 44.1335 797.158 44.0114 797.618 43.767C798.084 43.517 798.43 43.1733 798.658 42.7358C798.89 42.2926 799.007 41.7841 799.007 41.2102C799.007 40.6307 798.89 40.125 798.658 39.6932C798.43 39.2557 798.084 38.9176 797.618 38.679C797.152 38.4347 796.561 38.3125 795.845 38.3125H793.356V52.75H789.666ZM805.137 52.75V39.6591H808.657V41.9432H808.793C809.032 41.1307 809.432 40.517 809.995 40.1023C810.557 39.6818 811.205 39.4716 811.938 39.4716C812.12 39.4716 812.316 39.483 812.526 39.5057C812.736 39.5284 812.921 39.5597 813.08 39.5994V42.821C812.91 42.7699 812.674 42.7244 812.373 42.6847C812.072 42.6449 811.796 42.625 811.546 42.625C811.012 42.625 810.535 42.7415 810.114 42.9744C809.699 43.2017 809.37 43.5199 809.126 43.929C808.887 44.3381 808.768 44.8097 808.768 45.3438V52.75H805.137ZM820.314 53.0057C818.967 53.0057 817.808 52.733 816.837 52.1875C815.871 51.6364 815.126 50.858 814.604 49.8523C814.081 48.8409 813.819 47.6449 813.819 46.2642C813.819 44.9176 814.081 43.7358 814.604 42.7188C815.126 41.7017 815.862 40.9091 816.811 40.3409C817.765 39.7727 818.885 39.4886 820.169 39.4886C821.033 39.4886 821.837 39.6278 822.581 39.9062C823.331 40.179 823.984 40.5909 824.541 41.142C825.104 41.6932 825.541 42.3864 825.854 43.2216C826.166 44.0511 826.322 45.0227 826.322 46.1364V47.1335H815.268V44.8835H822.905C822.905 44.3608 822.791 43.8977 822.564 43.4943C822.337 43.0909 822.021 42.7756 821.618 42.5483C821.22 42.3153 820.757 42.1989 820.229 42.1989C819.677 42.1989 819.189 42.3267 818.763 42.5824C818.342 42.8324 818.013 43.1705 817.774 43.5966C817.535 44.017 817.413 44.4858 817.408 45.0028V47.142C817.408 47.7898 817.527 48.3494 817.765 48.821C818.01 49.2926 818.354 49.6562 818.797 49.9119C819.24 50.1676 819.765 50.2955 820.373 50.2955C820.777 50.2955 821.146 50.2386 821.481 50.125C821.817 50.0114 822.104 49.8409 822.342 49.6136C822.581 49.3864 822.763 49.108 822.888 48.7784L826.246 49C826.075 49.8068 825.726 50.5114 825.197 51.1136C824.675 51.7102 823.998 52.1761 823.169 52.5114C822.345 52.8409 821.393 53.0057 820.314 53.0057ZM839.584 43.392L836.26 43.5966C836.203 43.3125 836.081 43.0568 835.893 42.8295C835.706 42.5966 835.459 42.4119 835.152 42.2756C834.851 42.1335 834.49 42.0625 834.069 42.0625C833.507 42.0625 833.033 42.1818 832.646 42.4205C832.26 42.6534 832.067 42.9659 832.067 43.358C832.067 43.6705 832.192 43.9347 832.442 44.1506C832.692 44.3665 833.121 44.5398 833.729 44.6705L836.098 45.1477C837.371 45.4091 838.319 45.8295 838.944 46.4091C839.569 46.9886 839.882 47.75 839.882 48.6932C839.882 49.5511 839.629 50.304 839.123 50.9517C838.623 51.5994 837.936 52.1051 837.061 52.4688C836.192 52.8267 835.189 53.0057 834.052 53.0057C832.319 53.0057 830.939 52.6449 829.91 51.9233C828.888 51.196 828.288 50.2074 828.112 48.9574L831.683 48.7699C831.791 49.2983 832.052 49.7017 832.467 49.9801C832.882 50.2528 833.413 50.3892 834.061 50.3892C834.697 50.3892 835.209 50.267 835.595 50.0227C835.987 49.7727 836.186 49.4517 836.192 49.0597C836.186 48.7301 836.047 48.4602 835.774 48.25C835.501 48.0341 835.081 47.8693 834.513 47.7557L832.246 47.304C830.967 47.0483 830.015 46.6051 829.39 45.9744C828.771 45.3437 828.462 44.5398 828.462 43.5625C828.462 42.7216 828.689 41.9972 829.143 41.3892C829.604 40.7812 830.248 40.3125 831.078 39.983C831.913 39.6534 832.89 39.4886 834.01 39.4886C835.663 39.4886 836.964 39.8381 837.913 40.5369C838.868 41.2358 839.425 42.1875 839.584 43.392ZM848.134 53.0057C846.788 53.0057 845.628 52.733 844.657 52.1875C843.691 51.6364 842.947 50.858 842.424 49.8523C841.901 48.8409 841.64 47.6449 841.64 46.2642C841.64 44.9176 841.901 43.7358 842.424 42.7188C842.947 41.7017 843.682 40.9091 844.631 40.3409C845.586 39.7727 846.705 39.4886 847.989 39.4886C848.853 39.4886 849.657 39.6278 850.401 39.9062C851.151 40.179 851.805 40.5909 852.361 41.142C852.924 41.6932 853.361 42.3864 853.674 43.2216C853.986 44.0511 854.143 45.0227 854.143 46.1364V47.1335H843.089V44.8835H850.725C850.725 44.3608 850.611 43.8977 850.384 43.4943C850.157 43.0909 849.841 42.7756 849.438 42.5483C849.04 42.3153 848.577 42.1989 848.049 42.1989C847.498 42.1989 847.009 42.3267 846.583 42.5824C846.163 42.8324 845.833 43.1705 845.594 43.5966C845.356 44.017 845.234 44.4858 845.228 45.0028V47.142C845.228 47.7898 845.347 48.3494 845.586 48.821C845.83 49.2926 846.174 49.6562 846.617 49.9119C847.06 50.1676 847.586 50.2955 848.194 50.2955C848.597 50.2955 848.966 50.2386 849.302 50.125C849.637 50.0114 849.924 49.8409 850.163 49.6136C850.401 49.3864 850.583 49.108 850.708 48.7784L854.066 49C853.895 49.8068 853.546 50.5114 853.018 51.1136C852.495 51.7102 851.819 52.1761 850.989 52.5114C850.165 52.8409 849.214 53.0057 848.134 53.0057ZM860.143 45.1818V52.75H856.512V39.6591H859.972V41.9688H860.126C860.415 41.2074 860.901 40.6051 861.583 40.1619C862.265 39.7131 863.091 39.4886 864.063 39.4886C864.972 39.4886 865.765 39.6875 866.441 40.0852C867.117 40.483 867.643 41.0511 868.018 41.7898C868.393 42.5227 868.58 43.3977 868.58 44.4148V52.75H864.949V45.0625C864.955 44.2614 864.751 43.6364 864.336 43.1875C863.921 42.733 863.35 42.5057 862.623 42.5057C862.134 42.5057 861.702 42.6108 861.327 42.821C860.958 43.0312 860.668 43.3381 860.458 43.7415C860.253 44.1392 860.148 44.6193 860.143 45.1818ZM878.405 39.6591V42.3864H870.521V39.6591H878.405ZM872.311 36.5227H875.942V48.7273C875.942 49.0625 875.993 49.3239 876.095 49.5114C876.197 49.6932 876.339 49.821 876.521 49.8949C876.709 49.9687 876.925 50.0057 877.169 50.0057C877.339 50.0057 877.51 49.9915 877.68 49.9631C877.851 49.929 877.981 49.9034 878.072 49.8864L878.643 52.5881C878.462 52.6449 878.206 52.7102 877.876 52.7841C877.547 52.8636 877.146 52.9119 876.675 52.929C875.8 52.9631 875.033 52.8466 874.373 52.5795C873.72 52.3125 873.212 51.8977 872.848 51.3352C872.484 50.7727 872.305 50.0625 872.311 49.2045V36.5227Z" fill="white"/>
<path d="M149.63 78.0455H152.272V89.5256C152.272 90.7472 151.985 91.8295 151.411 92.7727C150.837 93.7102 150.031 94.4489 148.991 94.9886C147.951 95.5227 146.732 95.7898 145.335 95.7898C143.943 95.7898 142.727 95.5227 141.687 94.9886C140.647 94.4489 139.84 93.7102 139.266 92.7727C138.693 91.8295 138.406 90.7472 138.406 89.5256V78.0455H141.039V89.3125C141.039 90.1023 141.212 90.804 141.559 91.4176C141.911 92.0312 142.408 92.5142 143.051 92.8665C143.693 93.2131 144.454 93.3864 145.335 93.3864C146.221 93.3864 146.985 93.2131 147.627 92.8665C148.275 92.5142 148.769 92.0312 149.11 91.4176C149.457 90.804 149.63 90.1023 149.63 89.3125V78.0455ZM155.896 95.5V82.4091H158.445V95.5H155.896ZM157.183 80.3892C156.74 80.3892 156.359 80.2415 156.041 79.946C155.729 79.6449 155.573 79.2869 155.573 78.8722C155.573 78.4517 155.729 78.0937 156.041 77.7983C156.359 77.4972 156.74 77.3466 157.183 77.3466C157.627 77.3466 158.004 77.4972 158.317 77.7983C158.635 78.0937 158.794 78.4517 158.794 78.8722C158.794 79.2869 158.635 79.6449 158.317 79.946C158.004 80.2415 157.627 80.3892 157.183 80.3892ZM174.872 77.2273L169.247 98.125H166.972L172.597 77.2273H174.872ZM194.818 78.0455H197.46V89.5256C197.46 90.7472 197.173 91.8295 196.599 92.7727C196.025 93.7102 195.218 94.4489 194.178 94.9886C193.139 95.5227 191.92 95.7898 190.522 95.7898C189.13 95.7898 187.914 95.5227 186.874 94.9886C185.835 94.4489 185.028 93.7102 184.454 92.7727C183.88 91.8295 183.593 90.7472 183.593 89.5256V78.0455H186.227V89.3125C186.227 90.1023 186.4 90.804 186.747 91.4176C187.099 92.0312 187.596 92.5142 188.238 92.8665C188.88 93.2131 189.641 93.3864 190.522 93.3864C191.408 93.3864 192.173 93.2131 192.815 92.8665C193.462 92.5142 193.957 92.0312 194.298 91.4176C194.644 90.804 194.818 90.1023 194.818 89.3125V78.0455ZM203.095 82.4091L205.984 87.5057L208.899 82.4091H211.686L207.604 88.9545L211.72 95.5H208.933L205.984 90.608L203.044 95.5H200.249L204.323 88.9545L200.3 82.4091H203.095ZM217.618 93.1136L217.49 94.0426C217.405 94.7244 217.26 95.4347 217.055 96.1733C216.857 96.9176 216.649 97.608 216.433 98.2443C216.223 98.8807 216.05 99.3864 215.913 99.7614H214.107C214.18 99.4091 214.283 98.9318 214.413 98.3295C214.544 97.733 214.672 97.0653 214.797 96.3267C214.922 95.5881 215.016 94.8352 215.078 94.0682L215.163 93.1136H217.618ZM227.492 95.5V78.0455H230.125V85.6307H238.827V78.0455H241.469V95.5H238.827V87.8892H230.125V95.5H227.492ZM244.443 80.3125V78.0455H257.952V80.3125H252.506V95.5H249.881V80.3125H244.443ZM260.937 78.0455H264.133L269.69 91.6136H269.894L275.451 78.0455H278.647V95.5H276.141V82.8693H275.979L270.832 95.4744H268.752L263.604 82.8608H263.443V95.5H260.937V78.0455ZM282.476 95.5V78.0455H285.109V93.233H293.019V95.5H282.476ZM299.134 93.1136L299.006 94.0426C298.921 94.7244 298.776 95.4347 298.571 96.1733C298.372 96.9176 298.165 97.608 297.949 98.2443C297.739 98.8807 297.565 99.3864 297.429 99.7614H295.622C295.696 99.4091 295.798 98.9318 295.929 98.3295C296.06 97.733 296.188 97.0653 296.313 96.3267C296.438 95.5881 296.531 94.8352 296.594 94.0682L296.679 93.1136H299.134ZM323.504 83.7216H320.845C320.743 83.1534 320.553 82.6534 320.274 82.2216C319.996 81.7898 319.655 81.4233 319.252 81.1222C318.848 80.821 318.396 80.5937 317.896 80.4403C317.402 80.2869 316.877 80.2102 316.32 80.2102C315.314 80.2102 314.413 80.4631 313.618 80.9688C312.828 81.4744 312.203 82.2159 311.743 83.1932C311.288 84.1705 311.061 85.3636 311.061 86.7727C311.061 88.1932 311.288 89.392 311.743 90.3693C312.203 91.3466 312.831 92.0852 313.627 92.5852C314.422 93.0852 315.317 93.3352 316.311 93.3352C316.862 93.3352 317.385 93.2614 317.879 93.1136C318.379 92.9602 318.831 92.7358 319.234 92.4403C319.638 92.1449 319.979 91.7841 320.257 91.358C320.541 90.9261 320.737 90.4318 320.845 89.875L323.504 89.8835C323.362 90.7415 323.087 91.5312 322.678 92.2528C322.274 92.9688 321.754 93.5881 321.118 94.1108C320.487 94.6278 319.766 95.0284 318.953 95.3125C318.141 95.5966 317.254 95.7386 316.294 95.7386C314.783 95.7386 313.436 95.3807 312.254 94.6648C311.073 93.9432 310.141 92.9119 309.459 91.571C308.783 90.2301 308.445 88.6307 308.445 86.7727C308.445 84.9091 308.786 83.3097 309.467 81.9744C310.149 80.6335 311.081 79.6051 312.263 78.8892C313.445 78.1676 314.788 77.8068 316.294 77.8068C317.22 77.8068 318.084 77.9403 318.885 78.2074C319.692 78.4687 320.416 78.8551 321.058 79.3665C321.7 79.8722 322.232 80.4915 322.652 81.2244C323.073 81.9517 323.357 82.7841 323.504 83.7216ZM336.176 82.6307C336.085 81.8239 335.71 81.1989 335.051 80.7557C334.391 80.3068 333.562 80.0824 332.562 80.0824C331.846 80.0824 331.227 80.196 330.704 80.4233C330.181 80.6449 329.775 80.9517 329.485 81.3438C329.201 81.7301 329.059 82.1705 329.059 82.6648C329.059 83.0795 329.156 83.4375 329.349 83.7386C329.548 84.0398 329.806 84.2926 330.124 84.4972C330.448 84.696 330.795 84.8636 331.164 85C331.533 85.1307 331.889 85.2386 332.229 85.3239L333.934 85.767C334.491 85.9034 335.062 86.0881 335.647 86.321C336.232 86.554 336.775 86.8608 337.275 87.2415C337.775 87.6222 338.178 88.0938 338.485 88.6562C338.798 89.2188 338.954 89.892 338.954 90.6761C338.954 91.6648 338.698 92.5426 338.187 93.3097C337.681 94.0767 336.945 94.6818 335.979 95.125C335.019 95.5682 333.857 95.7898 332.494 95.7898C331.187 95.7898 330.056 95.5824 329.102 95.1676C328.147 94.7528 327.4 94.1648 326.86 93.4034C326.32 92.6364 326.022 91.7273 325.965 90.6761H328.607C328.658 91.3068 328.863 91.8324 329.221 92.2528C329.585 92.6676 330.048 92.9773 330.61 93.1818C331.178 93.3807 331.801 93.4801 332.477 93.4801C333.221 93.4801 333.883 93.3636 334.462 93.1307C335.048 92.892 335.508 92.5625 335.843 92.142C336.178 91.7159 336.346 91.2187 336.346 90.6506C336.346 90.1335 336.198 89.7102 335.903 89.3807C335.613 89.0511 335.218 88.7784 334.718 88.5625C334.224 88.3466 333.664 88.1562 333.039 87.9915L330.977 87.429C329.579 87.0483 328.471 86.4886 327.653 85.75C326.84 85.0114 326.434 84.0341 326.434 82.8182C326.434 81.8125 326.707 80.9347 327.252 80.1847C327.798 79.4347 328.536 78.8523 329.468 78.4375C330.4 78.017 331.451 77.8068 332.622 77.8068C333.803 77.8068 334.846 78.0142 335.749 78.429C336.658 78.8438 337.374 79.4148 337.897 80.142C338.42 80.8636 338.693 81.6932 338.715 82.6307H336.176ZM351.621 82.6307C351.53 81.8239 351.155 81.1989 350.496 80.7557C349.837 80.3068 349.007 80.0824 348.007 80.0824C347.291 80.0824 346.672 80.196 346.149 80.4233C345.627 80.6449 345.22 80.9517 344.93 81.3438C344.646 81.7301 344.504 82.1705 344.504 82.6648C344.504 83.0795 344.601 83.4375 344.794 83.7386C344.993 84.0398 345.252 84.2926 345.57 84.4972C345.894 84.696 346.24 84.8636 346.609 85C346.979 85.1307 347.334 85.2386 347.675 85.3239L349.379 85.767C349.936 85.9034 350.507 86.0881 351.092 86.321C351.678 86.554 352.22 86.8608 352.72 87.2415C353.22 87.6222 353.624 88.0938 353.93 88.6562C354.243 89.2188 354.399 89.892 354.399 90.6761C354.399 91.6648 354.144 92.5426 353.632 93.3097C353.127 94.0767 352.391 94.6818 351.425 95.125C350.465 95.5682 349.303 95.7898 347.939 95.7898C346.632 95.7898 345.502 95.5824 344.547 95.1676C343.592 94.7528 342.845 94.1648 342.305 93.4034C341.766 92.6364 341.467 91.7273 341.411 90.6761H344.053C344.104 91.3068 344.308 91.8324 344.666 92.2528C345.03 92.6676 345.493 92.9773 346.055 93.1818C346.624 93.3807 347.246 93.4801 347.922 93.4801C348.666 93.4801 349.328 93.3636 349.908 93.1307C350.493 92.892 350.953 92.5625 351.288 92.142C351.624 91.7159 351.791 91.2187 351.791 90.6506C351.791 90.1335 351.644 89.7102 351.348 89.3807C351.058 89.0511 350.663 88.7784 350.163 88.5625C349.669 88.3466 349.109 88.1562 348.484 87.9915L346.422 87.429C345.024 87.0483 343.916 86.4886 343.098 85.75C342.286 85.0114 341.879 84.0341 341.879 82.8182C341.879 81.8125 342.152 80.9347 342.698 80.1847C343.243 79.4347 343.982 78.8523 344.913 78.4375C345.845 78.017 346.896 77.8068 348.067 77.8068C349.249 77.8068 350.291 78.0142 351.195 78.429C352.104 78.8438 352.82 79.4148 353.342 80.142C353.865 80.8636 354.138 81.6932 354.161 82.6307H351.621ZM360.657 93.1136L360.529 94.0426C360.444 94.7244 360.299 95.4347 360.095 96.1733C359.896 96.9176 359.688 97.608 359.472 98.2443C359.262 98.8807 359.089 99.3864 358.952 99.7614H357.146C357.22 99.4091 357.322 98.9318 357.452 98.3295C357.583 97.733 357.711 97.0653 357.836 96.3267C357.961 95.5881 358.055 94.8352 358.117 94.0682L358.202 93.1136H360.657ZM377.315 78.0455H379.94V90.4205C379.94 91.5398 379.718 92.4972 379.275 93.2926C378.837 94.0881 378.221 94.696 377.426 95.1165C376.63 95.5312 375.698 95.7386 374.63 95.7386C373.647 95.7386 372.764 95.5597 371.979 95.2017C371.201 94.8437 370.585 94.3239 370.13 93.642C369.681 92.9545 369.457 92.1193 369.457 91.1364H372.073C372.073 91.6193 372.184 92.0369 372.406 92.3892C372.633 92.7415 372.943 93.017 373.335 93.2159C373.732 93.4091 374.187 93.5057 374.698 93.5057C375.255 93.5057 375.727 93.3892 376.113 93.1562C376.505 92.9176 376.803 92.5682 377.008 92.108C377.212 91.6477 377.315 91.0852 377.315 90.4205V78.0455ZM385.247 95.5H382.452L388.733 78.0455H391.776L398.057 95.5H395.261L390.327 81.2159H390.19L385.247 95.5ZM385.716 88.6648H394.784V90.8807H385.716V88.6648ZM400.275 78.0455L405.133 92.2614H405.329L410.187 78.0455H413.033L406.752 95.5H403.71L397.428 78.0455H400.275ZM415.247 95.5H412.452L418.733 78.0455H421.776L428.057 95.5H425.261L420.327 81.2159H420.19L415.247 95.5ZM415.716 88.6648H424.784V90.8807H415.716V88.6648ZM439.957 82.6307C439.866 81.8239 439.491 81.1989 438.832 80.7557C438.173 80.3068 437.343 80.0824 436.343 80.0824C435.627 80.0824 435.008 80.196 434.485 80.4233C433.962 80.6449 433.556 80.9517 433.266 81.3438C432.982 81.7301 432.84 82.1705 432.84 82.6648C432.84 83.0795 432.937 83.4375 433.13 83.7386C433.329 84.0398 433.587 84.2926 433.906 84.4972C434.229 84.696 434.576 84.8636 434.945 85C435.315 85.1307 435.67 85.2386 436.011 85.3239L437.715 85.767C438.272 85.9034 438.843 86.0881 439.428 86.321C440.014 86.554 440.556 86.8608 441.056 87.2415C441.556 87.6222 441.96 88.0938 442.266 88.6562C442.579 89.2188 442.735 89.892 442.735 90.6761C442.735 91.6648 442.479 92.5426 441.968 93.3097C441.462 94.0767 440.727 94.6818 439.761 95.125C438.801 95.5682 437.639 95.7898 436.275 95.7898C434.968 95.7898 433.837 95.5824 432.883 95.1676C431.928 94.7528 431.181 94.1648 430.641 93.4034C430.102 92.6364 429.803 91.7273 429.747 90.6761H432.389C432.44 91.3068 432.644 91.8324 433.002 92.2528C433.366 92.6676 433.829 92.9773 434.391 93.1818C434.96 93.3807 435.582 93.4801 436.258 93.4801C437.002 93.4801 437.664 93.3636 438.244 93.1307C438.829 92.892 439.289 92.5625 439.624 92.142C439.96 91.7159 440.127 91.2187 440.127 90.6506C440.127 90.1335 439.979 89.7102 439.684 89.3807C439.394 89.0511 438.999 88.7784 438.499 88.5625C438.005 88.3466 437.445 88.1562 436.82 87.9915L434.758 87.429C433.36 87.0483 432.252 86.4886 431.434 85.75C430.622 85.0114 430.215 84.0341 430.215 82.8182C430.215 81.8125 430.488 80.9347 431.033 80.1847C431.579 79.4347 432.318 78.8523 433.249 78.4375C434.181 78.017 435.232 77.8068 436.403 77.8068C437.585 77.8068 438.627 78.0142 439.531 78.429C440.44 78.8438 441.156 79.4148 441.678 80.142C442.201 80.8636 442.474 81.6932 442.497 82.6307H439.957ZM460.379 83.7216H457.72C457.618 83.1534 457.428 82.6534 457.149 82.2216C456.871 81.7898 456.53 81.4233 456.127 81.1222C455.723 80.821 455.271 80.5937 454.771 80.4403C454.277 80.2869 453.752 80.2102 453.195 80.2102C452.189 80.2102 451.288 80.4631 450.493 80.9688C449.703 81.4744 449.078 82.2159 448.618 83.1932C448.163 84.1705 447.936 85.3636 447.936 86.7727C447.936 88.1932 448.163 89.392 448.618 90.3693C449.078 91.3466 449.706 92.0852 450.502 92.5852C451.297 93.0852 452.192 93.3352 453.186 93.3352C453.737 93.3352 454.26 93.2614 454.754 93.1136C455.254 92.9602 455.706 92.7358 456.109 92.4403C456.513 92.1449 456.854 91.7841 457.132 91.358C457.416 90.9261 457.612 90.4318 457.72 89.875L460.379 89.8835C460.237 90.7415 459.962 91.5312 459.553 92.2528C459.149 92.9688 458.629 93.5881 457.993 94.1108C457.362 94.6278 456.641 95.0284 455.828 95.3125C455.016 95.5966 454.129 95.7386 453.169 95.7386C451.658 95.7386 450.311 95.3807 449.129 94.6648C447.948 93.9432 447.016 92.9119 446.334 91.571C445.658 90.2301 445.32 88.6307 445.32 86.7727C445.32 84.9091 445.661 83.3097 446.342 81.9744C447.024 80.6335 447.956 79.6051 449.138 78.8892C450.32 78.1676 451.663 77.8068 453.169 77.8068C454.095 77.8068 454.959 77.9403 455.76 78.2074C456.567 78.4687 457.291 78.8551 457.933 79.3665C458.575 79.8722 459.107 80.4915 459.527 81.2244C459.948 81.9517 460.232 82.7841 460.379 83.7216ZM463.531 95.5V78.0455H469.752C471.104 78.0455 472.227 78.2784 473.119 78.7443C474.016 79.2102 474.687 79.8551 475.13 80.679C475.573 81.4972 475.795 82.4432 475.795 83.517C475.795 84.5852 475.57 85.5256 475.122 86.3381C474.678 87.1449 474.008 87.7727 473.11 88.2216C472.218 88.6705 471.096 88.8949 469.744 88.8949H465.031V86.6278H469.505C470.357 86.6278 471.051 86.5057 471.585 86.2614C472.124 86.017 472.519 85.6619 472.769 85.196C473.019 84.7301 473.144 84.1705 473.144 83.517C473.144 82.858 473.016 82.2869 472.761 81.804C472.511 81.321 472.116 80.9517 471.576 80.696C471.042 80.4347 470.34 80.304 469.471 80.304H466.164V95.5H463.531ZM472.147 87.625L476.46 95.5H473.46L469.232 87.625H472.147ZM481.633 78.0455V95.5H478.999V78.0455H481.633ZM485.468 95.5V78.0455H491.69C493.048 78.0455 494.173 78.2926 495.065 78.7869C495.957 79.2812 496.624 79.9574 497.068 80.8153C497.511 81.6676 497.732 82.6278 497.732 83.696C497.732 84.7699 497.508 85.7358 497.059 86.5938C496.616 87.446 495.945 88.1222 495.048 88.6222C494.156 89.1165 493.033 89.3636 491.681 89.3636H487.403V87.1307H491.443C492.301 87.1307 492.997 86.983 493.531 86.6875C494.065 86.3864 494.457 85.9773 494.707 85.4602C494.957 84.9432 495.082 84.3551 495.082 83.696C495.082 83.0369 494.957 82.4517 494.707 81.9403C494.457 81.429 494.062 81.0284 493.522 80.7386C492.988 80.4489 492.283 80.304 491.408 80.304H488.102V95.5H485.468ZM499.959 80.3125V78.0455H513.467V80.3125H508.021V95.5H505.396V80.3125H499.959ZM518.743 93.1136L518.615 94.0426C518.53 94.7244 518.385 95.4347 518.18 96.1733C517.982 96.9176 517.774 97.608 517.558 98.2443C517.348 98.8807 517.175 99.3864 517.038 99.7614H515.232C515.305 99.4091 515.408 98.9318 515.538 98.3295C515.669 97.733 515.797 97.0653 515.922 96.3267C516.047 95.5881 516.141 94.8352 516.203 94.0682L516.288 93.1136H518.743ZM532.034 95.5L527.193 78.0455H529.963L533.364 91.5625H533.526L537.063 78.0455H539.807L543.344 91.571H543.506L546.898 78.0455H549.676L544.827 95.5H542.176L538.503 82.4261H538.367L534.693 95.5H532.034ZM566.372 86.7727C566.372 88.6364 566.031 90.2386 565.35 91.5795C564.668 92.9148 563.733 93.9432 562.546 94.6648C561.364 95.3807 560.02 95.7386 558.514 95.7386C557.003 95.7386 555.653 95.3807 554.466 94.6648C553.284 93.9432 552.352 92.9119 551.671 91.571C550.989 90.2301 550.648 88.6307 550.648 86.7727C550.648 84.9091 550.989 83.3097 551.671 81.9744C552.352 80.6335 553.284 79.6051 554.466 78.8892C555.653 78.1676 557.003 77.8068 558.514 77.8068C560.02 77.8068 561.364 78.1676 562.546 78.8892C563.733 79.6051 564.668 80.6335 565.35 81.9744C566.031 83.3097 566.372 84.9091 566.372 86.7727ZM563.764 86.7727C563.764 85.3523 563.534 84.1562 563.074 83.1847C562.619 82.2074 561.994 81.4688 561.199 80.9688C560.409 80.4631 559.514 80.2102 558.514 80.2102C557.509 80.2102 556.611 80.4631 555.821 80.9688C555.031 81.4688 554.406 82.2074 553.946 83.1847C553.492 84.1562 553.264 85.3523 553.264 86.7727C553.264 88.1932 553.492 89.392 553.946 90.3693C554.406 91.3409 555.031 92.0795 555.821 92.5852C556.611 93.0852 557.509 93.3352 558.514 93.3352C559.514 93.3352 560.409 93.0852 561.199 92.5852C561.994 92.0795 562.619 91.3409 563.074 90.3693C563.534 89.392 563.764 88.1932 563.764 86.7727ZM569.656 95.5V78.0455H575.877C577.229 78.0455 578.352 78.2784 579.244 78.7443C580.141 79.2102 580.812 79.8551 581.255 80.679C581.698 81.4972 581.92 82.4432 581.92 83.517C581.92 84.5852 581.695 85.5256 581.247 86.3381C580.803 87.1449 580.133 87.7727 579.235 88.2216C578.343 88.6705 577.221 88.8949 575.869 88.8949H571.156V86.6278H575.63C576.482 86.6278 577.176 86.5057 577.71 86.2614C578.249 86.017 578.644 85.6619 578.894 85.196C579.144 84.7301 579.269 84.1705 579.269 83.517C579.269 82.858 579.141 82.2869 578.886 81.804C578.636 81.321 578.241 80.9517 577.701 80.696C577.167 80.4347 576.465 80.304 575.596 80.304H572.289V95.5H569.656ZM578.272 87.625L582.585 95.5H579.585L575.357 87.625H578.272ZM590.775 95.5H585.124V78.0455H590.954C592.664 78.0455 594.133 78.3949 595.36 79.0938C596.587 79.7869 597.528 80.7841 598.181 82.0852C598.84 83.3807 599.17 84.9347 599.17 86.7472C599.17 88.5653 598.837 90.1278 598.173 91.4347C597.514 92.7415 596.559 93.7472 595.309 94.4517C594.059 95.1506 592.548 95.5 590.775 95.5ZM587.758 93.1989H590.63C591.96 93.1989 593.065 92.9489 593.945 92.4489C594.826 91.9432 595.485 91.2131 595.923 90.2585C596.36 89.2983 596.579 88.1278 596.579 86.7472C596.579 85.3778 596.36 84.2159 595.923 83.2614C595.491 82.3068 594.846 81.5824 593.988 81.0881C593.13 80.5937 592.065 80.3466 590.792 80.3466H587.758V93.1989ZM602.445 95.5V78.0455H608.666C610.024 78.0455 611.149 78.2926 612.041 78.7869C612.933 79.2812 613.601 79.9574 614.044 80.8153C614.487 81.6676 614.709 82.6278 614.709 83.696C614.709 84.7699 614.484 85.7358 614.036 86.5938C613.592 87.446 612.922 88.1222 612.024 88.6222C611.132 89.1165 610.01 89.3636 608.658 89.3636H604.379V87.1307H608.419C609.277 87.1307 609.973 86.983 610.507 86.6875C611.041 86.3864 611.433 85.9773 611.683 85.4602C611.933 84.9432 612.058 84.3551 612.058 83.696C612.058 83.0369 611.933 82.4517 611.683 81.9403C611.433 81.429 611.038 81.0284 610.499 80.7386C609.965 80.4489 609.26 80.304 608.385 80.304H605.078V95.5H602.445ZM617.796 95.5V78.0455H624.018C625.37 78.0455 626.492 78.2784 627.384 78.7443C628.282 79.2102 628.952 79.8551 629.396 80.679C629.839 81.4972 630.06 82.4432 630.06 83.517C630.06 84.5852 629.836 85.5256 629.387 86.3381C628.944 87.1449 628.274 87.7727 627.376 88.2216C626.484 88.6705 625.362 88.8949 624.009 88.8949H619.296V86.6278H623.771C624.623 86.6278 625.316 86.5057 625.85 86.2614C626.39 86.017 626.785 85.6619 627.035 85.196C627.285 84.7301 627.41 84.1705 627.41 83.517C627.41 82.858 627.282 82.2869 627.026 81.804C626.776 81.321 626.381 80.9517 625.842 80.696C625.308 80.4347 624.606 80.304 623.737 80.304H620.43V95.5H617.796ZM626.413 87.625L630.725 95.5H627.725L623.498 87.625H626.413ZM633.265 95.5V78.0455H644.208V80.3125H635.899V85.6307H643.637V87.8892H635.899V93.233H644.31V95.5H633.265ZM657.246 82.6307C657.155 81.8239 656.78 81.1989 656.121 80.7557C655.462 80.3068 654.632 80.0824 653.632 80.0824C652.916 80.0824 652.297 80.196 651.774 80.4233C651.252 80.6449 650.845 80.9517 650.555 81.3438C650.271 81.7301 650.129 82.1705 650.129 82.6648C650.129 83.0795 650.226 83.4375 650.419 83.7386C650.618 84.0398 650.877 84.2926 651.195 84.4972C651.519 84.696 651.865 84.8636 652.234 85C652.604 85.1307 652.959 85.2386 653.3 85.3239L655.004 85.767C655.561 85.9034 656.132 86.0881 656.717 86.321C657.303 86.554 657.845 86.8608 658.345 87.2415C658.845 87.6222 659.249 88.0938 659.555 88.6562C659.868 89.2188 660.024 89.892 660.024 90.6761C660.024 91.6648 659.769 92.5426 659.257 93.3097C658.752 94.0767 658.016 94.6818 657.05 95.125C656.09 95.5682 654.928 95.7898 653.564 95.7898C652.257 95.7898 651.127 95.5824 650.172 95.1676C649.217 94.7528 648.47 94.1648 647.93 93.4034C647.391 92.6364 647.092 91.7273 647.036 90.6761H649.678C649.729 91.3068 649.933 91.8324 650.291 92.2528C650.655 92.6676 651.118 92.9773 651.68 93.1818C652.249 93.3807 652.871 93.4801 653.547 93.4801C654.291 93.4801 654.953 93.3636 655.533 93.1307C656.118 92.892 656.578 92.5625 656.913 92.142C657.249 91.7159 657.416 91.2187 657.416 90.6506C657.416 90.1335 657.269 89.7102 656.973 89.3807C656.683 89.0511 656.288 88.7784 655.788 88.5625C655.294 88.3466 654.734 88.1562 654.109 87.9915L652.047 87.429C650.649 87.0483 649.541 86.4886 648.723 85.75C647.911 85.0114 647.504 84.0341 647.504 82.8182C647.504 81.8125 647.777 80.9347 648.323 80.1847C648.868 79.4347 649.607 78.8523 650.538 78.4375C651.47 78.017 652.521 77.8068 653.692 77.8068C654.874 77.8068 655.916 78.0142 656.82 78.429C657.729 78.8438 658.445 79.4148 658.967 80.142C659.49 80.8636 659.763 81.6932 659.786 82.6307H657.246ZM672.691 82.6307C672.6 81.8239 672.225 81.1989 671.566 80.7557C670.907 80.3068 670.078 80.0824 669.078 80.0824C668.362 80.0824 667.742 80.196 667.22 80.4233C666.697 80.6449 666.291 80.9517 666.001 81.3438C665.717 81.7301 665.575 82.1705 665.575 82.6648C665.575 83.0795 665.671 83.4375 665.864 83.7386C666.063 84.0398 666.322 84.2926 666.64 84.4972C666.964 84.696 667.31 84.8636 667.68 85C668.049 85.1307 668.404 85.2386 668.745 85.3239L670.45 85.767C671.007 85.9034 671.578 86.0881 672.163 86.321C672.748 86.554 673.291 86.8608 673.791 87.2415C674.291 87.6222 674.694 88.0938 675.001 88.6562C675.313 89.2188 675.47 89.892 675.47 90.6761C675.47 91.6648 675.214 92.5426 674.703 93.3097C674.197 94.0767 673.461 94.6818 672.495 95.125C671.535 95.5682 670.373 95.7898 669.009 95.7898C667.703 95.7898 666.572 95.5824 665.617 95.1676C664.663 94.7528 663.916 94.1648 663.376 93.4034C662.836 92.6364 662.538 91.7273 662.481 90.6761H665.123C665.174 91.3068 665.379 91.8324 665.737 92.2528C666.1 92.6676 666.563 92.9773 667.126 93.1818C667.694 93.3807 668.316 93.4801 668.992 93.4801C669.737 93.4801 670.399 93.3636 670.978 93.1307C671.563 92.892 672.024 92.5625 672.359 92.142C672.694 91.7159 672.862 91.2187 672.862 90.6506C672.862 90.1335 672.714 89.7102 672.418 89.3807C672.129 89.0511 671.734 88.7784 671.234 88.5625C670.739 88.3466 670.18 88.1562 669.555 87.9915L667.492 87.429C666.095 87.0483 664.987 86.4886 664.168 85.75C663.356 85.0114 662.95 84.0341 662.95 82.8182C662.95 81.8125 663.222 80.9347 663.768 80.1847C664.313 79.4347 665.052 78.8523 665.984 78.4375C666.916 78.017 667.967 77.8068 669.137 77.8068C670.319 77.8068 671.362 78.0142 672.265 78.429C673.174 78.8438 673.89 79.4148 674.413 80.142C674.935 80.8636 675.208 81.6932 675.231 82.6307H672.691ZM681.727 93.1136L681.6 94.0426C681.514 94.7244 681.369 95.4347 681.165 96.1733C680.966 96.9176 680.759 97.608 680.543 98.2443C680.332 98.8807 680.159 99.3864 680.023 99.7614H678.216C678.29 99.4091 678.392 98.9318 678.523 98.3295C678.654 97.733 678.781 97.0653 678.906 96.3267C679.031 95.5881 679.125 94.8352 679.188 94.0682L679.273 93.1136H681.727ZM691.601 95.5V78.0455H697.993C699.232 78.0455 700.257 78.25 701.07 78.6591C701.882 79.0625 702.49 79.6108 702.894 80.304C703.297 80.9915 703.499 81.767 703.499 82.6307C703.499 83.358 703.365 83.9716 703.098 84.4716C702.831 84.9659 702.473 85.3636 702.024 85.6648C701.581 85.9602 701.092 86.1761 700.558 86.3125V86.483C701.138 86.5114 701.703 86.6989 702.254 87.0455C702.811 87.3864 703.271 87.8722 703.635 88.5028C703.999 89.1335 704.181 89.9006 704.181 90.804C704.181 91.696 703.97 92.4972 703.55 93.2074C703.135 93.9119 702.493 94.4716 701.624 94.8864C700.754 95.2955 699.644 95.5 698.291 95.5H691.601ZM694.234 93.2415H698.036C699.297 93.2415 700.2 92.9972 700.746 92.5085C701.291 92.0199 701.564 91.4091 701.564 90.6761C701.564 90.125 701.425 89.6193 701.146 89.1591C700.868 88.6989 700.47 88.3324 699.953 88.0597C699.442 87.7869 698.834 87.6506 698.129 87.6506H694.234V93.2415ZM694.234 85.5966H697.763C698.354 85.5966 698.885 85.483 699.357 85.2557C699.834 85.0284 700.212 84.7102 700.49 84.3011C700.774 83.8864 700.916 83.3977 700.916 82.8352C700.916 82.1136 700.663 81.5085 700.158 81.0199C699.652 80.5312 698.877 80.2869 697.831 80.2869H694.234V85.5966ZM722.466 86.7727C722.466 88.6364 722.125 90.2386 721.443 91.5795C720.761 92.9148 719.827 93.9432 718.639 94.6648C717.457 95.3807 716.114 95.7386 714.608 95.7386C713.097 95.7386 711.747 95.3807 710.56 94.6648C709.378 93.9432 708.446 92.9119 707.764 91.571C707.082 90.2301 706.742 88.6307 706.742 86.7727C706.742 84.9091 707.082 83.3097 707.764 81.9744C708.446 80.6335 709.378 79.6051 710.56 78.8892C711.747 78.1676 713.097 77.8068 714.608 77.8068C716.114 77.8068 717.457 78.1676 718.639 78.8892C719.827 79.6051 720.761 80.6335 721.443 81.9744C722.125 83.3097 722.466 84.9091 722.466 86.7727ZM719.858 86.7727C719.858 85.3523 719.628 84.1562 719.168 83.1847C718.713 82.2074 718.088 81.4688 717.293 80.9688C716.503 80.4631 715.608 80.2102 714.608 80.2102C713.602 80.2102 712.705 80.4631 711.915 80.9688C711.125 81.4688 710.5 82.2074 710.04 83.1847C709.585 84.1562 709.358 85.3523 709.358 86.7727C709.358 88.1932 709.585 89.392 710.04 90.3693C710.5 91.3409 711.125 92.0795 711.915 92.5852C712.705 93.0852 713.602 93.3352 714.608 93.3352C715.608 93.3352 716.503 93.0852 717.293 92.5852C718.088 92.0795 718.713 91.3409 719.168 90.3693C719.628 89.392 719.858 88.1932 719.858 86.7727ZM740.911 86.7727C740.911 88.6364 740.57 90.2386 739.889 91.5795C739.207 92.9148 738.272 93.9432 737.085 94.6648C735.903 95.3807 734.559 95.7386 733.053 95.7386C731.542 95.7386 730.193 95.3807 729.005 94.6648C727.823 93.9432 726.891 92.9119 726.21 91.571C725.528 90.2301 725.187 88.6307 725.187 86.7727C725.187 84.9091 725.528 83.3097 726.21 81.9744C726.891 80.6335 727.823 79.6051 729.005 78.8892C730.193 78.1676 731.542 77.8068 733.053 77.8068C734.559 77.8068 735.903 78.1676 737.085 78.8892C738.272 79.6051 739.207 80.6335 739.889 81.9744C740.57 83.3097 740.911 84.9091 740.911 86.7727ZM738.303 86.7727C738.303 85.3523 738.073 84.1562 737.613 83.1847C737.158 82.2074 736.533 81.4688 735.738 80.9688C734.948 80.4631 734.053 80.2102 733.053 80.2102C732.048 80.2102 731.15 80.4631 730.36 80.9688C729.57 81.4688 728.945 82.2074 728.485 83.1847C728.031 84.1562 727.803 85.3523 727.803 86.7727C727.803 88.1932 728.031 89.392 728.485 90.3693C728.945 91.3409 729.57 92.0795 730.36 92.5852C731.15 93.0852 732.048 93.3352 733.053 93.3352C734.053 93.3352 734.948 93.0852 735.738 92.5852C736.533 92.0795 737.158 91.3409 737.613 90.3693C738.073 89.392 738.303 88.1932 738.303 86.7727ZM742.584 80.3125V78.0455H756.092V80.3125H750.646V95.5H748.021V80.3125H742.584ZM768.597 82.6307C768.507 81.8239 768.132 81.1989 767.472 80.7557C766.813 80.3068 765.984 80.0824 764.984 80.0824C764.268 80.0824 763.649 80.196 763.126 80.4233C762.603 80.6449 762.197 80.9517 761.907 81.3438C761.623 81.7301 761.481 82.1705 761.481 82.6648C761.481 83.0795 761.578 83.4375 761.771 83.7386C761.97 84.0398 762.228 84.2926 762.546 84.4972C762.87 84.696 763.217 84.8636 763.586 85C763.955 85.1307 764.31 85.2386 764.651 85.3239L766.356 85.767C766.913 85.9034 767.484 86.0881 768.069 86.321C768.654 86.554 769.197 86.8608 769.697 87.2415C770.197 87.6222 770.6 88.0938 770.907 88.6562C771.22 89.2188 771.376 89.892 771.376 90.6761C771.376 91.6648 771.12 92.5426 770.609 93.3097C770.103 94.0767 769.367 94.6818 768.401 95.125C767.441 95.5682 766.279 95.7898 764.916 95.7898C763.609 95.7898 762.478 95.5824 761.524 95.1676C760.569 94.7528 759.822 94.1648 759.282 93.4034C758.742 92.6364 758.444 91.7273 758.387 90.6761H761.029C761.08 91.3068 761.285 91.8324 761.643 92.2528C762.007 92.6676 762.47 92.9773 763.032 93.1818C763.6 93.3807 764.222 93.4801 764.899 93.4801C765.643 93.4801 766.305 93.3636 766.884 93.1307C767.47 92.892 767.93 92.5625 768.265 92.142C768.6 91.7159 768.768 91.2187 768.768 90.6506C768.768 90.1335 768.62 89.7102 768.325 89.3807C768.035 89.0511 767.64 88.7784 767.14 88.5625C766.646 88.3466 766.086 88.1562 765.461 87.9915L763.399 87.429C762.001 87.0483 760.893 86.4886 760.075 85.75C759.262 85.0114 758.856 84.0341 758.856 82.8182C758.856 81.8125 759.129 80.9347 759.674 80.1847C760.22 79.4347 760.958 78.8523 761.89 78.4375C762.822 78.017 763.873 77.8068 765.043 77.8068C766.225 77.8068 767.268 78.0142 768.171 78.429C769.08 78.8438 769.796 79.4148 770.319 80.142C770.842 80.8636 771.114 81.6932 771.137 82.6307H768.597ZM773.662 80.3125V78.0455H787.171V80.3125H781.725V95.5H779.1V80.3125H773.662ZM790.156 95.5V78.0455H796.377C797.73 78.0455 798.852 78.2784 799.744 78.7443C800.641 79.2102 801.312 79.8551 801.755 80.679C802.198 81.4972 802.42 82.4432 802.42 83.517C802.42 84.5852 802.195 85.5256 801.747 86.3381C801.303 87.1449 800.633 87.7727 799.735 88.2216C798.843 88.6705 797.721 88.8949 796.369 88.8949H791.656V86.6278H796.13C796.982 86.6278 797.676 86.5057 798.21 86.2614C798.749 86.017 799.144 85.6619 799.394 85.196C799.644 84.7301 799.769 84.1705 799.769 83.517C799.769 82.858 799.641 82.2869 799.386 81.804C799.136 81.321 798.741 80.9517 798.201 80.696C797.667 80.4347 796.965 80.304 796.096 80.304H792.789V95.5H790.156ZM798.772 87.625L803.085 95.5H800.085L795.857 87.625H798.772ZM807.099 95.5H804.303L810.585 78.0455H813.627L819.908 95.5H817.113L812.178 81.2159H812.042L807.099 95.5ZM807.568 88.6648H816.636V90.8807H807.568V88.6648ZM822.429 95.5V78.0455H828.651C830.009 78.0455 831.134 78.2926 832.026 78.7869C832.918 79.2812 833.585 79.9574 834.029 80.8153C834.472 81.6676 834.693 82.6278 834.693 83.696C834.693 84.7699 834.469 85.7358 834.02 86.5938C833.577 87.446 832.906 88.1222 832.009 88.6222C831.117 89.1165 829.994 89.3636 828.642 89.3636H824.364V87.1307H828.404C829.261 87.1307 829.957 86.983 830.492 86.6875C831.026 86.3864 831.418 85.9773 831.668 85.4602C831.918 84.9432 832.043 84.3551 832.043 83.696C832.043 83.0369 831.918 82.4517 831.668 81.9403C831.418 81.429 831.023 81.0284 830.483 80.7386C829.949 80.4489 829.244 80.304 828.369 80.304H825.063V95.5H822.429ZM839.931 93.1136L839.803 94.0426C839.717 94.7244 839.573 95.4347 839.368 96.1733C839.169 96.9176 838.962 97.608 838.746 98.2443C838.536 98.8807 838.362 99.3864 838.226 99.7614H836.419C836.493 99.4091 836.595 98.9318 836.726 98.3295C836.857 97.733 836.984 97.0653 837.109 96.3267C837.234 95.5881 837.328 94.8352 837.391 94.0682L837.476 93.1136H839.931ZM864.301 83.7216H861.642C861.54 83.1534 861.35 82.6534 861.071 82.2216C860.793 81.7898 860.452 81.4233 860.048 81.1222C859.645 80.821 859.193 80.5937 858.693 80.4403C858.199 80.2869 857.673 80.2102 857.117 80.2102C856.111 80.2102 855.21 80.4631 854.415 80.9688C853.625 81.4744 853 82.2159 852.54 83.1932C852.085 84.1705 851.858 85.3636 851.858 86.7727C851.858 88.1932 852.085 89.392 852.54 90.3693C853 91.3466 853.628 92.0852 854.423 92.5852C855.219 93.0852 856.114 93.3352 857.108 93.3352C857.659 93.3352 858.182 93.2614 858.676 93.1136C859.176 92.9602 859.628 92.7358 860.031 92.4403C860.435 92.1449 860.776 91.7841 861.054 91.358C861.338 90.9261 861.534 90.4318 861.642 89.875L864.301 89.8835C864.159 90.7415 863.884 91.5312 863.475 92.2528C863.071 92.9688 862.551 93.5881 861.915 94.1108C861.284 94.6278 860.563 95.0284 859.75 95.3125C858.938 95.5966 858.051 95.7386 857.091 95.7386C855.58 95.7386 854.233 95.3807 853.051 94.6648C851.869 93.9432 850.938 92.9119 850.256 91.571C849.58 90.2301 849.242 88.6307 849.242 86.7727C849.242 84.9091 849.582 83.3097 850.264 81.9744C850.946 80.6335 851.878 79.6051 853.06 78.8892C854.242 78.1676 855.585 77.8068 857.091 77.8068C858.017 77.8068 858.881 77.9403 859.682 78.2074C860.489 78.4687 861.213 78.8551 861.855 79.3665C862.497 79.8722 863.029 80.4915 863.449 81.2244C863.869 81.9517 864.154 82.7841 864.301 83.7216ZM873.793 95.5L876.657 78.0455H878.703L875.839 95.5H873.793ZM865.893 90.8295L866.225 88.7841H879.453L879.12 90.8295H865.893ZM867.657 95.5L870.521 78.0455H872.566L869.703 95.5H867.657ZM866.907 84.7614L867.239 82.7159H880.467L880.134 84.7614H866.907ZM885.845 93.1136L885.717 94.0426C885.632 94.7244 885.487 95.4347 885.282 96.1733C885.083 96.9176 884.876 97.608 884.66 98.2443C884.45 98.8807 884.276 99.3864 884.14 99.7614H882.333C882.407 99.4091 882.509 98.9318 882.64 98.3295C882.771 97.733 882.899 97.0653 883.024 96.3267C883.149 95.5881 883.242 94.8352 883.305 94.0682L883.39 93.1136H885.845ZM389.897 124.5L385.057 107.045H387.826L391.227 120.562H391.389L394.926 107.045H397.67L401.207 120.571H401.369L404.761 107.045H407.539L402.69 124.5H400.039L396.366 111.426H396.23L392.557 124.5H389.897ZM409.941 124.5V107.045H416.162C417.52 107.045 418.645 107.293 419.537 107.787C420.429 108.281 421.097 108.957 421.54 109.815C421.983 110.668 422.205 111.628 422.205 112.696C422.205 113.77 421.981 114.736 421.532 115.594C421.089 116.446 420.418 117.122 419.52 117.622C418.628 118.116 417.506 118.364 416.154 118.364H411.875V116.131H415.915C416.773 116.131 417.469 115.983 418.003 115.688C418.537 115.386 418.929 114.977 419.179 114.46C419.429 113.943 419.554 113.355 419.554 112.696C419.554 112.037 419.429 111.452 419.179 110.94C418.929 110.429 418.535 110.028 417.995 109.739C417.461 109.449 416.756 109.304 415.881 109.304H412.574V124.5H409.941ZM425.292 124.5V107.045H436.116V109.312H427.926V114.631H435.341V116.889H427.926V124.5H425.292ZM441.505 122.114L441.377 123.043C441.292 123.724 441.147 124.435 440.942 125.173C440.743 125.918 440.536 126.608 440.32 127.244C440.11 127.881 439.937 128.386 439.8 128.761H437.993C438.067 128.409 438.169 127.932 438.3 127.33C438.431 126.733 438.559 126.065 438.684 125.327C438.809 124.588 438.902 123.835 438.965 123.068L439.05 122.114H441.505ZM459.562 107.045L463.738 113.872H463.875L468.051 107.045H471.102L465.664 115.773L471.136 124.5H468.068L463.875 117.767H463.738L459.545 124.5H456.477L462.042 115.773L456.511 107.045H459.562ZM475.189 124.5H472.393L478.674 107.045H481.717L487.998 124.5H485.203L480.268 110.216H480.132L475.189 124.5ZM475.657 117.665H484.726V119.881H475.657V117.665ZM490.519 107.045H493.715L499.272 120.614H499.476L505.033 107.045H508.229V124.5H505.723V111.869H505.562L500.414 124.474H498.334L493.187 111.861H493.025V124.5H490.519V107.045ZM512.058 124.5V107.045H514.691V122.233H522.601V124.5H512.058ZM528.716 122.114L528.588 123.043C528.503 123.724 528.358 124.435 528.153 125.173C527.954 125.918 527.747 126.608 527.531 127.244C527.321 127.881 527.147 128.386 527.011 128.761H525.204C525.278 128.409 525.38 127.932 525.511 127.33C525.642 126.733 525.77 126.065 525.895 125.327C526.02 124.588 526.113 123.835 526.176 123.068L526.261 122.114H528.716ZM538.589 124.5V107.045H544.811C546.169 107.045 547.294 107.293 548.186 107.787C549.078 108.281 549.745 108.957 550.189 109.815C550.632 110.668 550.853 111.628 550.853 112.696C550.853 113.77 550.629 114.736 550.18 115.594C549.737 116.446 549.066 117.122 548.169 117.622C547.277 118.116 546.155 118.364 544.802 118.364H540.524V116.131H544.564C545.422 116.131 546.118 115.983 546.652 115.688C547.186 115.386 547.578 114.977 547.828 114.46C548.078 113.943 548.203 113.355 548.203 112.696C548.203 112.037 548.078 111.452 547.828 110.94C547.578 110.429 547.183 110.028 546.643 109.739C546.109 109.449 545.405 109.304 544.53 109.304H541.223V124.5H538.589ZM552.594 107.045H555.586L560.145 114.98H560.333L564.892 107.045H567.884L561.552 117.648V124.5H558.927V117.648L552.594 107.045ZM570.611 109.312V107.045H584.12V109.312H578.674V124.5H576.049V109.312H570.611ZM587.105 124.5V107.045H589.738V114.631H598.44V107.045H601.082V124.5H598.44V116.889H589.738V124.5H587.105ZM620.079 115.773C620.079 117.636 619.738 119.239 619.057 120.58C618.375 121.915 617.44 122.943 616.253 123.665C615.071 124.381 613.727 124.739 612.221 124.739C610.71 124.739 609.361 124.381 608.173 123.665C606.991 122.943 606.059 121.912 605.378 120.571C604.696 119.23 604.355 117.631 604.355 115.773C604.355 113.909 604.696 112.31 605.378 110.974C606.059 109.634 606.991 108.605 608.173 107.889C609.361 107.168 610.71 106.807 612.221 106.807C613.727 106.807 615.071 107.168 616.253 107.889C617.44 108.605 618.375 109.634 619.057 110.974C619.738 112.31 620.079 113.909 620.079 115.773ZM617.471 115.773C617.471 114.352 617.241 113.156 616.781 112.185C616.326 111.207 615.701 110.469 614.906 109.969C614.116 109.463 613.221 109.21 612.221 109.21C611.216 109.21 610.318 109.463 609.528 109.969C608.738 110.469 608.113 111.207 607.653 112.185C607.199 113.156 606.971 114.352 606.971 115.773C606.971 117.193 607.199 118.392 607.653 119.369C608.113 120.341 608.738 121.08 609.528 121.585C610.318 122.085 611.216 122.335 612.221 122.335C613.221 122.335 614.116 122.085 614.906 121.585C615.701 121.08 616.326 120.341 616.781 119.369C617.241 118.392 617.471 117.193 617.471 115.773ZM637.451 107.045V124.5H635.03L626.158 111.699H625.996V124.5H623.363V107.045H625.8L634.681 119.864H634.843V107.045H637.451Z" fill="white"/>
<defs>
<linearGradient id="paint0_linear_65_696" x1="479.5" y1="5" x2="479.5" y2="170" gradientUnits="userSpaceOnUse">
<stop stop-color="#100892"/>
<stop offset="0.359375" stop-color="#F653E9"/>
<stop offset="0.6875" stop-color="#FFB6F9"/>
<stop offset="1" stop-color="#8962BA"/>
</linearGradient>
</defs>
</svg>
