<svg width="1061" height="210" viewBox="0 0 1061 210" fill="none" xmlns="http://www.w3.org/2000/svg">
<path d="M1010.77 118.664L987.745 125.106C971.448 129.667 961.533 146.144 965.136 162.68C970.155 185.717 952.608 207.5 929.03 207.5H85C39.4365 207.5 2.5 170.563 2.5 125V85C2.5 39.4365 39.4364 2.5 84.9999 2.5H926.595C951.526 2.5 970.192 25.362 965.204 49.7897C961.552 67.673 972.501 85.2957 990.151 89.9445L1010.85 95.3975L1011.67 95.5853C1024.37 98.5029 1023.57 116.795 1010.77 118.664Z" fill="black" fill-opacity="0.6" stroke="url(#paint0_linear_65_710)" stroke-width="5"/>
<path d="M56.0227 64V40.7273H65.2045C66.9697 40.7273 68.4735 41.0644 69.7159 41.7386C70.9583 42.4053 71.9053 43.3333 72.5568 44.5227C73.2159 45.7045 73.5455 47.0682 73.5455 48.6136C73.5455 50.1591 73.2121 51.5227 72.5455 52.7045C71.8788 53.8864 70.9129 54.8068 69.6477 55.4659C68.3902 56.125 66.8674 56.4545 65.0795 56.4545H59.2273V52.5114H64.2841C65.2311 52.5114 66.0114 52.3485 66.625 52.0227C67.2462 51.6894 67.7083 51.2311 68.0114 50.6477C68.322 50.0568 68.4773 49.3788 68.4773 48.6136C68.4773 47.8409 68.322 47.1667 68.0114 46.5909C67.7083 46.0076 67.2462 45.5568 66.625 45.2386C66.0038 44.9129 65.2159 44.75 64.2614 44.75H60.9432V64H56.0227ZM76.6506 64V46.5455H81.3438V49.5909H81.5256C81.8438 48.5076 82.3778 47.6894 83.1278 47.1364C83.8778 46.5758 84.7415 46.2955 85.7188 46.2955C85.9612 46.2955 86.2225 46.3106 86.5028 46.3409C86.7831 46.3712 87.0294 46.4129 87.2415 46.4659V50.7614C87.0142 50.6932 86.6998 50.6326 86.2983 50.5795C85.8968 50.5265 85.5294 50.5 85.196 50.5C84.4839 50.5 83.8475 50.6553 83.2869 50.9659C82.7339 51.2689 82.2945 51.6932 81.9688 52.2386C81.6506 52.7841 81.4915 53.4129 81.4915 54.125V64H76.6506ZM96.8182 64.3409C95.053 64.3409 93.5265 63.9659 92.2386 63.2159C90.9583 62.4583 89.9697 61.4053 89.2727 60.0568C88.5758 58.7008 88.2273 57.1288 88.2273 55.3409C88.2273 53.5379 88.5758 51.9621 89.2727 50.6136C89.9697 49.2576 90.9583 48.2045 92.2386 47.4545C93.5265 46.697 95.053 46.3182 96.8182 46.3182C98.5833 46.3182 100.106 46.697 101.386 47.4545C102.674 48.2045 103.667 49.2576 104.364 50.6136C105.061 51.9621 105.409 53.5379 105.409 55.3409C105.409 57.1288 105.061 58.7008 104.364 60.0568C103.667 61.4053 102.674 62.4583 101.386 63.2159C100.106 63.9659 98.5833 64.3409 96.8182 64.3409ZM96.8409 60.5909C97.6439 60.5909 98.3144 60.3636 98.8523 59.9091C99.3902 59.447 99.7955 58.8182 100.068 58.0227C100.348 57.2273 100.489 56.322 100.489 55.3068C100.489 54.2917 100.348 53.3864 100.068 52.5909C99.7955 51.7955 99.3902 51.1667 98.8523 50.7045C98.3144 50.2424 97.6439 50.0114 96.8409 50.0114C96.0303 50.0114 95.3485 50.2424 94.7955 50.7045C94.25 51.1667 93.8371 51.7955 93.5568 52.5909C93.2841 53.3864 93.1477 54.2917 93.1477 55.3068C93.1477 56.322 93.2841 57.2273 93.5568 58.0227C93.8371 58.8182 94.25 59.447 94.7955 59.9091C95.3485 60.3636 96.0303 60.5909 96.8409 60.5909ZM116.42 70.9091C114.852 70.9091 113.508 70.6932 112.386 70.2614C111.273 69.8371 110.386 69.2576 109.727 68.5227C109.068 67.7879 108.64 66.9621 108.443 66.0455L112.92 65.4432C113.057 65.7917 113.273 66.1174 113.568 66.4205C113.864 66.7235 114.254 66.9659 114.739 67.1477C115.231 67.3371 115.83 67.4318 116.534 67.4318C117.587 67.4318 118.455 67.1742 119.136 66.6591C119.826 66.1515 120.17 65.2992 120.17 64.1023V60.9091H119.966C119.754 61.3939 119.436 61.8523 119.011 62.2841C118.587 62.7159 118.042 63.0682 117.375 63.3409C116.708 63.6136 115.913 63.75 114.989 63.75C113.678 63.75 112.485 63.447 111.409 62.8409C110.341 62.2273 109.489 61.2917 108.852 60.0341C108.223 58.7689 107.909 57.1705 107.909 55.2386C107.909 53.2614 108.231 51.6098 108.875 50.2841C109.519 48.9583 110.375 47.9659 111.443 47.3068C112.519 46.6477 113.697 46.3182 114.977 46.3182C115.955 46.3182 116.773 46.4848 117.432 46.8182C118.091 47.1439 118.621 47.553 119.023 48.0455C119.432 48.5303 119.746 49.0076 119.966 49.4773H120.148V46.5455H124.955V64.1705C124.955 65.6553 124.591 66.8977 123.864 67.8977C123.136 68.8977 122.129 69.6477 120.841 70.1477C119.561 70.6553 118.087 70.9091 116.42 70.9091ZM116.523 60.1136C117.303 60.1136 117.962 59.9205 118.5 59.5341C119.045 59.1402 119.462 58.5795 119.75 57.8523C120.045 57.1174 120.193 56.2386 120.193 55.2159C120.193 54.1932 120.049 53.3068 119.761 52.5568C119.473 51.7992 119.057 51.2121 118.511 50.7955C117.966 50.3788 117.303 50.1705 116.523 50.1705C115.727 50.1705 115.057 50.3864 114.511 50.8182C113.966 51.2424 113.553 51.8333 113.273 52.5909C112.992 53.3485 112.852 54.2235 112.852 55.2159C112.852 56.2235 112.992 57.0947 113.273 57.8295C113.561 58.5568 113.973 59.1212 114.511 59.5227C115.057 59.9167 115.727 60.1136 116.523 60.1136ZM128.807 64V46.5455H133.5V49.5909H133.682C134 48.5076 134.534 47.6894 135.284 47.1364C136.034 46.5758 136.898 46.2955 137.875 46.2955C138.117 46.2955 138.379 46.3106 138.659 46.3409C138.939 46.3712 139.186 46.4129 139.398 46.4659V50.7614C139.17 50.6932 138.856 50.6326 138.455 50.5795C138.053 50.5265 137.686 50.5 137.352 50.5C136.64 50.5 136.004 50.6553 135.443 50.9659C134.89 51.2689 134.451 51.6932 134.125 52.2386C133.807 52.7841 133.648 53.4129 133.648 54.125V64H128.807ZM146.378 64.3295C145.264 64.3295 144.272 64.1364 143.401 63.75C142.529 63.3561 141.84 62.7765 141.332 62.0114C140.832 61.2386 140.582 60.2765 140.582 59.125C140.582 58.1553 140.76 57.3409 141.116 56.6818C141.473 56.0227 141.957 55.4924 142.571 55.0909C143.185 54.6894 143.882 54.3864 144.662 54.1818C145.45 53.9773 146.276 53.8333 147.139 53.75C148.154 53.6439 148.973 53.5455 149.594 53.4545C150.215 53.3561 150.666 53.2121 150.946 53.0227C151.226 52.8333 151.366 52.553 151.366 52.1818V52.1136C151.366 51.3939 151.139 50.8371 150.685 50.4432C150.238 50.0492 149.601 49.8523 148.776 49.8523C147.904 49.8523 147.211 50.0455 146.696 50.4318C146.181 50.8106 145.84 51.2879 145.673 51.8636L141.196 51.5C141.423 50.4394 141.87 49.5227 142.537 48.75C143.204 47.9697 144.063 47.3712 145.116 46.9545C146.177 46.5303 147.404 46.3182 148.798 46.3182C149.768 46.3182 150.696 46.4318 151.582 46.6591C152.476 46.8864 153.268 47.2386 153.957 47.7159C154.654 48.1932 155.204 48.8068 155.605 49.5568C156.007 50.2992 156.207 51.1894 156.207 52.2273V64H151.616V61.5795H151.48C151.2 62.125 150.825 62.6061 150.355 63.0227C149.885 63.4318 149.321 63.7538 148.662 63.9886C148.003 64.2159 147.241 64.3295 146.378 64.3295ZM147.764 60.9886C148.476 60.9886 149.105 60.8485 149.651 60.5682C150.196 60.2803 150.624 59.8939 150.935 59.4091C151.245 58.9242 151.401 58.375 151.401 57.7614V55.9091C151.249 56.0076 151.041 56.0985 150.776 56.1818C150.518 56.2576 150.226 56.3295 149.901 56.3977C149.575 56.4583 149.249 56.5152 148.923 56.5682C148.598 56.6136 148.302 56.6553 148.037 56.6932C147.469 56.7765 146.973 56.9091 146.548 57.0909C146.124 57.2727 145.795 57.5189 145.56 57.8295C145.325 58.1326 145.207 58.5114 145.207 58.9659C145.207 59.625 145.446 60.1288 145.923 60.4773C146.408 60.8182 147.022 60.9886 147.764 60.9886ZM159.963 64V46.5455H164.577V49.625H164.781C165.145 48.6023 165.751 47.7955 166.599 47.2045C167.448 46.6136 168.463 46.3182 169.645 46.3182C170.842 46.3182 171.861 46.6174 172.702 47.2159C173.543 47.8068 174.103 48.6098 174.384 49.625H174.565C174.921 48.625 175.565 47.8258 176.497 47.2273C177.437 46.6212 178.546 46.3182 179.827 46.3182C181.455 46.3182 182.777 46.8371 183.793 47.875C184.815 48.9053 185.327 50.3674 185.327 52.2614V64H180.497V53.2159C180.497 52.2462 180.24 51.5189 179.724 51.0341C179.209 50.5492 178.565 50.3068 177.793 50.3068C176.914 50.3068 176.228 50.5871 175.736 51.1477C175.243 51.7008 174.997 52.4318 174.997 53.3409V64H170.304V53.1136C170.304 52.2576 170.058 51.5758 169.565 51.0682C169.08 50.5606 168.44 50.3068 167.645 50.3068C167.107 50.3068 166.622 50.4432 166.19 50.7159C165.766 50.9811 165.429 51.3561 165.179 51.8409C164.929 52.3182 164.804 52.8788 164.804 53.5227V64H159.963ZM189.151 64V46.5455H193.764V49.625H193.969C194.332 48.6023 194.938 47.7955 195.787 47.2045C196.635 46.6136 197.651 46.3182 198.832 46.3182C200.029 46.3182 201.048 46.6174 201.889 47.2159C202.73 47.8068 203.291 48.6098 203.571 49.625H203.753C204.109 48.625 204.753 47.8258 205.685 47.2273C206.624 46.6212 207.734 46.3182 209.014 46.3182C210.643 46.3182 211.965 46.8371 212.98 47.875C214.003 48.9053 214.514 50.3674 214.514 52.2614V64H209.685V53.2159C209.685 52.2462 209.427 51.5189 208.912 51.0341C208.397 50.5492 207.753 50.3068 206.98 50.3068C206.101 50.3068 205.416 50.5871 204.923 51.1477C204.431 51.7008 204.185 52.4318 204.185 53.3409V64H199.491V53.1136C199.491 52.2576 199.245 51.5758 198.753 51.0682C198.268 50.5606 197.628 50.3068 196.832 50.3068C196.295 50.3068 195.81 50.4432 195.378 50.7159C194.954 50.9811 194.616 51.3561 194.366 51.8409C194.116 52.3182 193.991 52.8788 193.991 53.5227V64H189.151ZM218.338 64V46.5455H223.179V64H218.338ZM220.77 44.2955C220.05 44.2955 219.433 44.0568 218.918 43.5795C218.41 43.0947 218.156 42.5152 218.156 41.8409C218.156 41.1742 218.41 40.6023 218.918 40.125C219.433 39.6402 220.05 39.3977 220.77 39.3977C221.49 39.3977 222.103 39.6402 222.611 40.125C223.126 40.6023 223.384 41.1742 223.384 41.8409C223.384 42.5152 223.126 43.0947 222.611 43.5795C222.103 44.0568 221.49 44.2955 220.77 44.2955ZM231.898 53.9091V64H227.057V46.5455H231.67V49.625H231.875C232.261 48.6098 232.909 47.8068 233.818 47.2159C234.727 46.6174 235.83 46.3182 237.125 46.3182C238.337 46.3182 239.394 46.5833 240.295 47.1136C241.197 47.6439 241.898 48.4015 242.398 49.3864C242.898 50.3636 243.148 51.5303 243.148 52.8864V64H238.307V53.75C238.314 52.6818 238.042 51.8485 237.489 51.25C236.936 50.6439 236.174 50.3409 235.205 50.3409C234.553 50.3409 233.977 50.4811 233.477 50.7614C232.985 51.0417 232.598 51.4508 232.318 51.9886C232.045 52.5189 231.905 53.1591 231.898 53.9091ZM254.827 70.9091C253.259 70.9091 251.914 70.6932 250.793 70.2614C249.679 69.8371 248.793 69.2576 248.134 68.5227C247.474 67.7879 247.046 66.9621 246.849 66.0455L251.327 65.4432C251.463 65.7917 251.679 66.1174 251.974 66.4205C252.27 66.7235 252.66 66.9659 253.145 67.1477C253.637 67.3371 254.236 67.4318 254.94 67.4318C255.993 67.4318 256.861 67.1742 257.543 66.6591C258.232 66.1515 258.577 65.2992 258.577 64.1023V60.9091H258.372C258.16 61.3939 257.842 61.8523 257.418 62.2841C256.993 62.7159 256.448 63.0682 255.781 63.3409C255.115 63.6136 254.319 63.75 253.395 63.75C252.084 63.75 250.891 63.447 249.815 62.8409C248.747 62.2273 247.895 61.2917 247.259 60.0341C246.63 58.7689 246.315 57.1705 246.315 55.2386C246.315 53.2614 246.637 51.6098 247.281 50.2841C247.925 48.9583 248.781 47.9659 249.849 47.3068C250.925 46.6477 252.103 46.3182 253.384 46.3182C254.361 46.3182 255.179 46.4848 255.838 46.8182C256.497 47.1439 257.027 47.553 257.429 48.0455C257.838 48.5303 258.152 49.0076 258.372 49.4773H258.554V46.5455H263.361V64.1705C263.361 65.6553 262.997 66.8977 262.27 67.8977C261.543 68.8977 260.535 69.6477 259.247 70.1477C257.967 70.6553 256.493 70.9091 254.827 70.9091ZM254.929 60.1136C255.709 60.1136 256.368 59.9205 256.906 59.5341C257.452 59.1402 257.868 58.5795 258.156 57.8523C258.452 57.1174 258.599 56.2386 258.599 55.2159C258.599 54.1932 258.455 53.3068 258.168 52.5568C257.88 51.7992 257.463 51.2121 256.918 50.7955C256.372 50.3788 255.709 50.1705 254.929 50.1705C254.134 50.1705 253.463 50.3864 252.918 50.8182C252.372 51.2424 251.959 51.8333 251.679 52.5909C251.399 53.3485 251.259 54.2235 251.259 55.2159C251.259 56.2235 251.399 57.0947 251.679 57.8295C251.967 58.5568 252.38 59.1212 252.918 59.5227C253.463 59.9167 254.134 60.1136 254.929 60.1136ZM287.335 47.4205C287.244 46.5038 286.854 45.7917 286.165 45.2841C285.475 44.7765 284.54 44.5227 283.358 44.5227C282.555 44.5227 281.877 44.6364 281.324 44.8636C280.771 45.0833 280.347 45.3902 280.051 45.7841C279.763 46.178 279.619 46.625 279.619 47.125C279.604 47.5417 279.691 47.9053 279.881 48.2159C280.078 48.5265 280.347 48.7955 280.688 49.0227C281.028 49.2424 281.422 49.4356 281.869 49.6023C282.316 49.7614 282.794 49.8977 283.301 50.0114L285.392 50.5114C286.407 50.7386 287.339 51.0417 288.188 51.4205C289.036 51.7992 289.771 52.2652 290.392 52.8182C291.013 53.3712 291.494 54.0227 291.835 54.7727C292.184 55.5227 292.362 56.3826 292.369 57.3523C292.362 58.7765 291.998 60.0114 291.278 61.0568C290.566 62.0947 289.536 62.9015 288.188 63.4773C286.847 64.0455 285.229 64.3295 283.335 64.3295C281.456 64.3295 279.82 64.0417 278.426 63.4659C277.04 62.8902 275.956 62.0379 275.176 60.9091C274.403 59.7727 273.998 58.3674 273.96 56.6932H278.722C278.775 57.4735 278.998 58.125 279.392 58.6477C279.794 59.1629 280.328 59.553 280.994 59.8182C281.669 60.0758 282.43 60.2045 283.278 60.2045C284.112 60.2045 284.835 60.0833 285.449 59.8409C286.07 59.5985 286.551 59.2614 286.892 58.8295C287.233 58.3977 287.403 57.9015 287.403 57.3409C287.403 56.8182 287.248 56.3788 286.938 56.0227C286.634 55.6667 286.188 55.3636 285.597 55.1136C285.013 54.8636 284.297 54.6364 283.449 54.4318L280.915 53.7955C278.953 53.3182 277.403 52.572 276.267 51.5568C275.131 50.5417 274.566 49.1742 274.574 47.4545C274.566 46.0455 274.941 44.8144 275.699 43.7614C276.464 42.7083 277.513 41.8864 278.847 41.2955C280.18 40.7045 281.695 40.4091 283.392 40.4091C285.119 40.4091 286.627 40.7045 287.915 41.2955C289.21 41.8864 290.218 42.7083 290.938 43.7614C291.657 44.8144 292.028 46.0341 292.051 47.4205H287.335ZM303.543 64.3409C301.747 64.3409 300.202 63.9773 298.906 63.25C297.618 62.5152 296.626 61.4773 295.929 60.1364C295.232 58.7879 294.884 57.1932 294.884 55.3523C294.884 53.5568 295.232 51.9811 295.929 50.625C296.626 49.2689 297.607 48.2121 298.872 47.4545C300.145 46.697 301.637 46.3182 303.349 46.3182C304.501 46.3182 305.573 46.5038 306.565 46.875C307.565 47.2386 308.437 47.7879 309.179 48.5227C309.929 49.2576 310.512 50.1818 310.929 51.2955C311.346 52.4015 311.554 53.697 311.554 55.1818V56.5114H296.815V53.5114H306.997C306.997 52.8144 306.846 52.197 306.543 51.6591C306.24 51.1212 305.819 50.7008 305.281 50.3977C304.751 50.0871 304.134 49.9318 303.429 49.9318C302.694 49.9318 302.043 50.1023 301.474 50.4432C300.914 50.7765 300.474 51.2273 300.156 51.7955C299.838 52.3561 299.675 52.9811 299.668 53.6705V56.5227C299.668 57.3864 299.827 58.1326 300.145 58.7614C300.471 59.3902 300.929 59.875 301.52 60.2159C302.111 60.5568 302.812 60.7273 303.622 60.7273C304.16 60.7273 304.652 60.6515 305.099 60.5C305.546 60.3485 305.929 60.1212 306.247 59.8182C306.565 59.5152 306.808 59.1439 306.974 58.7045L311.452 59C311.224 60.0758 310.759 61.0152 310.054 61.8182C309.357 62.6136 308.455 63.2348 307.349 63.6818C306.251 64.1212 304.982 64.3409 303.543 64.3409ZM314.713 64V46.5455H319.406V49.5909H319.588C319.906 48.5076 320.44 47.6894 321.19 47.1364C321.94 46.5758 322.804 46.2955 323.781 46.2955C324.024 46.2955 324.285 46.3106 324.565 46.3409C324.846 46.3712 325.092 46.4129 325.304 46.4659V50.7614C325.077 50.6932 324.762 50.6326 324.361 50.5795C323.959 50.5265 323.592 50.5 323.259 50.5C322.546 50.5 321.91 50.6553 321.349 50.9659C320.796 51.2689 320.357 51.6932 320.031 52.2386C319.713 52.7841 319.554 53.4129 319.554 54.125V64H314.713ZM344.611 46.5455L338.509 64H333.054L326.952 46.5455H332.065L335.69 59.0341H335.872L339.486 46.5455H344.611ZM347.088 64V46.5455H351.929V64H347.088ZM349.52 44.2955C348.8 44.2955 348.183 44.0568 347.668 43.5795C347.16 43.0947 346.906 42.5152 346.906 41.8409C346.906 41.1742 347.16 40.6023 347.668 40.125C348.183 39.6402 348.8 39.3977 349.52 39.3977C350.24 39.3977 350.853 39.6402 351.361 40.125C351.876 40.6023 352.134 41.1742 352.134 41.8409C352.134 42.5152 351.876 43.0947 351.361 43.5795C350.853 44.0568 350.24 44.2955 349.52 44.2955ZM363.693 64.3409C361.905 64.3409 360.367 63.9621 359.08 63.2045C357.799 62.4394 356.814 61.3788 356.125 60.0227C355.443 58.6667 355.102 57.1061 355.102 55.3409C355.102 53.553 355.447 51.9848 356.136 50.6364C356.833 49.2803 357.822 48.2235 359.102 47.4659C360.383 46.7008 361.905 46.3182 363.67 46.3182C365.193 46.3182 366.527 46.5947 367.67 47.1477C368.814 47.7008 369.72 48.4773 370.386 49.4773C371.053 50.4773 371.42 51.6515 371.489 53H366.92C366.792 52.1288 366.451 51.428 365.898 50.8977C365.352 50.3598 364.636 50.0909 363.75 50.0909C363 50.0909 362.345 50.2955 361.784 50.7045C361.231 51.1061 360.799 51.6932 360.489 52.4659C360.178 53.2386 360.023 54.1742 360.023 55.2727C360.023 56.3864 360.174 57.3333 360.477 58.1136C360.788 58.8939 361.223 59.4886 361.784 59.8977C362.345 60.3068 363 60.5114 363.75 60.5114C364.303 60.5114 364.799 60.3977 365.239 60.1705C365.686 59.9432 366.053 59.6136 366.341 59.1818C366.636 58.7424 366.83 58.2159 366.92 57.6023H371.489C371.413 58.9356 371.049 60.1098 370.398 61.125C369.754 62.1326 368.864 62.9205 367.727 63.4886C366.591 64.0568 365.246 64.3409 363.693 64.3409ZM382.543 64.3409C380.747 64.3409 379.202 63.9773 377.906 63.25C376.618 62.5152 375.626 61.4773 374.929 60.1364C374.232 58.7879 373.884 57.1932 373.884 55.3523C373.884 53.5568 374.232 51.9811 374.929 50.625C375.626 49.2689 376.607 48.2121 377.872 47.4545C379.145 46.697 380.637 46.3182 382.349 46.3182C383.501 46.3182 384.573 46.5038 385.565 46.875C386.565 47.2386 387.437 47.7879 388.179 48.5227C388.929 49.2576 389.512 50.1818 389.929 51.2955C390.346 52.4015 390.554 53.697 390.554 55.1818V56.5114H375.815V53.5114H385.997C385.997 52.8144 385.846 52.197 385.543 51.6591C385.24 51.1212 384.819 50.7008 384.281 50.3977C383.751 50.0871 383.134 49.9318 382.429 49.9318C381.694 49.9318 381.043 50.1023 380.474 50.4432C379.914 50.7765 379.474 51.2273 379.156 51.7955C378.838 52.3561 378.675 52.9811 378.668 53.6705V56.5227C378.668 57.3864 378.827 58.1326 379.145 58.7614C379.471 59.3902 379.929 59.875 380.52 60.2159C381.111 60.5568 381.812 60.7273 382.622 60.7273C383.16 60.7273 383.652 60.6515 384.099 60.5C384.546 60.3485 384.929 60.1212 385.247 59.8182C385.565 59.5152 385.808 59.1439 385.974 58.7045L390.452 59C390.224 60.0758 389.759 61.0152 389.054 61.8182C388.357 62.6136 387.455 63.2348 386.349 63.6818C385.251 64.1212 383.982 64.3409 382.543 64.3409ZM408.236 51.5227L403.804 51.7955C403.728 51.4167 403.565 51.0758 403.315 50.7727C403.065 50.4621 402.736 50.2159 402.327 50.0341C401.925 49.8447 401.444 49.75 400.884 49.75C400.134 49.75 399.501 49.9091 398.986 50.2273C398.471 50.5379 398.213 50.9545 398.213 51.4773C398.213 51.8939 398.38 52.2462 398.713 52.5341C399.046 52.822 399.618 53.053 400.429 53.2273L403.588 53.8636C405.285 54.2121 406.55 54.7727 407.384 55.5455C408.217 56.3182 408.634 57.3333 408.634 58.5909C408.634 59.7348 408.296 60.7386 407.622 61.6023C406.955 62.4659 406.039 63.1402 404.872 63.625C403.713 64.1023 402.376 64.3409 400.861 64.3409C398.55 64.3409 396.709 63.8598 395.338 62.8977C393.974 61.928 393.175 60.6098 392.94 58.9432L397.702 58.6932C397.846 59.3977 398.194 59.9356 398.747 60.3068C399.3 60.6705 400.009 60.8523 400.872 60.8523C401.721 60.8523 402.402 60.6894 402.918 60.3636C403.44 60.0303 403.705 59.6023 403.713 59.0795C403.705 58.6402 403.52 58.2803 403.156 58C402.793 57.7121 402.232 57.4924 401.474 57.3409L398.452 56.7386C396.747 56.3977 395.478 55.8068 394.645 54.9659C393.819 54.125 393.406 53.053 393.406 51.75C393.406 50.6288 393.709 49.6629 394.315 48.8523C394.929 48.0417 395.789 47.4167 396.895 46.9773C398.009 46.5379 399.312 46.3182 400.804 46.3182C403.009 46.3182 404.743 46.7841 406.009 47.7159C407.281 48.6477 408.024 49.9167 408.236 51.5227ZM66.5682 91.6932V94.6364H56.25V91.6932H66.5682ZM80.0994 103V79.7273H94.054V82.2273H82.9176V90.0909H93.0085V92.5909H82.9176V103H80.0994ZM98.8807 103V79.7273H106.744C108.563 79.7273 110.055 80.0379 111.222 80.6591C112.388 81.2727 113.252 82.1174 113.812 83.1932C114.373 84.2689 114.653 85.4924 114.653 86.8636C114.653 88.2348 114.373 89.4508 113.812 90.5114C113.252 91.572 112.392 92.4053 111.233 93.0114C110.074 93.6098 108.593 93.9091 106.79 93.9091H100.426V91.3636H106.699C107.941 91.3636 108.941 91.1818 109.699 90.8182C110.464 90.4545 111.017 89.9394 111.358 89.2727C111.706 88.5985 111.881 87.7955 111.881 86.8636C111.881 85.9318 111.706 85.1174 111.358 84.4205C111.009 83.7235 110.453 83.1856 109.688 82.8068C108.922 82.4205 107.911 82.2273 106.653 82.2273H101.699V103H98.8807ZM109.835 92.5455L115.562 103H112.29L106.653 92.5455H109.835ZM138.986 91.3636C138.986 93.8182 138.543 95.9394 137.656 97.7273C136.77 99.5152 135.554 100.894 134.009 101.864C132.463 102.833 130.698 103.318 128.713 103.318C126.728 103.318 124.963 102.833 123.418 101.864C121.872 100.894 120.656 99.5152 119.77 97.7273C118.884 95.9394 118.44 93.8182 118.44 91.3636C118.44 88.9091 118.884 86.7879 119.77 85C120.656 83.2121 121.872 81.8333 123.418 80.8636C124.963 79.8939 126.728 79.4091 128.713 79.4091C130.698 79.4091 132.463 79.8939 134.009 80.8636C135.554 81.8333 136.77 83.2121 137.656 85C138.543 86.7879 138.986 88.9091 138.986 91.3636ZM136.259 91.3636C136.259 89.3485 135.921 87.6477 135.247 86.2614C134.58 84.875 133.675 83.8258 132.531 83.1136C131.395 82.4015 130.122 82.0455 128.713 82.0455C127.304 82.0455 126.027 82.4015 124.884 83.1136C123.747 83.8258 122.842 84.875 122.168 86.2614C121.501 87.6477 121.168 89.3485 121.168 91.3636C121.168 93.3788 121.501 95.0795 122.168 96.4659C122.842 97.8523 123.747 98.9015 124.884 99.6136C126.027 100.326 127.304 100.682 128.713 100.682C130.122 100.682 131.395 100.326 132.531 99.6136C133.675 98.9015 134.58 97.8523 135.247 96.4659C135.921 95.0795 136.259 93.3788 136.259 91.3636ZM162.179 79.7273V103H159.452L146.77 84.7273H146.543V103H143.724V79.7273H146.452L159.179 98.0455H159.406V79.7273H162.179ZM166.545 82.2273V79.7273H184V82.2273H176.682V103H173.864V82.2273H166.545ZM195.611 90.1136V92.6136H185.429V90.1136H195.611ZM200.693 103V79.7273H214.739V82.2273H203.511V90.0909H214.011V92.5909H203.511V100.5H214.92V103H200.693ZM238.273 79.7273V103H235.545L222.864 84.7273H222.636V103H219.818V79.7273H222.545L235.273 98.0455H235.5V79.7273H238.273ZM251.094 103H243.912V79.7273H251.412C253.67 79.7273 255.601 80.1932 257.207 81.125C258.813 82.0492 260.045 83.3788 260.901 85.1136C261.757 86.8409 262.185 88.9091 262.185 91.3182C262.185 93.7424 261.753 95.8295 260.889 97.5795C260.026 99.322 258.768 100.663 257.116 101.602C255.465 102.534 253.457 103 251.094 103ZM246.73 100.5H250.912C252.836 100.5 254.431 100.129 255.696 99.3864C256.961 98.6439 257.904 97.5871 258.526 96.2159C259.147 94.8447 259.457 93.2121 259.457 91.3182C259.457 89.4394 259.151 87.822 258.537 86.4659C257.923 85.1023 257.007 84.0568 255.787 83.3295C254.567 82.5947 253.048 82.2273 251.23 82.2273H246.73V100.5ZM283.094 103H275.912V79.7273H283.412C285.67 79.7273 287.601 80.1932 289.207 81.125C290.813 82.0492 292.045 83.3788 292.901 85.1136C293.757 86.8409 294.185 88.9091 294.185 91.3182C294.185 93.7424 293.753 95.8295 292.889 97.5795C292.026 99.322 290.768 100.663 289.116 101.602C287.465 102.534 285.457 103 283.094 103ZM278.73 100.5H282.912C284.836 100.5 286.431 100.129 287.696 99.3864C288.961 98.6439 289.904 97.5871 290.526 96.2159C291.147 94.8447 291.457 93.2121 291.457 91.3182C291.457 89.4394 291.151 87.822 290.537 86.4659C289.923 85.1023 289.007 84.0568 287.787 83.3295C286.567 82.5947 285.048 82.2273 283.23 82.2273H278.73V100.5ZM298.912 103V79.7273H312.957V82.2273H301.73V90.0909H312.23V92.5909H301.73V100.5H313.139V103H298.912ZM318.991 79.7273L325.901 99.3182H326.173L333.082 79.7273H336.037L327.491 103H324.582L316.037 79.7273H318.991ZM339.662 103V79.7273H353.707V82.2273H342.48V90.0909H352.98V92.5909H342.48V100.5H353.889V103H339.662ZM358.787 103V79.7273H361.605V100.5H372.423V103H358.787ZM395.517 91.3636C395.517 93.8182 395.074 95.9394 394.188 97.7273C393.301 99.5152 392.085 100.894 390.54 101.864C388.994 102.833 387.229 103.318 385.244 103.318C383.259 103.318 381.494 102.833 379.949 101.864C378.403 100.894 377.188 99.5152 376.301 97.7273C375.415 95.9394 374.972 93.8182 374.972 91.3636C374.972 88.9091 375.415 86.7879 376.301 85C377.188 83.2121 378.403 81.8333 379.949 80.8636C381.494 79.8939 383.259 79.4091 385.244 79.4091C387.229 79.4091 388.994 79.8939 390.54 80.8636C392.085 81.8333 393.301 83.2121 394.188 85C395.074 86.7879 395.517 88.9091 395.517 91.3636ZM392.79 91.3636C392.79 89.3485 392.453 87.6477 391.778 86.2614C391.112 84.875 390.206 83.8258 389.062 83.1136C387.926 82.4015 386.653 82.0455 385.244 82.0455C383.835 82.0455 382.559 82.4015 381.415 83.1136C380.278 83.8258 379.373 84.875 378.699 86.2614C378.032 87.6477 377.699 89.3485 377.699 91.3636C377.699 93.3788 378.032 95.0795 378.699 96.4659C379.373 97.8523 380.278 98.9015 381.415 99.6136C382.559 100.326 383.835 100.682 385.244 100.682C386.653 100.682 387.926 100.326 389.062 99.6136C390.206 98.9015 391.112 97.8523 391.778 96.4659C392.453 95.0795 392.79 93.3788 392.79 91.3636ZM400.256 103V79.7273H408.119C409.945 79.7273 411.438 80.0568 412.597 80.7159C413.763 81.3674 414.627 82.25 415.188 83.3636C415.748 84.4773 416.028 85.7197 416.028 87.0909C416.028 88.4621 415.748 89.7083 415.188 90.8295C414.634 91.9508 413.778 92.8447 412.619 93.5114C411.46 94.1705 409.975 94.5 408.165 94.5H402.528V92H408.074C409.324 92 410.328 91.7841 411.085 91.3523C411.843 90.9205 412.392 90.3371 412.733 89.6023C413.081 88.8598 413.256 88.0227 413.256 87.0909C413.256 86.1591 413.081 85.3258 412.733 84.5909C412.392 83.8561 411.839 83.2803 411.074 82.8636C410.309 82.4394 409.294 82.2273 408.028 82.2273H403.074V103H400.256ZM420.568 103V79.7273H434.614V82.2273H423.386V90.0909H433.886V92.5909H423.386V100.5H434.795V103H420.568ZM439.693 103V79.7273H447.557C449.375 79.7273 450.867 80.0379 452.034 80.6591C453.201 81.2727 454.064 82.1174 454.625 83.1932C455.186 84.2689 455.466 85.4924 455.466 86.8636C455.466 88.2348 455.186 89.4508 454.625 90.5114C454.064 91.572 453.205 92.4053 452.045 93.0114C450.886 93.6098 449.405 93.9091 447.602 93.9091H441.239V91.3636H447.511C448.754 91.3636 449.754 91.1818 450.511 90.8182C451.277 90.4545 451.83 89.9394 452.17 89.2727C452.519 88.5985 452.693 87.7955 452.693 86.8636C452.693 85.9318 452.519 85.1174 452.17 84.4205C451.822 83.7235 451.265 83.1856 450.5 82.8068C449.735 82.4205 448.723 82.2273 447.466 82.2273H442.511V103H439.693ZM450.648 92.5455L456.375 103H453.102L447.466 92.5455H450.648ZM477.026 78.6364L469.526 106.5H467.071L474.571 78.6364H477.026ZM504.841 79.7273H507.659V95.1364C507.659 96.7273 507.284 98.1477 506.534 99.3977C505.792 100.64 504.742 101.621 503.386 102.341C502.03 103.053 500.439 103.409 498.614 103.409C496.788 103.409 495.197 103.053 493.841 102.341C492.485 101.621 491.432 100.64 490.682 99.3977C489.939 98.1477 489.568 96.7273 489.568 95.1364V79.7273H492.386V94.9091C492.386 96.0455 492.636 97.0568 493.136 97.9432C493.636 98.822 494.348 99.5152 495.273 100.023C496.205 100.523 497.318 100.773 498.614 100.773C499.909 100.773 501.023 100.523 501.955 100.023C502.886 99.5152 503.598 98.822 504.091 97.9432C504.591 97.0568 504.841 96.0455 504.841 94.9091V79.7273ZM512.923 103V85.5455H515.605V103H512.923ZM514.287 82.6364C513.764 82.6364 513.313 82.4583 512.935 82.1023C512.563 81.7462 512.378 81.3182 512.378 80.8182C512.378 80.3182 512.563 79.8902 512.935 79.5341C513.313 79.178 513.764 79 514.287 79C514.81 79 515.257 79.178 515.628 79.5341C516.007 79.8902 516.196 80.3182 516.196 80.8182C516.196 81.3182 516.007 81.7462 515.628 82.1023C515.257 82.4583 514.81 82.6364 514.287 82.6364ZM545.153 79.7273H547.972V95.1364C547.972 96.7273 547.597 98.1477 546.847 99.3977C546.104 100.64 545.055 101.621 543.699 102.341C542.343 103.053 540.752 103.409 538.926 103.409C537.1 103.409 535.509 103.053 534.153 102.341C532.797 101.621 531.744 100.64 530.994 99.3977C530.252 98.1477 529.881 96.7273 529.881 95.1364V79.7273H532.699V94.9091C532.699 96.0455 532.949 97.0568 533.449 97.9432C533.949 98.822 534.661 99.5152 535.585 100.023C536.517 100.523 537.631 100.773 538.926 100.773C540.222 100.773 541.335 100.523 542.267 100.023C543.199 99.5152 543.911 98.822 544.403 97.9432C544.903 97.0568 545.153 96.0455 545.153 94.9091V79.7273ZM555.236 85.5455L559.418 92.6818L563.599 85.5455H566.69L561.054 94.2727L566.69 103H563.599L559.418 96.2273L555.236 103H552.145L557.69 94.2727L552.145 85.5455H555.236ZM587.062 103H579.881V79.7273H587.381C589.638 79.7273 591.57 80.1932 593.176 81.125C594.782 82.0492 596.013 83.3788 596.869 85.1136C597.725 86.8409 598.153 88.9091 598.153 91.3182C598.153 93.7424 597.722 95.8295 596.858 97.5795C595.994 99.322 594.737 100.663 593.085 101.602C591.434 102.534 589.426 103 587.062 103ZM582.699 100.5H586.881C588.805 100.5 590.4 100.129 591.665 99.3864C592.93 98.6439 593.873 97.5871 594.494 96.2159C595.116 94.8447 595.426 93.2121 595.426 91.3182C595.426 89.4394 595.119 87.822 594.506 86.4659C593.892 85.1023 592.975 84.0568 591.756 83.3295C590.536 82.5947 589.017 82.2273 587.199 82.2273H582.699V100.5ZM609.835 103.364C608.153 103.364 606.703 102.992 605.483 102.25C604.271 101.5 603.335 100.455 602.676 99.1136C602.025 97.7652 601.699 96.197 601.699 94.4091C601.699 92.6212 602.025 91.0455 602.676 89.6818C603.335 88.3106 604.252 87.2424 605.426 86.4773C606.608 85.7045 607.987 85.3182 609.562 85.3182C610.472 85.3182 611.369 85.4697 612.256 85.7727C613.142 86.0758 613.949 86.5682 614.676 87.25C615.403 87.9242 615.983 88.8182 616.415 89.9318C616.847 91.0455 617.062 92.4167 617.062 94.0455V95.1818H603.608V92.8636H614.335C614.335 91.8788 614.138 91 613.744 90.2273C613.358 89.4545 612.805 88.8447 612.085 88.3977C611.373 87.9508 610.532 87.7273 609.562 87.7273C608.494 87.7273 607.57 87.9924 606.79 88.5227C606.017 89.0455 605.422 89.7273 605.006 90.5682C604.589 91.4091 604.381 92.3106 604.381 93.2727V94.8182C604.381 96.1364 604.608 97.2538 605.062 98.1705C605.525 99.0795 606.165 99.7727 606.983 100.25C607.801 100.72 608.752 100.955 609.835 100.955C610.54 100.955 611.176 100.856 611.744 100.659C612.32 100.455 612.816 100.152 613.233 99.75C613.65 99.3409 613.972 98.8333 614.199 98.2273L616.79 98.9545C616.517 99.8333 616.059 100.606 615.415 101.273C614.771 101.932 613.975 102.447 613.028 102.818C612.081 103.182 611.017 103.364 609.835 103.364ZM633.506 89.4545L631.097 90.1364C630.945 89.7348 630.722 89.3447 630.426 88.9659C630.138 88.5795 629.744 88.2614 629.244 88.0114C628.744 87.7614 628.104 87.6364 627.324 87.6364C626.256 87.6364 625.366 87.8826 624.653 88.375C623.949 88.8598 623.597 89.4773 623.597 90.2273C623.597 90.8939 623.839 91.4205 624.324 91.8068C624.809 92.1932 625.566 92.5152 626.597 92.7727L629.188 93.4091C630.748 93.7879 631.911 94.3674 632.676 95.1477C633.441 95.9205 633.824 96.9167 633.824 98.1364C633.824 99.1364 633.536 100.03 632.96 100.818C632.392 101.606 631.597 102.227 630.574 102.682C629.551 103.136 628.362 103.364 627.006 103.364C625.225 103.364 623.752 102.977 622.585 102.205C621.419 101.432 620.68 100.303 620.369 98.8182L622.915 98.1818C623.157 99.1212 623.616 99.8258 624.29 100.295C624.972 100.765 625.862 101 626.96 101C628.21 101 629.203 100.735 629.938 100.205C630.68 99.6667 631.051 99.0227 631.051 98.2727C631.051 97.6667 630.839 97.1591 630.415 96.75C629.991 96.3333 629.339 96.0227 628.46 95.8182L625.551 95.1364C623.953 94.7576 622.778 94.1705 622.028 93.375C621.286 92.572 620.915 91.5682 620.915 90.3636C620.915 89.3788 621.191 88.5076 621.744 87.75C622.305 86.9924 623.066 86.3977 624.028 85.9659C624.998 85.5341 626.097 85.3182 627.324 85.3182C629.051 85.3182 630.407 85.697 631.392 86.4545C632.384 87.2121 633.089 88.2121 633.506 89.4545ZM637.861 103V85.5455H640.543V103H637.861ZM639.224 82.6364C638.702 82.6364 638.251 82.4583 637.872 82.1023C637.501 81.7462 637.315 81.3182 637.315 80.8182C637.315 80.3182 637.501 79.8902 637.872 79.5341C638.251 79.178 638.702 79 639.224 79C639.747 79 640.194 79.178 640.565 79.5341C640.944 79.8902 641.134 80.3182 641.134 80.8182C641.134 81.3182 640.944 81.7462 640.565 82.1023C640.194 82.4583 639.747 82.6364 639.224 82.6364ZM652.5 109.909C651.205 109.909 650.091 109.742 649.159 109.409C648.227 109.083 647.451 108.652 646.83 108.114C646.216 107.583 645.727 107.015 645.364 106.409L647.5 104.909C647.742 105.227 648.049 105.591 648.42 106C648.792 106.417 649.299 106.777 649.943 107.08C650.595 107.39 651.447 107.545 652.5 107.545C653.909 107.545 655.072 107.205 655.989 106.523C656.905 105.841 657.364 104.773 657.364 103.318V99.7727H657.136C656.939 100.091 656.659 100.485 656.295 100.955C655.939 101.417 655.424 101.83 654.75 102.193C654.083 102.549 653.182 102.727 652.045 102.727C650.636 102.727 649.371 102.394 648.25 101.727C647.136 101.061 646.254 100.091 645.602 98.8182C644.958 97.5455 644.636 96 644.636 94.1818C644.636 92.3939 644.951 90.8371 645.58 89.5114C646.208 88.178 647.083 87.1477 648.205 86.4205C649.326 85.6856 650.621 85.3182 652.091 85.3182C653.227 85.3182 654.129 85.5076 654.795 85.8864C655.47 86.2576 655.985 86.6818 656.341 87.1591C656.705 87.6288 656.985 88.0152 657.182 88.3182H657.455V85.5455H660.045V103.5C660.045 105 659.705 106.22 659.023 107.159C658.348 108.106 657.439 108.799 656.295 109.239C655.159 109.686 653.894 109.909 652.5 109.909ZM652.409 100.318C653.485 100.318 654.394 100.072 655.136 99.5795C655.879 99.0871 656.443 98.3788 656.83 97.4545C657.216 96.5303 657.409 95.4242 657.409 94.1364C657.409 92.8788 657.22 91.7689 656.841 90.8068C656.462 89.8447 655.902 89.0909 655.159 88.5455C654.417 88 653.5 87.7273 652.409 87.7273C651.273 87.7273 650.326 88.0152 649.568 88.5909C648.818 89.1667 648.254 89.9394 647.875 90.9091C647.504 91.8788 647.318 92.9545 647.318 94.1364C647.318 95.3485 647.508 96.4205 647.886 97.3523C648.273 98.2765 648.841 99.0038 649.591 99.5341C650.348 100.057 651.288 100.318 652.409 100.318ZM667.636 92.5V103H664.955V85.5455H667.545V88.2727H667.773C668.182 87.3864 668.803 86.6742 669.636 86.1364C670.47 85.5909 671.545 85.3182 672.864 85.3182C674.045 85.3182 675.08 85.5606 675.966 86.0455C676.852 86.5227 677.542 87.25 678.034 88.2273C678.527 89.197 678.773 90.4242 678.773 91.9091V103H676.091V92.0909C676.091 90.7197 675.735 89.6515 675.023 88.8864C674.311 88.1136 673.333 87.7273 672.091 87.7273C671.235 87.7273 670.47 87.9129 669.795 88.2841C669.129 88.6553 668.602 89.197 668.216 89.9091C667.83 90.6212 667.636 91.4848 667.636 92.5ZM690.991 103.364C689.31 103.364 687.859 102.992 686.639 102.25C685.427 101.5 684.491 100.455 683.832 99.1136C683.181 97.7652 682.855 96.197 682.855 94.4091C682.855 92.6212 683.181 91.0455 683.832 89.6818C684.491 88.3106 685.408 87.2424 686.582 86.4773C687.764 85.7045 689.143 85.3182 690.719 85.3182C691.628 85.3182 692.526 85.4697 693.412 85.7727C694.298 86.0758 695.105 86.5682 695.832 87.25C696.56 87.9242 697.139 88.8182 697.571 89.9318C698.003 91.0455 698.219 92.4167 698.219 94.0455V95.1818H684.764V92.8636H695.491C695.491 91.8788 695.295 91 694.901 90.2273C694.514 89.4545 693.961 88.8447 693.241 88.3977C692.529 87.9508 691.688 87.7273 690.719 87.7273C689.651 87.7273 688.726 87.9924 687.946 88.5227C687.173 89.0455 686.579 89.7273 686.162 90.5682C685.745 91.4091 685.537 92.3106 685.537 93.2727V94.8182C685.537 96.1364 685.764 97.2538 686.219 98.1705C686.681 99.0795 687.321 99.7727 688.139 100.25C688.957 100.72 689.908 100.955 690.991 100.955C691.696 100.955 692.332 100.856 692.901 100.659C693.476 100.455 693.973 100.152 694.389 99.75C694.806 99.3409 695.128 98.8333 695.355 98.2273L697.946 98.9545C697.673 99.8333 697.215 100.606 696.571 101.273C695.927 101.932 695.132 102.447 694.185 102.818C693.238 103.182 692.173 103.364 690.991 103.364ZM702.298 103V85.5455H704.889V88.1818H705.071C705.389 87.3182 705.965 86.6174 706.798 86.0795C707.632 85.5417 708.571 85.2727 709.616 85.2727C709.813 85.2727 710.06 85.2765 710.355 85.2841C710.651 85.2917 710.874 85.303 711.026 85.3182V88.0455C710.935 88.0227 710.726 87.9886 710.401 87.9432C710.082 87.8902 709.745 87.8636 709.389 87.8636C708.541 87.8636 707.783 88.0417 707.116 88.3977C706.457 88.7462 705.935 89.2311 705.548 89.8523C705.17 90.4659 704.98 91.1667 704.98 91.9545V103H702.298Z" fill="white"/>
<path d="M88.1819 132.545H90.824V144.026C90.824 145.247 90.537 146.33 89.9632 147.273C89.3893 148.21 88.5825 148.949 87.5427 149.489C86.503 150.023 85.2842 150.29 83.8865 150.29C82.4944 150.29 81.2785 150.023 80.2388 149.489C79.199 148.949 78.3922 148.21 77.8183 147.273C77.2444 146.33 76.9575 145.247 76.9575 144.026V132.545H79.591V143.812C79.591 144.602 79.7643 145.304 80.1109 145.918C80.4632 146.531 80.9603 147.014 81.6024 147.366C82.2444 147.713 83.0058 147.886 83.8865 147.886C84.7728 147.886 85.537 147.713 86.1791 147.366C86.8268 147.014 87.3211 146.531 87.662 145.918C88.0086 145.304 88.1819 144.602 88.1819 143.812V132.545ZM94.4483 150V136.909H96.9966V150H94.4483ZM95.7352 134.889C95.292 134.889 94.9113 134.741 94.5932 134.446C94.2807 134.145 94.1244 133.787 94.1244 133.372C94.1244 132.952 94.2807 132.594 94.5932 132.298C94.9113 131.997 95.292 131.847 95.7352 131.847C96.1784 131.847 96.5562 131.997 96.8687 132.298C97.1869 132.594 97.346 132.952 97.346 133.372C97.346 133.787 97.1869 134.145 96.8687 134.446C96.5562 134.741 96.1784 134.889 95.7352 134.889ZM113.424 131.727L107.799 152.625H105.524L111.149 131.727H113.424ZM133.369 132.545H136.011V144.026C136.011 145.247 135.725 146.33 135.151 147.273C134.577 148.21 133.77 148.949 132.73 149.489C131.69 150.023 130.472 150.29 129.074 150.29C127.682 150.29 126.466 150.023 125.426 149.489C124.386 148.949 123.58 148.21 123.006 147.273C122.432 146.33 122.145 145.247 122.145 144.026V132.545H124.779V143.812C124.779 144.602 124.952 145.304 125.298 145.918C125.651 146.531 126.148 147.014 126.79 147.366C127.432 147.713 128.193 147.886 129.074 147.886C129.96 147.886 130.725 147.713 131.367 147.366C132.014 147.014 132.509 146.531 132.85 145.918C133.196 145.304 133.369 144.602 133.369 143.812V132.545ZM141.647 136.909L144.536 142.006L147.451 136.909H150.238L146.156 143.455L150.272 150H147.485L144.536 145.108L141.596 150H138.801L142.874 143.455L138.852 136.909H141.647ZM156.17 147.614L156.042 148.543C155.957 149.224 155.812 149.935 155.607 150.673C155.408 151.418 155.201 152.108 154.985 152.744C154.775 153.381 154.602 153.886 154.465 154.261H152.658C152.732 153.909 152.835 153.432 152.965 152.83C153.096 152.233 153.224 151.565 153.349 150.827C153.474 150.088 153.568 149.335 153.63 148.568L153.715 147.614H156.17ZM166.043 150V132.545H168.677V140.131H177.379V132.545H180.021V150H177.379V142.389H168.677V150H166.043ZM182.995 134.812V132.545H196.504V134.812H191.058V150H188.433V134.812H182.995ZM199.489 132.545H202.685L208.242 146.114H208.446L214.003 132.545H217.199V150H214.693V137.369H214.531L209.384 149.974H207.304L202.156 137.361H201.994V150H199.489V132.545ZM221.028 150V132.545H223.661V147.733H231.57V150H221.028ZM237.685 147.614L237.558 148.543C237.472 149.224 237.328 149.935 237.123 150.673C236.924 151.418 236.717 152.108 236.501 152.744C236.291 153.381 236.117 153.886 235.981 154.261H234.174C234.248 153.909 234.35 153.432 234.481 152.83C234.612 152.233 234.739 151.565 234.864 150.827C234.989 150.088 235.083 149.335 235.146 148.568L235.231 147.614H237.685ZM262.056 138.222H259.397C259.295 137.653 259.105 137.153 258.826 136.722C258.548 136.29 258.207 135.923 257.803 135.622C257.4 135.321 256.948 135.094 256.448 134.94C255.954 134.787 255.428 134.71 254.872 134.71C253.866 134.71 252.965 134.963 252.17 135.469C251.38 135.974 250.755 136.716 250.295 137.693C249.84 138.67 249.613 139.864 249.613 141.273C249.613 142.693 249.84 143.892 250.295 144.869C250.755 145.847 251.383 146.585 252.178 147.085C252.974 147.585 253.869 147.835 254.863 147.835C255.414 147.835 255.937 147.761 256.431 147.614C256.931 147.46 257.383 147.236 257.786 146.94C258.19 146.645 258.531 146.284 258.809 145.858C259.093 145.426 259.289 144.932 259.397 144.375L262.056 144.384C261.914 145.241 261.639 146.031 261.23 146.753C260.826 147.469 260.306 148.088 259.67 148.611C259.039 149.128 258.318 149.528 257.505 149.812C256.693 150.097 255.806 150.239 254.846 150.239C253.335 150.239 251.988 149.881 250.806 149.165C249.624 148.443 248.693 147.412 248.011 146.071C247.335 144.73 246.997 143.131 246.997 141.273C246.997 139.409 247.337 137.81 248.019 136.474C248.701 135.134 249.633 134.105 250.815 133.389C251.997 132.668 253.34 132.307 254.846 132.307C255.772 132.307 256.636 132.44 257.437 132.707C258.244 132.969 258.968 133.355 259.61 133.866C260.252 134.372 260.783 134.991 261.204 135.724C261.624 136.452 261.908 137.284 262.056 138.222ZM274.727 137.131C274.636 136.324 274.261 135.699 273.602 135.256C272.943 134.807 272.114 134.582 271.114 134.582C270.398 134.582 269.779 134.696 269.256 134.923C268.733 135.145 268.327 135.452 268.037 135.844C267.753 136.23 267.611 136.67 267.611 137.165C267.611 137.58 267.708 137.937 267.901 138.239C268.1 138.54 268.358 138.793 268.676 138.997C269 139.196 269.347 139.364 269.716 139.5C270.085 139.631 270.44 139.739 270.781 139.824L272.486 140.267C273.043 140.403 273.614 140.588 274.199 140.821C274.784 141.054 275.327 141.361 275.827 141.741C276.327 142.122 276.73 142.594 277.037 143.156C277.35 143.719 277.506 144.392 277.506 145.176C277.506 146.165 277.25 147.043 276.739 147.81C276.233 148.577 275.497 149.182 274.531 149.625C273.571 150.068 272.409 150.29 271.046 150.29C269.739 150.29 268.608 150.082 267.654 149.668C266.699 149.253 265.952 148.665 265.412 147.903C264.872 147.136 264.574 146.227 264.517 145.176H267.159C267.21 145.807 267.415 146.332 267.773 146.753C268.136 147.168 268.6 147.477 269.162 147.682C269.73 147.881 270.352 147.98 271.029 147.98C271.773 147.98 272.435 147.864 273.014 147.631C273.6 147.392 274.06 147.062 274.395 146.642C274.73 146.216 274.898 145.719 274.898 145.151C274.898 144.634 274.75 144.21 274.455 143.881C274.165 143.551 273.77 143.278 273.27 143.062C272.776 142.847 272.216 142.656 271.591 142.491L269.529 141.929C268.131 141.548 267.023 140.989 266.205 140.25C265.392 139.511 264.986 138.534 264.986 137.318C264.986 136.312 265.259 135.435 265.804 134.685C266.35 133.935 267.088 133.352 268.02 132.938C268.952 132.517 270.003 132.307 271.173 132.307C272.355 132.307 273.398 132.514 274.301 132.929C275.21 133.344 275.926 133.915 276.449 134.642C276.972 135.364 277.244 136.193 277.267 137.131H274.727ZM290.173 137.131C290.082 136.324 289.707 135.699 289.048 135.256C288.389 134.807 287.559 134.582 286.559 134.582C285.843 134.582 285.224 134.696 284.701 134.923C284.178 135.145 283.772 135.452 283.482 135.844C283.198 136.23 283.056 136.67 283.056 137.165C283.056 137.58 283.153 137.937 283.346 138.239C283.545 138.54 283.803 138.793 284.122 138.997C284.445 139.196 284.792 139.364 285.161 139.5C285.531 139.631 285.886 139.739 286.227 139.824L287.931 140.267C288.488 140.403 289.059 140.588 289.644 140.821C290.23 141.054 290.772 141.361 291.272 141.741C291.772 142.122 292.176 142.594 292.482 143.156C292.795 143.719 292.951 144.392 292.951 145.176C292.951 146.165 292.695 147.043 292.184 147.81C291.678 148.577 290.943 149.182 289.977 149.625C289.016 150.068 287.855 150.29 286.491 150.29C285.184 150.29 284.053 150.082 283.099 149.668C282.144 149.253 281.397 148.665 280.857 147.903C280.318 147.136 280.019 146.227 279.962 145.176H282.605C282.656 145.807 282.86 146.332 283.218 146.753C283.582 147.168 284.045 147.477 284.607 147.682C285.176 147.881 285.798 147.98 286.474 147.98C287.218 147.98 287.88 147.864 288.46 147.631C289.045 147.392 289.505 147.062 289.84 146.642C290.176 146.216 290.343 145.719 290.343 145.151C290.343 144.634 290.195 144.21 289.9 143.881C289.61 143.551 289.215 143.278 288.715 143.062C288.221 142.847 287.661 142.656 287.036 142.491L284.974 141.929C283.576 141.548 282.468 140.989 281.65 140.25C280.837 139.511 280.431 138.534 280.431 137.318C280.431 136.312 280.704 135.435 281.249 134.685C281.795 133.935 282.533 133.352 283.465 132.938C284.397 132.517 285.448 132.307 286.619 132.307C287.801 132.307 288.843 132.514 289.747 132.929C290.656 133.344 291.372 133.915 291.894 134.642C292.417 135.364 292.69 136.193 292.712 137.131H290.173ZM299.209 147.614L299.081 148.543C298.996 149.224 298.851 149.935 298.646 150.673C298.448 151.418 298.24 152.108 298.024 152.744C297.814 153.381 297.641 153.886 297.504 154.261H295.698C295.771 153.909 295.874 153.432 296.004 152.83C296.135 152.233 296.263 151.565 296.388 150.827C296.513 150.088 296.607 149.335 296.669 148.568L296.754 147.614H299.209ZM315.867 132.545H318.492V144.92C318.492 146.04 318.27 146.997 317.827 147.793C317.389 148.588 316.773 149.196 315.977 149.616C315.182 150.031 314.25 150.239 313.182 150.239C312.199 150.239 311.315 150.06 310.531 149.702C309.753 149.344 309.136 148.824 308.682 148.142C308.233 147.455 308.009 146.619 308.009 145.636H310.625C310.625 146.119 310.736 146.537 310.958 146.889C311.185 147.241 311.494 147.517 311.886 147.716C312.284 147.909 312.739 148.006 313.25 148.006C313.807 148.006 314.279 147.889 314.665 147.656C315.057 147.418 315.355 147.068 315.56 146.608C315.764 146.148 315.867 145.585 315.867 144.92V132.545ZM323.799 150H321.004L327.285 132.545H330.328L336.609 150H333.813L328.879 135.716H328.742L323.799 150ZM324.268 143.165H333.336V145.381H324.268V143.165ZM338.827 132.545L343.685 146.761H343.881L348.739 132.545H351.585L345.304 150H342.261L335.98 132.545H338.827ZM353.799 150H351.004L357.285 132.545H360.328L366.609 150H363.813L358.879 135.716H358.742L353.799 150ZM354.268 143.165H363.336V145.381H354.268V143.165ZM378.509 137.131C378.418 136.324 378.043 135.699 377.384 135.256C376.725 134.807 375.895 134.582 374.895 134.582C374.179 134.582 373.56 134.696 373.037 134.923C372.514 135.145 372.108 135.452 371.818 135.844C371.534 136.23 371.392 136.67 371.392 137.165C371.392 137.58 371.489 137.937 371.682 138.239C371.881 138.54 372.139 138.793 372.458 138.997C372.781 139.196 373.128 139.364 373.497 139.5C373.867 139.631 374.222 139.739 374.563 139.824L376.267 140.267C376.824 140.403 377.395 140.588 377.98 140.821C378.565 141.054 379.108 141.361 379.608 141.741C380.108 142.122 380.511 142.594 380.818 143.156C381.131 143.719 381.287 144.392 381.287 145.176C381.287 146.165 381.031 147.043 380.52 147.81C380.014 148.577 379.279 149.182 378.313 149.625C377.352 150.068 376.19 150.29 374.827 150.29C373.52 150.29 372.389 150.082 371.435 149.668C370.48 149.253 369.733 148.665 369.193 147.903C368.654 147.136 368.355 146.227 368.298 145.176H370.94C370.992 145.807 371.196 146.332 371.554 146.753C371.918 147.168 372.381 147.477 372.943 147.682C373.511 147.881 374.134 147.98 374.81 147.98C375.554 147.98 376.216 147.864 376.796 147.631C377.381 147.392 377.841 147.062 378.176 146.642C378.511 146.216 378.679 145.719 378.679 145.151C378.679 144.634 378.531 144.21 378.236 143.881C377.946 143.551 377.551 143.278 377.051 143.062C376.557 142.847 375.997 142.656 375.372 142.491L373.31 141.929C371.912 141.548 370.804 140.989 369.986 140.25C369.173 139.511 368.767 138.534 368.767 137.318C368.767 136.312 369.04 135.435 369.585 134.685C370.131 133.935 370.869 133.352 371.801 132.938C372.733 132.517 373.784 132.307 374.955 132.307C376.136 132.307 377.179 132.514 378.083 132.929C378.992 133.344 379.708 133.915 380.23 134.642C380.753 135.364 381.026 136.193 381.048 137.131H378.509ZM398.931 138.222H396.272C396.17 137.653 395.98 137.153 395.701 136.722C395.423 136.29 395.082 135.923 394.678 135.622C394.275 135.321 393.823 135.094 393.323 134.94C392.829 134.787 392.303 134.71 391.747 134.71C390.741 134.71 389.84 134.963 389.045 135.469C388.255 135.974 387.63 136.716 387.17 137.693C386.715 138.67 386.488 139.864 386.488 141.273C386.488 142.693 386.715 143.892 387.17 144.869C387.63 145.847 388.258 146.585 389.053 147.085C389.849 147.585 390.744 147.835 391.738 147.835C392.289 147.835 392.812 147.761 393.306 147.614C393.806 147.46 394.258 147.236 394.661 146.94C395.065 146.645 395.406 146.284 395.684 145.858C395.968 145.426 396.164 144.932 396.272 144.375L398.931 144.384C398.789 145.241 398.514 146.031 398.105 146.753C397.701 147.469 397.181 148.088 396.545 148.611C395.914 149.128 395.193 149.528 394.38 149.812C393.568 150.097 392.681 150.239 391.721 150.239C390.21 150.239 388.863 149.881 387.681 149.165C386.499 148.443 385.568 147.412 384.886 146.071C384.21 144.73 383.872 143.131 383.872 141.273C383.872 139.409 384.212 137.81 384.894 136.474C385.576 135.134 386.508 134.105 387.69 133.389C388.872 132.668 390.215 132.307 391.721 132.307C392.647 132.307 393.511 132.44 394.312 132.707C395.119 132.969 395.843 133.355 396.485 133.866C397.127 134.372 397.658 134.991 398.079 135.724C398.499 136.452 398.783 137.284 398.931 138.222ZM402.083 150V132.545H408.304C409.656 132.545 410.779 132.778 411.671 133.244C412.568 133.71 413.239 134.355 413.682 135.179C414.125 135.997 414.347 136.943 414.347 138.017C414.347 139.085 414.122 140.026 413.673 140.838C413.23 141.645 412.56 142.273 411.662 142.722C410.77 143.17 409.648 143.395 408.296 143.395H403.583V141.128H408.057C408.909 141.128 409.602 141.006 410.136 140.761C410.676 140.517 411.071 140.162 411.321 139.696C411.571 139.23 411.696 138.67 411.696 138.017C411.696 137.358 411.568 136.787 411.313 136.304C411.063 135.821 410.668 135.452 410.128 135.196C409.594 134.935 408.892 134.804 408.023 134.804H404.716V150H402.083ZM410.699 142.125L415.011 150H412.011L407.784 142.125H410.699ZM420.185 132.545V150H417.551V132.545H420.185ZM424.02 150V132.545H430.242C431.6 132.545 432.725 132.793 433.617 133.287C434.509 133.781 435.176 134.457 435.619 135.315C436.063 136.168 436.284 137.128 436.284 138.196C436.284 139.27 436.06 140.236 435.611 141.094C435.168 141.946 434.497 142.622 433.6 143.122C432.708 143.616 431.585 143.864 430.233 143.864H425.955V141.631H429.994C430.852 141.631 431.548 141.483 432.083 141.188C432.617 140.886 433.009 140.477 433.259 139.96C433.509 139.443 433.634 138.855 433.634 138.196C433.634 137.537 433.509 136.952 433.259 136.44C433.009 135.929 432.614 135.528 432.074 135.239C431.54 134.949 430.835 134.804 429.96 134.804H426.654V150H424.02ZM438.511 134.812V132.545H452.019V134.812H446.573V150H443.948V134.812H438.511ZM457.295 147.614L457.167 148.543C457.082 149.224 456.937 149.935 456.732 150.673C456.533 151.418 456.326 152.108 456.11 152.744C455.9 153.381 455.727 153.886 455.59 154.261H453.783C453.857 153.909 453.96 153.432 454.09 152.83C454.221 152.233 454.349 151.565 454.474 150.827C454.599 150.088 454.693 149.335 454.755 148.568L454.84 147.614H457.295ZM470.586 150L465.745 132.545H468.515L471.916 146.062H472.078L475.614 132.545H478.359L481.896 146.071H482.058L485.45 132.545H488.228L483.379 150H480.728L477.055 136.926H476.918L473.245 150H470.586ZM504.924 141.273C504.924 143.136 504.583 144.739 503.901 146.08C503.22 147.415 502.285 148.443 501.097 149.165C499.916 149.881 498.572 150.239 497.066 150.239C495.555 150.239 494.205 149.881 493.018 149.165C491.836 148.443 490.904 147.412 490.222 146.071C489.541 144.73 489.2 143.131 489.2 141.273C489.2 139.409 489.541 137.81 490.222 136.474C490.904 135.134 491.836 134.105 493.018 133.389C494.205 132.668 495.555 132.307 497.066 132.307C498.572 132.307 499.916 132.668 501.097 133.389C502.285 134.105 503.22 135.134 503.901 136.474C504.583 137.81 504.924 139.409 504.924 141.273ZM502.316 141.273C502.316 139.852 502.086 138.656 501.626 137.685C501.171 136.707 500.546 135.969 499.751 135.469C498.961 134.963 498.066 134.71 497.066 134.71C496.06 134.71 495.163 134.963 494.373 135.469C493.583 135.969 492.958 136.707 492.498 137.685C492.043 138.656 491.816 139.852 491.816 141.273C491.816 142.693 492.043 143.892 492.498 144.869C492.958 145.841 493.583 146.58 494.373 147.085C495.163 147.585 496.06 147.835 497.066 147.835C498.066 147.835 498.961 147.585 499.751 147.085C500.546 146.58 501.171 145.841 501.626 144.869C502.086 143.892 502.316 142.693 502.316 141.273ZM508.208 150V132.545H514.429C515.781 132.545 516.904 132.778 517.796 133.244C518.693 133.71 519.364 134.355 519.807 135.179C520.25 135.997 520.472 136.943 520.472 138.017C520.472 139.085 520.247 140.026 519.798 140.838C519.355 141.645 518.685 142.273 517.787 142.722C516.895 143.17 515.773 143.395 514.421 143.395H509.708V141.128H514.182C515.034 141.128 515.727 141.006 516.261 140.761C516.801 140.517 517.196 140.162 517.446 139.696C517.696 139.23 517.821 138.67 517.821 138.017C517.821 137.358 517.693 136.787 517.438 136.304C517.188 135.821 516.793 135.452 516.253 135.196C515.719 134.935 515.017 134.804 514.148 134.804H510.841V150H508.208ZM516.824 142.125L521.136 150H518.136L513.909 142.125H516.824ZM529.327 150H523.676V132.545H529.506C531.216 132.545 532.685 132.895 533.912 133.594C535.139 134.287 536.08 135.284 536.733 136.585C537.392 137.881 537.722 139.435 537.722 141.247C537.722 143.065 537.389 144.628 536.725 145.935C536.065 147.241 535.111 148.247 533.861 148.952C532.611 149.651 531.1 150 529.327 150ZM526.31 147.699H529.182C530.511 147.699 531.617 147.449 532.497 146.949C533.378 146.443 534.037 145.713 534.475 144.759C534.912 143.798 535.131 142.628 535.131 141.247C535.131 139.878 534.912 138.716 534.475 137.761C534.043 136.807 533.398 136.082 532.54 135.588C531.682 135.094 530.617 134.847 529.344 134.847H526.31V147.699ZM540.997 150V132.545H547.218C548.576 132.545 549.701 132.793 550.593 133.287C551.485 133.781 552.153 134.457 552.596 135.315C553.039 136.168 553.261 137.128 553.261 138.196C553.261 139.27 553.036 140.236 552.587 141.094C552.144 141.946 551.474 142.622 550.576 143.122C549.684 143.616 548.562 143.864 547.21 143.864H542.931V141.631H546.971C547.829 141.631 548.525 141.483 549.059 141.188C549.593 140.886 549.985 140.477 550.235 139.96C550.485 139.443 550.61 138.855 550.61 138.196C550.61 137.537 550.485 136.952 550.235 136.44C549.985 135.929 549.59 135.528 549.051 135.239C548.516 134.949 547.812 134.804 546.937 134.804H543.63V150H540.997ZM556.348 150V132.545H562.57C563.922 132.545 565.044 132.778 565.936 133.244C566.834 133.71 567.504 134.355 567.948 135.179C568.391 135.997 568.612 136.943 568.612 138.017C568.612 139.085 568.388 140.026 567.939 140.838C567.496 141.645 566.825 142.273 565.928 142.722C565.036 143.17 563.913 143.395 562.561 143.395H557.848V141.128H562.323C563.175 141.128 563.868 141.006 564.402 140.761C564.942 140.517 565.337 140.162 565.587 139.696C565.837 139.23 565.962 138.67 565.962 138.017C565.962 137.358 565.834 136.787 565.578 136.304C565.328 135.821 564.933 135.452 564.394 135.196C563.859 134.935 563.158 134.804 562.288 134.804H558.982V150H556.348ZM564.965 142.125L569.277 150H566.277L562.05 142.125H564.965ZM571.817 150V132.545H582.76V134.812H574.45V140.131H582.189V142.389H574.45V147.733H582.862V150H571.817ZM595.798 137.131C595.707 136.324 595.332 135.699 594.673 135.256C594.014 134.807 593.184 134.582 592.184 134.582C591.468 134.582 590.849 134.696 590.326 134.923C589.803 135.145 589.397 135.452 589.107 135.844C588.823 136.23 588.681 136.67 588.681 137.165C588.681 137.58 588.778 137.937 588.971 138.239C589.17 138.54 589.428 138.793 589.747 138.997C590.07 139.196 590.417 139.364 590.786 139.5C591.156 139.631 591.511 139.739 591.852 139.824L593.556 140.267C594.113 140.403 594.684 140.588 595.269 140.821C595.855 141.054 596.397 141.361 596.897 141.741C597.397 142.122 597.801 142.594 598.107 143.156C598.42 143.719 598.576 144.392 598.576 145.176C598.576 146.165 598.32 147.043 597.809 147.81C597.303 148.577 596.568 149.182 595.602 149.625C594.641 150.068 593.48 150.29 592.116 150.29C590.809 150.29 589.678 150.082 588.724 149.668C587.769 149.253 587.022 148.665 586.482 147.903C585.943 147.136 585.644 146.227 585.588 145.176H588.23C588.281 145.807 588.485 146.332 588.843 146.753C589.207 147.168 589.67 147.477 590.232 147.682C590.801 147.881 591.423 147.98 592.099 147.98C592.843 147.98 593.505 147.864 594.085 147.631C594.67 147.392 595.13 147.062 595.465 146.642C595.801 146.216 595.968 145.719 595.968 145.151C595.968 144.634 595.82 144.21 595.525 143.881C595.235 143.551 594.84 143.278 594.34 143.062C593.846 142.847 593.286 142.656 592.661 142.491L590.599 141.929C589.201 141.548 588.093 140.989 587.275 140.25C586.463 139.511 586.056 138.534 586.056 137.318C586.056 136.312 586.329 135.435 586.874 134.685C587.42 133.935 588.159 133.352 589.09 132.938C590.022 132.517 591.073 132.307 592.244 132.307C593.426 132.307 594.468 132.514 595.372 132.929C596.281 133.344 596.997 133.915 597.519 134.642C598.042 135.364 598.315 136.193 598.338 137.131H595.798ZM611.243 137.131C611.152 136.324 610.777 135.699 610.118 135.256C609.459 134.807 608.629 134.582 607.629 134.582C606.913 134.582 606.294 134.696 605.771 134.923C605.249 135.145 604.842 135.452 604.553 135.844C604.269 136.23 604.127 136.67 604.127 137.165C604.127 137.58 604.223 137.937 604.416 138.239C604.615 138.54 604.874 138.793 605.192 138.997C605.516 139.196 605.862 139.364 606.232 139.5C606.601 139.631 606.956 139.739 607.297 139.824L609.002 140.267C609.558 140.403 610.129 140.588 610.715 140.821C611.3 141.054 611.842 141.361 612.342 141.741C612.842 142.122 613.246 142.594 613.553 143.156C613.865 143.719 614.021 144.392 614.021 145.176C614.021 146.165 613.766 147.043 613.254 147.81C612.749 148.577 612.013 149.182 611.047 149.625C610.087 150.068 608.925 150.29 607.561 150.29C606.254 150.29 605.124 150.082 604.169 149.668C603.215 149.253 602.467 148.665 601.928 147.903C601.388 147.136 601.09 146.227 601.033 145.176H603.675C603.726 145.807 603.931 146.332 604.288 146.753C604.652 147.168 605.115 147.477 605.678 147.682C606.246 147.881 606.868 147.98 607.544 147.98C608.288 147.98 608.95 147.864 609.53 147.631C610.115 147.392 610.575 147.062 610.911 146.642C611.246 146.216 611.413 145.719 611.413 145.151C611.413 144.634 611.266 144.21 610.97 143.881C610.681 143.551 610.286 143.278 609.786 143.062C609.291 142.847 608.732 142.656 608.107 142.491L606.044 141.929C604.646 141.548 603.538 140.989 602.72 140.25C601.908 139.511 601.502 138.534 601.502 137.318C601.502 136.312 601.774 135.435 602.32 134.685C602.865 133.935 603.604 133.352 604.536 132.938C605.467 132.517 606.519 132.307 607.689 132.307C608.871 132.307 609.913 132.514 610.817 132.929C611.726 133.344 612.442 133.915 612.965 134.642C613.487 135.364 613.76 136.193 613.783 137.131H611.243ZM620.279 147.614L620.151 148.543C620.066 149.224 619.921 149.935 619.717 150.673C619.518 151.418 619.311 152.108 619.095 152.744C618.884 153.381 618.711 153.886 618.575 154.261H616.768C616.842 153.909 616.944 153.432 617.075 152.83C617.205 152.233 617.333 151.565 617.458 150.827C617.583 150.088 617.677 149.335 617.739 148.568L617.825 147.614H620.279ZM630.153 150V132.545H636.545C637.784 132.545 638.809 132.75 639.622 133.159C640.434 133.562 641.042 134.111 641.445 134.804C641.849 135.491 642.051 136.267 642.051 137.131C642.051 137.858 641.917 138.472 641.65 138.972C641.383 139.466 641.025 139.864 640.576 140.165C640.133 140.46 639.644 140.676 639.11 140.812V140.983C639.69 141.011 640.255 141.199 640.806 141.545C641.363 141.886 641.823 142.372 642.187 143.003C642.551 143.634 642.732 144.401 642.732 145.304C642.732 146.196 642.522 146.997 642.102 147.707C641.687 148.412 641.045 148.972 640.176 149.386C639.306 149.795 638.195 150 636.843 150H630.153ZM632.786 147.741H636.588C637.849 147.741 638.752 147.497 639.298 147.009C639.843 146.52 640.116 145.909 640.116 145.176C640.116 144.625 639.977 144.119 639.698 143.659C639.42 143.199 639.022 142.832 638.505 142.56C637.994 142.287 637.386 142.151 636.681 142.151H632.786V147.741ZM632.786 140.097H636.315C636.906 140.097 637.437 139.983 637.909 139.756C638.386 139.528 638.764 139.21 639.042 138.801C639.326 138.386 639.468 137.898 639.468 137.335C639.468 136.614 639.215 136.009 638.71 135.52C638.204 135.031 637.428 134.787 636.383 134.787H632.786V140.097ZM661.018 141.273C661.018 143.136 660.677 144.739 659.995 146.08C659.313 147.415 658.379 148.443 657.191 149.165C656.009 149.881 654.666 150.239 653.16 150.239C651.649 150.239 650.299 149.881 649.112 149.165C647.93 148.443 646.998 147.412 646.316 146.071C645.634 144.73 645.293 143.131 645.293 141.273C645.293 139.409 645.634 137.81 646.316 136.474C646.998 135.134 647.93 134.105 649.112 133.389C650.299 132.668 651.649 132.307 653.16 132.307C654.666 132.307 656.009 132.668 657.191 133.389C658.379 134.105 659.313 135.134 659.995 136.474C660.677 137.81 661.018 139.409 661.018 141.273ZM658.41 141.273C658.41 139.852 658.18 138.656 657.72 137.685C657.265 136.707 656.64 135.969 655.845 135.469C655.055 134.963 654.16 134.71 653.16 134.71C652.154 134.71 651.257 134.963 650.467 135.469C649.677 135.969 649.052 136.707 648.592 137.685C648.137 138.656 647.91 139.852 647.91 141.273C647.91 142.693 648.137 143.892 648.592 144.869C649.052 145.841 649.677 146.58 650.467 147.085C651.257 147.585 652.154 147.835 653.16 147.835C654.16 147.835 655.055 147.585 655.845 147.085C656.64 146.58 657.265 145.841 657.72 144.869C658.18 143.892 658.41 142.693 658.41 141.273ZM679.463 141.273C679.463 143.136 679.122 144.739 678.44 146.08C677.759 147.415 676.824 148.443 675.637 149.165C674.455 149.881 673.111 150.239 671.605 150.239C670.094 150.239 668.744 149.881 667.557 149.165C666.375 148.443 665.443 147.412 664.762 146.071C664.08 144.73 663.739 143.131 663.739 141.273C663.739 139.409 664.08 137.81 664.762 136.474C665.443 135.134 666.375 134.105 667.557 133.389C668.744 132.668 670.094 132.307 671.605 132.307C673.111 132.307 674.455 132.668 675.637 133.389C676.824 134.105 677.759 135.134 678.44 136.474C679.122 137.81 679.463 139.409 679.463 141.273ZM676.855 141.273C676.855 139.852 676.625 138.656 676.165 137.685C675.71 136.707 675.085 135.969 674.29 135.469C673.5 134.963 672.605 134.71 671.605 134.71C670.6 134.71 669.702 134.963 668.912 135.469C668.122 135.969 667.497 136.707 667.037 137.685C666.583 138.656 666.355 139.852 666.355 141.273C666.355 142.693 666.583 143.892 667.037 144.869C667.497 145.841 668.122 146.58 668.912 147.085C669.702 147.585 670.6 147.835 671.605 147.835C672.605 147.835 673.5 147.585 674.29 147.085C675.085 146.58 675.71 145.841 676.165 144.869C676.625 143.892 676.855 142.693 676.855 141.273ZM681.136 134.812V132.545H694.644V134.812H689.198V150H686.573V134.812H681.136ZM707.149 137.131C707.058 136.324 706.683 135.699 706.024 135.256C705.365 134.807 704.536 134.582 703.536 134.582C702.82 134.582 702.2 134.696 701.678 134.923C701.155 135.145 700.749 135.452 700.459 135.844C700.175 136.23 700.033 136.67 700.033 137.165C700.033 137.58 700.129 137.937 700.323 138.239C700.521 138.54 700.78 138.793 701.098 138.997C701.422 139.196 701.769 139.364 702.138 139.5C702.507 139.631 702.862 139.739 703.203 139.824L704.908 140.267C705.465 140.403 706.036 140.588 706.621 140.821C707.206 141.054 707.749 141.361 708.249 141.741C708.749 142.122 709.152 142.594 709.459 143.156C709.771 143.719 709.928 144.392 709.928 145.176C709.928 146.165 709.672 147.043 709.161 147.81C708.655 148.577 707.919 149.182 706.953 149.625C705.993 150.068 704.831 150.29 703.467 150.29C702.161 150.29 701.03 150.082 700.075 149.668C699.121 149.253 698.374 148.665 697.834 147.903C697.294 147.136 696.996 146.227 696.939 145.176H699.581C699.632 145.807 699.837 146.332 700.195 146.753C700.558 147.168 701.021 147.477 701.584 147.682C702.152 147.881 702.774 147.98 703.45 147.98C704.195 147.98 704.857 147.864 705.436 147.631C706.021 147.392 706.482 147.062 706.817 146.642C707.152 146.216 707.32 145.719 707.32 145.151C707.32 144.634 707.172 144.21 706.877 143.881C706.587 143.551 706.192 143.278 705.692 143.062C705.198 142.847 704.638 142.656 704.013 142.491L701.95 141.929C700.553 141.548 699.445 140.989 698.627 140.25C697.814 139.511 697.408 138.534 697.408 137.318C697.408 136.312 697.681 135.435 698.226 134.685C698.771 133.935 699.51 133.352 700.442 132.938C701.374 132.517 702.425 132.307 703.595 132.307C704.777 132.307 705.82 132.514 706.723 132.929C707.632 133.344 708.348 133.915 708.871 134.642C709.394 135.364 709.666 136.193 709.689 137.131H707.149ZM712.214 134.812V132.545H725.722V134.812H720.276V150H717.651V134.812H712.214ZM728.708 150V132.545H734.929C736.281 132.545 737.404 132.778 738.296 133.244C739.193 133.71 739.864 134.355 740.307 135.179C740.75 135.997 740.972 136.943 740.972 138.017C740.972 139.085 740.747 140.026 740.298 140.838C739.855 141.645 739.185 142.273 738.287 142.722C737.395 143.17 736.273 143.395 734.921 143.395H730.208V141.128H734.682C735.534 141.128 736.227 141.006 736.762 140.761C737.301 140.517 737.696 140.162 737.946 139.696C738.196 139.23 738.321 138.67 738.321 138.017C738.321 137.358 738.193 136.787 737.938 136.304C737.688 135.821 737.293 135.452 736.753 135.196C736.219 134.935 735.517 134.804 734.648 134.804H731.341V150H728.708ZM737.324 142.125L741.637 150H738.637L734.409 142.125H737.324ZM745.651 150H742.855L749.137 132.545H752.179L758.46 150H755.665L750.73 135.716H750.594L745.651 150ZM746.119 143.165H755.188V145.381H746.119V143.165ZM760.981 150V132.545H767.203C768.561 132.545 769.686 132.793 770.578 133.287C771.47 133.781 772.137 134.457 772.58 135.315C773.024 136.168 773.245 137.128 773.245 138.196C773.245 139.27 773.021 140.236 772.572 141.094C772.129 141.946 771.458 142.622 770.561 143.122C769.668 143.616 768.546 143.864 767.194 143.864H762.916V141.631H766.955C767.813 141.631 768.509 141.483 769.043 141.188C769.578 140.886 769.97 140.477 770.22 139.96C770.47 139.443 770.595 138.855 770.595 138.196C770.595 137.537 770.47 136.952 770.22 136.44C769.97 135.929 769.575 135.528 769.035 135.239C768.501 134.949 767.796 134.804 766.921 134.804H763.614V150H760.981ZM778.482 147.614L778.355 148.543C778.269 149.224 778.124 149.935 777.92 150.673C777.721 151.418 777.514 152.108 777.298 152.744C777.088 153.381 776.914 153.886 776.778 154.261H774.971C775.045 153.909 775.147 153.432 775.278 152.83C775.409 152.233 775.536 151.565 775.661 150.827C775.786 150.088 775.88 149.335 775.943 148.568L776.028 147.614H778.482ZM788.356 150V132.545H794.578C795.936 132.545 797.061 132.793 797.953 133.287C798.845 133.781 799.512 134.457 799.955 135.315C800.399 136.168 800.62 137.128 800.62 138.196C800.62 139.27 800.396 140.236 799.947 141.094C799.504 141.946 798.833 142.622 797.936 143.122C797.043 143.616 795.921 143.864 794.569 143.864H790.291V141.631H794.33C795.188 141.631 795.884 141.483 796.418 141.188C796.953 140.886 797.345 140.477 797.595 139.96C797.845 139.443 797.97 138.855 797.97 138.196C797.97 137.537 797.845 136.952 797.595 136.44C797.345 135.929 796.95 135.528 796.41 135.239C795.876 134.949 795.171 134.804 794.296 134.804H790.989V150H788.356ZM802.361 132.545H805.352L809.912 140.48H810.1L814.659 132.545H817.651L811.318 143.148V150H808.693V143.148L802.361 132.545ZM820.378 134.812V132.545H833.887V134.812H828.44V150H825.815V134.812H820.378ZM836.872 150V132.545H839.505V140.131H848.207V132.545H850.849V150H848.207V142.389H839.505V150H836.872ZM869.846 141.273C869.846 143.136 869.505 144.739 868.823 146.08C868.141 147.415 867.207 148.443 866.019 149.165C864.838 149.881 863.494 150.239 861.988 150.239C860.477 150.239 859.127 149.881 857.94 149.165C856.758 148.443 855.826 147.412 855.144 146.071C854.463 144.73 854.122 143.131 854.122 141.273C854.122 139.409 854.463 137.81 855.144 136.474C855.826 135.134 856.758 134.105 857.94 133.389C859.127 132.668 860.477 132.307 861.988 132.307C863.494 132.307 864.838 132.668 866.019 133.389C867.207 134.105 868.141 135.134 868.823 136.474C869.505 137.81 869.846 139.409 869.846 141.273ZM867.238 141.273C867.238 139.852 867.008 138.656 866.548 137.685C866.093 136.707 865.468 135.969 864.673 135.469C863.883 134.963 862.988 134.71 861.988 134.71C860.982 134.71 860.085 134.963 859.295 135.469C858.505 135.969 857.88 136.707 857.42 137.685C856.965 138.656 856.738 139.852 856.738 141.273C856.738 142.693 856.965 143.892 857.42 144.869C857.88 145.841 858.505 146.58 859.295 147.085C860.085 147.585 860.982 147.835 861.988 147.835C862.988 147.835 863.883 147.585 864.673 147.085C865.468 146.58 866.093 145.841 866.548 144.869C867.008 143.892 867.238 142.693 867.238 141.273ZM887.217 132.545V150H884.797L875.925 137.199H875.763V150H873.129V132.545H875.567L884.448 145.364H884.61V132.545H887.217ZM894.17 147.614L894.042 148.543C893.957 149.224 893.812 149.935 893.607 150.673C893.409 151.418 893.201 152.108 892.985 152.744C892.775 153.381 892.602 153.886 892.465 154.261H890.659C890.732 153.909 890.835 153.432 890.965 152.83C891.096 152.233 891.224 151.565 891.349 150.827C891.474 150.088 891.568 149.335 891.63 148.568L891.715 147.614H894.17ZM414.352 179V161.545H420.574C421.932 161.545 423.057 161.793 423.949 162.287C424.841 162.781 425.508 163.457 425.951 164.315C426.395 165.168 426.616 166.128 426.616 167.196C426.616 168.27 426.392 169.236 425.943 170.094C425.5 170.946 424.829 171.622 423.932 172.122C423.04 172.616 421.917 172.864 420.565 172.864H416.287V170.631H420.326C421.184 170.631 421.88 170.483 422.415 170.188C422.949 169.886 423.341 169.477 423.591 168.96C423.841 168.443 423.966 167.855 423.966 167.196C423.966 166.537 423.841 165.952 423.591 165.44C423.341 164.929 422.946 164.528 422.406 164.239C421.872 163.949 421.167 163.804 420.292 163.804H416.986V179H414.352ZM429.704 179V161.545H432.337V169.131H441.039V161.545H443.681V179H441.039V171.389H432.337V179H429.704ZM447.516 179V161.545H453.738C455.096 161.545 456.221 161.793 457.113 162.287C458.005 162.781 458.672 163.457 459.116 164.315C459.559 165.168 459.78 166.128 459.78 167.196C459.78 168.27 459.556 169.236 459.107 170.094C458.664 170.946 457.993 171.622 457.096 172.122C456.204 172.616 455.081 172.864 453.729 172.864H449.451V170.631H453.491C454.348 170.631 455.045 170.483 455.579 170.188C456.113 169.886 456.505 169.477 456.755 168.96C457.005 168.443 457.13 167.855 457.13 167.196C457.13 166.537 457.005 165.952 456.755 165.44C456.505 164.929 456.11 164.528 455.57 164.239C455.036 163.949 454.331 163.804 453.456 163.804H450.15V179H447.516ZM465.018 176.614L464.89 177.543C464.804 178.224 464.66 178.935 464.455 179.673C464.256 180.418 464.049 181.108 463.833 181.744C463.623 182.381 463.449 182.886 463.313 183.261H461.506C461.58 182.909 461.682 182.432 461.813 181.83C461.944 181.233 462.071 180.565 462.196 179.827C462.321 179.088 462.415 178.335 462.478 177.568L462.563 176.614H465.018ZM474.891 161.545H478.087L483.644 175.114H483.848L489.405 161.545H492.601V179H490.096V166.369H489.934L484.786 178.974H482.706L477.559 166.361H477.397V179H474.891V161.545ZM495.084 161.545H498.075L502.635 169.48H502.822L507.382 161.545H510.373L504.041 172.148V179H501.416V172.148L495.084 161.545ZM522.38 166.131C522.289 165.324 521.914 164.699 521.255 164.256C520.596 163.807 519.766 163.582 518.766 163.582C518.05 163.582 517.431 163.696 516.908 163.923C516.385 164.145 515.979 164.452 515.689 164.844C515.405 165.23 515.263 165.67 515.263 166.165C515.263 166.58 515.36 166.937 515.553 167.239C515.752 167.54 516.01 167.793 516.329 167.997C516.652 168.196 516.999 168.364 517.368 168.5C517.738 168.631 518.093 168.739 518.434 168.824L520.138 169.267C520.695 169.403 521.266 169.588 521.851 169.821C522.437 170.054 522.979 170.361 523.479 170.741C523.979 171.122 524.383 171.594 524.689 172.156C525.002 172.719 525.158 173.392 525.158 174.176C525.158 175.165 524.902 176.043 524.391 176.81C523.885 177.577 523.15 178.182 522.184 178.625C521.223 179.068 520.062 179.29 518.698 179.29C517.391 179.29 516.26 179.082 515.306 178.668C514.351 178.253 513.604 177.665 513.064 176.903C512.525 176.136 512.226 175.227 512.17 174.176H514.812C514.863 174.807 515.067 175.332 515.425 175.753C515.789 176.168 516.252 176.477 516.814 176.682C517.383 176.881 518.005 176.98 518.681 176.98C519.425 176.98 520.087 176.864 520.667 176.631C521.252 176.392 521.712 176.062 522.047 175.642C522.383 175.216 522.55 174.719 522.55 174.151C522.55 173.634 522.402 173.21 522.107 172.881C521.817 172.551 521.422 172.278 520.922 172.062C520.428 171.847 519.868 171.656 519.243 171.491L517.181 170.929C515.783 170.548 514.675 169.989 513.857 169.25C513.045 168.511 512.638 167.534 512.638 166.318C512.638 165.312 512.911 164.435 513.456 163.685C514.002 162.935 514.741 162.352 515.672 161.938C516.604 161.517 517.655 161.307 518.826 161.307C520.008 161.307 521.05 161.514 521.954 161.929C522.863 162.344 523.579 162.915 524.101 163.642C524.624 164.364 524.897 165.193 524.92 166.131H522.38ZM534.723 173.341H537.314L539.138 175.719L539.998 176.776L542.905 180.568H540.211L538.268 178.037L537.603 177.116L534.723 173.341ZM543.467 170.273C543.467 172.136 543.126 173.739 542.444 175.08C541.763 176.415 540.828 177.443 539.64 178.165C538.459 178.881 537.115 179.239 535.609 179.239C534.098 179.239 532.748 178.881 531.561 178.165C530.379 177.443 529.447 176.412 528.765 175.071C528.084 173.73 527.743 172.131 527.743 170.273C527.743 168.409 528.084 166.81 528.765 165.474C529.447 164.134 530.379 163.105 531.561 162.389C532.748 161.668 534.098 161.307 535.609 161.307C537.115 161.307 538.459 161.668 539.64 162.389C540.828 163.105 541.763 164.134 542.444 165.474C543.126 166.81 543.467 168.409 543.467 170.273ZM540.859 170.273C540.859 168.852 540.629 167.656 540.169 166.685C539.714 165.707 539.089 164.969 538.294 164.469C537.504 163.963 536.609 163.71 535.609 163.71C534.603 163.71 533.706 163.963 532.916 164.469C532.126 164.969 531.501 165.707 531.041 166.685C530.586 167.656 530.359 168.852 530.359 170.273C530.359 171.693 530.586 172.892 531.041 173.869C531.501 174.841 532.126 175.58 532.916 176.085C533.706 176.585 534.603 176.835 535.609 176.835C536.609 176.835 537.504 176.585 538.294 176.085C539.089 175.58 539.714 174.841 540.169 173.869C540.629 172.892 540.859 171.693 540.859 170.273ZM546.75 179V161.545H549.384V176.733H557.293V179H546.75Z" fill="white"/>
<path d="M768.588 62.8182V60.1591L774.801 54.4062C775.33 53.8949 775.773 53.4347 776.131 53.0256C776.495 52.6165 776.77 52.2159 776.958 51.8239C777.145 51.4261 777.239 50.9972 777.239 50.5369C777.239 50.0256 777.122 49.5852 776.889 49.2159C776.657 48.8409 776.338 48.554 775.935 48.3551C775.532 48.1506 775.074 48.0483 774.563 48.0483C774.029 48.0483 773.563 48.1562 773.165 48.3722C772.767 48.5881 772.461 48.8977 772.245 49.3011C772.029 49.7045 771.921 50.1847 771.921 50.7415H768.418C768.418 49.5994 768.676 48.6079 769.193 47.767C769.711 46.9261 770.435 46.2756 771.367 45.8153C772.299 45.3551 773.372 45.125 774.588 45.125C775.838 45.125 776.926 45.3466 777.853 45.7898C778.784 46.2273 779.509 46.8352 780.026 47.6136C780.543 48.392 780.801 49.2841 780.801 50.2898C780.801 50.9489 780.671 51.5994 780.409 52.2415C780.154 52.8835 779.696 53.5966 779.037 54.3807C778.378 55.1591 777.449 56.0937 776.25 57.1847L773.702 59.6818V59.8011H781.032V62.8182H768.588ZM790.549 63.2017C789.083 63.196 787.822 62.8352 786.765 62.1193C785.714 61.4034 784.904 60.3665 784.336 59.0085C783.774 57.6506 783.495 56.017 783.501 54.1079C783.501 52.2045 783.782 50.5824 784.345 49.2415C784.913 47.9006 785.723 46.8807 786.774 46.1818C787.831 45.4773 789.089 45.125 790.549 45.125C792.01 45.125 793.265 45.4773 794.316 46.1818C795.373 46.8864 796.186 47.9091 796.754 49.25C797.322 50.5852 797.603 52.2045 797.598 54.1079C797.598 56.0227 797.313 57.6591 796.745 59.017C796.183 60.375 795.376 61.4119 794.325 62.1278C793.274 62.8437 792.015 63.2017 790.549 63.2017ZM790.549 60.142C791.549 60.142 792.348 59.6392 792.944 58.6335C793.541 57.6278 793.836 56.1193 793.831 54.1079C793.831 52.7841 793.694 51.6818 793.421 50.8011C793.154 49.9204 792.774 49.2585 792.279 48.8153C791.791 48.3722 791.214 48.1506 790.549 48.1506C789.555 48.1506 788.76 48.6477 788.163 49.642C787.566 50.6364 787.265 52.125 787.26 54.1079C787.26 55.4489 787.393 56.5682 787.66 57.4659C787.933 58.3579 788.316 59.0284 788.811 59.4773C789.305 59.9204 789.885 60.142 790.549 60.142ZM800.229 62.8182V60.1591L806.442 54.4062C806.97 53.8949 807.414 53.4347 807.772 53.0256C808.135 52.6165 808.411 52.2159 808.598 51.8239C808.786 51.4261 808.88 50.9972 808.88 50.5369C808.88 50.0256 808.763 49.5852 808.53 49.2159C808.297 48.8409 807.979 48.554 807.576 48.3551C807.172 48.1506 806.715 48.0483 806.203 48.0483C805.669 48.0483 805.203 48.1562 804.806 48.3722C804.408 48.5881 804.101 48.8977 803.885 49.3011C803.669 49.7045 803.561 50.1847 803.561 50.7415H800.059C800.059 49.5994 800.317 48.6079 800.834 47.767C801.351 46.9261 802.076 46.2756 803.007 45.8153C803.939 45.3551 805.013 45.125 806.229 45.125C807.479 45.125 808.567 45.3466 809.493 45.7898C810.425 46.2273 811.149 46.8352 811.666 47.6136C812.184 48.392 812.442 49.2841 812.442 50.2898C812.442 50.9489 812.311 51.5994 812.05 52.2415C811.794 52.8835 811.337 53.5966 810.678 54.3807C810.019 55.1591 809.09 56.0937 807.891 57.1847L805.343 59.6818V59.8011H812.672V62.8182H800.229ZM822.94 45.3636V62.8182H819.25V48.8665H819.147L815.15 51.3722V48.0994L819.471 45.3636H822.94ZM840.833 52.6506V55.5312H832.873V52.6506H840.833ZM849.448 62.8182V60.1591L855.661 54.4062C856.189 53.8949 856.632 53.4347 856.99 53.0256C857.354 52.6165 857.63 52.2159 857.817 51.8239C858.005 51.4261 858.098 50.9972 858.098 50.5369C858.098 50.0256 857.982 49.5852 857.749 49.2159C857.516 48.8409 857.198 48.554 856.794 48.3551C856.391 48.1506 855.934 48.0483 855.422 48.0483C854.888 48.0483 854.422 48.1562 854.024 48.3722C853.627 48.5881 853.32 48.8977 853.104 49.3011C852.888 49.7045 852.78 50.1847 852.78 50.7415H849.277C849.277 49.5994 849.536 48.6079 850.053 47.767C850.57 46.9261 851.294 46.2756 852.226 45.8153C853.158 45.3551 854.232 45.125 855.448 45.125C856.698 45.125 857.786 45.3466 858.712 45.7898C859.644 46.2273 860.368 46.8352 860.885 47.6136C861.402 48.392 861.661 49.2841 861.661 50.2898C861.661 50.9489 861.53 51.5994 861.269 52.2415C861.013 52.8835 860.556 53.5966 859.897 54.3807C859.238 55.1591 858.309 56.0937 857.11 57.1847L854.561 59.6818V59.8011H861.891V62.8182H849.448ZM871.409 63.2017C869.943 63.196 868.681 62.8352 867.625 62.1193C866.573 61.4034 865.764 60.3665 865.196 59.0085C864.633 57.6506 864.355 56.017 864.36 54.1079C864.36 52.2045 864.642 50.5824 865.204 49.2415C865.772 47.9006 866.582 46.8807 867.633 46.1818C868.69 45.4773 869.948 45.125 871.409 45.125C872.869 45.125 874.125 45.4773 875.176 46.1818C876.233 46.8864 877.045 47.9091 877.613 49.25C878.181 50.5852 878.463 52.2045 878.457 54.1079C878.457 56.0227 878.173 57.6591 877.605 59.017C877.042 60.375 876.235 61.4119 875.184 62.1278C874.133 62.8437 872.875 63.2017 871.409 63.2017ZM871.409 60.142C872.409 60.142 873.207 59.6392 873.804 58.6335C874.4 57.6278 874.696 56.1193 874.69 54.1079C874.69 52.7841 874.554 51.6818 874.281 50.8011C874.014 49.9204 873.633 49.2585 873.139 48.8153C872.65 48.3722 872.073 48.1506 871.409 48.1506C870.414 48.1506 869.619 48.6477 869.022 49.642C868.426 50.6364 868.125 52.125 868.119 54.1079C868.119 55.4489 868.252 56.5682 868.519 57.4659C868.792 58.3579 869.176 59.0284 869.67 59.4773C870.164 59.9204 870.744 60.142 871.409 60.142ZM881.088 62.8182V60.1591L887.301 54.4062C887.83 53.8949 888.273 53.4347 888.631 53.0256C888.995 52.6165 889.27 52.2159 889.458 51.8239C889.645 51.4261 889.739 50.9972 889.739 50.5369C889.739 50.0256 889.622 49.5852 889.389 49.2159C889.157 48.8409 888.838 48.554 888.435 48.3551C888.032 48.1506 887.574 48.0483 887.063 48.0483C886.529 48.0483 886.063 48.1562 885.665 48.3722C885.267 48.5881 884.961 48.8977 884.745 49.3011C884.529 49.7045 884.421 50.1847 884.421 50.7415H880.918C880.918 49.5994 881.176 48.6079 881.693 47.767C882.211 46.9261 882.935 46.2756 883.867 45.8153C884.799 45.3551 885.872 45.125 887.088 45.125C888.338 45.125 889.426 45.3466 890.353 45.7898C891.284 46.2273 892.009 46.8352 892.526 47.6136C893.043 48.392 893.301 49.2841 893.301 50.2898C893.301 50.9489 893.171 51.5994 892.909 52.2415C892.654 52.8835 892.196 53.5966 891.537 54.3807C890.878 55.1591 889.949 56.0937 888.75 57.1847L886.202 59.6818V59.8011H893.532V62.8182H881.088ZM896.206 62.8182V60.1591L902.419 54.4062C902.947 53.8949 903.39 53.4347 903.748 53.0256C904.112 52.6165 904.387 52.2159 904.575 51.8239C904.762 51.4261 904.856 50.9972 904.856 50.5369C904.856 50.0256 904.74 49.5852 904.507 49.2159C904.274 48.8409 903.956 48.554 903.552 48.3551C903.149 48.1506 902.691 48.0483 902.18 48.0483C901.646 48.0483 901.18 48.1562 900.782 48.3722C900.385 48.5881 900.078 48.8977 899.862 49.3011C899.646 49.7045 899.538 50.1847 899.538 50.7415H896.035C896.035 49.5994 896.294 48.6079 896.811 47.767C897.328 46.9261 898.052 46.2756 898.984 45.8153C899.916 45.3551 900.99 45.125 902.206 45.125C903.456 45.125 904.544 45.3466 905.47 45.7898C906.402 46.2273 907.126 46.8352 907.643 47.6136C908.16 48.392 908.419 49.2841 908.419 50.2898C908.419 50.9489 908.288 51.5994 908.027 52.2415C907.771 52.8835 907.313 53.5966 906.654 54.3807C905.995 55.1591 905.066 56.0937 903.867 57.1847L901.319 59.6818V59.8011H908.649V62.8182H896.206Z" fill="white"/>
<defs>
<linearGradient id="paint0_linear_65_710" x1="533" y1="5" x2="533" y2="205" gradientUnits="userSpaceOnUse">
<stop stop-color="#100892"/>
<stop offset="0.375" stop-color="#F653E9"/>
<stop offset="0.723958" stop-color="#FFB6F9"/>
<stop offset="1" stop-color="#8962BA"/>
</linearGradient>
</defs>
</svg>
