<svg width="550" height="345" viewBox="0 0 550 345" fill="none" xmlns="http://www.w3.org/2000/svg">
<rect x="2.5" y="2.5" width="545" height="340" rx="52.5" fill="black" fill-opacity="0.6"/>
<path d="M29.8502 294.395L31.6734 300.182C32.0831 301.495 32.2539 302.413 32.1855 302.935C33.1826 300.323 33.8794 297.476 34.2758 294.395H36.4681C35.5254 299.411 34.2821 303.056 32.7388 305.33C31.5363 307.083 30.219 307.959 28.7846 307.959C28.4021 307.959 27.9306 307.846 27.3711 307.621V306.412C27.6444 306.451 27.9652 306.472 28.334 306.472C29.0032 306.472 29.5426 306.291 29.9529 305.929C30.4442 305.488 30.6902 304.992 30.6902 304.442C30.6902 304.067 30.4984 303.297 30.1165 302.132L27.5761 294.395H29.8502ZM15.8961 290.839L19.2356 300.805H19.2562L22.6162 290.839H25.3614C25.9625 295.781 26.3176 300.303 26.4265 304.403H24.1121C24.0306 300.571 23.8051 296.967 23.4362 293.592H23.4161L19.8917 304.403H18.1291L14.626 293.592H14.6054C14.3455 296.834 14.1819 300.437 14.1137 304.403H12.0032C12.1396 299.58 12.4809 295.059 13.0272 290.839H15.8961Z" fill="#00758F"/>
<path d="M53.3073 290.637C56.8995 290.637 58.6957 292.882 58.6957 297.37C58.6957 299.808 58.1555 301.65 57.0762 302.894C56.8817 303.122 56.6667 303.318 56.4403 303.5L58.9824 304.73L58.98 304.73L58.0774 306.254L54.7668 304.365C54.2181 304.524 53.6143 304.603 52.9563 304.603C51.1925 304.603 49.875 304.1 49.0039 303.096C48.0477 301.985 47.5699 300.236 47.5699 297.852C47.5699 295.427 48.1091 293.592 49.1888 292.346C50.1721 291.206 51.5452 290.637 53.3073 290.637ZM42.3068 290.657C43.5907 290.657 44.7582 290.993 45.8097 291.663L45.2756 292.827C44.3758 292.453 43.4887 292.265 42.6138 292.265C41.904 292.265 41.357 292.432 40.9757 292.768C40.5923 293.102 40.3552 293.53 40.3552 294.053C40.3552 294.857 40.9403 295.553 42.0208 296.142C42.3748 296.331 42.7275 296.523 43.079 296.716L43.2808 296.827L43.4017 296.894C44.2196 297.345 44.9892 297.776 44.9892 297.776C46.0696 298.526 46.6081 299.326 46.6081 300.643C46.6081 301.793 46.1771 302.737 45.318 303.476C44.4583 304.212 43.3033 304.581 41.8569 304.581C40.5041 304.581 39.193 304.156 37.9231 303.314L38.5172 302.149C39.6101 302.685 40.599 302.953 41.4871 302.953C42.32 302.953 42.9719 302.771 43.4436 302.411C43.9143 302.05 44.1963 301.545 44.1963 300.905C44.1963 300.1 43.6235 299.411 42.5728 298.834C42.244 298.656 41.9161 298.477 41.5891 298.295L41.5086 298.251C41.3608 298.169 41.2118 298.086 41.066 298.005L40.9869 297.961C40.2774 297.567 39.664 297.222 39.664 297.222C38.6136 296.47 38.0869 295.664 38.0869 294.335C38.0869 293.236 38.4797 292.348 39.264 291.673C40.0503 290.996 41.0647 290.657 42.3068 290.657ZM62.9174 290.839V302.734H67.2808V304.403H60.7044V290.839H62.9174ZM69.7054 302.739V303.021H69.2257V304.401H68.8589V303.021H68.3606V302.739H69.7054ZM70.5912 302.739L71.0518 303.872L71.475 302.739H71.9949V304.401H71.6492V303.136L71.1676 304.401H70.9184L70.436 303.136H70.4175V304.401H70.0904V302.739H70.5912ZM53.0814 292.305C50.9645 292.305 49.9054 294.014 49.9054 297.43C49.9054 299.386 50.1861 300.805 50.7463 301.689C51.2651 302.507 52.0777 302.916 53.1842 302.916C55.3011 302.916 56.36 301.194 56.36 297.751C56.36 295.822 56.0794 294.415 55.5199 293.531C55.0005 292.714 54.1881 292.305 53.0814 292.305Z" fill="#F29111"/>
<path d="M47.5329 268.84C48.2351 267.153 50.6905 268.431 51.6434 269.02C51.8769 269.168 52.1448 269.48 52.4125 269.595C52.8303 269.611 53.2476 269.643 53.6661 269.66C54.4509 269.84 55.1861 269.988 55.8045 270.332C58.6786 271.988 60.5495 273.675 62.2714 276.462C62.6394 277.052 62.8232 277.691 63.1238 278.329C63.5409 279.281 64.0096 280.281 64.4938 281.181C64.7105 281.608 64.8782 282.083 65.1793 282.443C65.2968 282.608 65.6306 282.656 65.8302 282.755C66.3818 283.034 67.0502 283.246 67.569 283.574C68.538 284.165 69.4748 284.869 70.3264 285.59C70.6438 285.868 70.8601 286.262 71.1626 286.557V286.705C70.8941 286.786 70.6266 286.868 70.3589 286.934C69.774 287.081 69.256 287.048 68.6887 287.195C68.3381 287.295 67.9028 287.426 67.5351 287.459L67.569 287.493C67.7853 288.097 68.9557 288.589 69.491 288.95C70.141 289.409 70.7434 289.966 71.2283 290.605C71.3958 290.768 71.5632 290.917 71.7298 291.079C71.8463 291.244 71.8791 291.457 71.997 291.604V291.654C71.8665 291.609 71.7726 291.523 71.6837 291.433L71.6306 291.379C71.5775 291.325 71.5239 291.272 71.4629 291.228C71.094 290.982 70.7277 290.687 70.3589 290.458C69.7247 290.065 68.9892 289.836 68.3381 289.441C67.9699 289.212 67.619 288.95 67.268 288.688C66.9499 288.458 66.5995 288.016 66.3996 287.688C66.2819 287.507 66.2657 287.295 66.1312 287.164C66.1552 286.945 66.3601 286.88 66.567 286.826L66.6145 286.814C66.6859 286.796 66.7557 286.778 66.8167 286.754C67.6854 286.393 68.7211 286.262 70.0586 286.295C70.0082 285.967 69.1725 285.557 68.9057 285.361C68.3702 284.983 67.8032 284.589 67.2351 284.246C66.9341 284.066 66.4153 283.934 66.0819 283.787C65.6306 283.607 64.6277 283.426 64.3777 283.083C63.9529 282.541 63.6478 281.895 63.3515 281.243L63.2709 281.064C63.244 281.005 63.2171 280.946 63.1901 280.886C62.84 280.101 62.405 279.281 62.0541 278.476C61.8706 278.084 61.7863 277.739 61.5854 277.363C60.3659 275.053 58.5611 273.118 56.3728 271.758C55.6537 271.315 54.8519 270.906 53.9667 270.627C53.4651 270.479 52.8631 270.561 52.3286 270.447H51.9769C51.6767 270.364 51.426 270.053 51.1918 269.889C50.6745 269.545 50.1563 269.315 49.5376 269.07C49.3208 268.971 48.7018 268.742 48.4857 268.923C48.3519 268.955 48.2841 269.005 48.2512 269.136C48.118 269.332 48.2351 269.627 48.3179 269.808C48.5689 270.332 48.9195 270.643 49.2378 271.086C49.5209 271.478 49.8725 271.921 50.0732 272.348C50.5063 273.265 50.708 274.282 51.1093 275.199C51.2581 275.544 51.4935 275.937 51.7102 276.248C51.8938 276.495 52.2276 276.673 52.3286 276.986C52.5299 277.314 52.0272 278.396 51.9109 278.739C51.4756 280.083 51.56 281.951 52.0612 283.116L52.0879 283.178L52.1147 283.24C52.2977 283.667 52.4936 284.126 52.9802 284.246C53.0137 284.213 52.9802 284.23 53.0467 284.213C53.1644 283.311 53.1976 282.443 53.5154 281.737C53.699 281.296 54.0656 280.984 54.317 280.624C54.4845 280.722 54.4845 281.018 54.5844 281.214C54.8018 281.722 55.0354 282.278 55.3035 282.788C55.8537 283.836 56.4729 284.853 57.1744 285.77C57.4094 286.098 57.7427 286.459 58.0434 286.754C58.1773 286.868 58.3273 286.934 58.428 287.081H58.4608V287.131C57.9595 286.95 57.6417 286.443 57.2419 286.146C56.4892 285.59 55.5877 284.754 55.0689 283.952C54.8519 283.491 54.6173 283.05 54.3834 282.592V282.558C54.2835 282.689 54.317 282.819 54.2669 283.017C54.0499 283.836 54.217 284.77 53.4651 285.065C52.6128 285.41 51.977 284.508 51.7102 284.099C50.8576 282.739 50.6241 280.444 51.2253 278.592C51.3589 278.182 51.377 277.691 51.6102 277.363C51.5598 277.067 51.3267 276.986 51.1918 276.805C50.9579 276.495 50.7576 276.134 50.5745 275.79C50.2227 275.118 49.9725 274.314 49.7054 273.593C49.588 273.299 49.5544 273.003 49.4373 272.724C49.2377 272.299 48.8696 271.872 48.5857 271.496C48.2012 270.955 47.0815 269.906 47.5329 268.84ZM53.0134 272.051C53.058 272.095 53.1119 272.133 53.1677 272.171L53.235 272.216C53.3246 272.277 53.4114 272.341 53.4646 272.428C53.549 272.543 53.5647 272.657 53.6657 272.773C53.6657 273.167 53.549 273.429 53.3134 273.592C53.3134 273.592 53.2973 273.609 53.2808 273.625C53.1472 273.362 53.0302 273.101 52.8956 272.839C52.7299 272.61 52.4957 272.428 52.3607 272.167H52.3283V272.134C52.5299 272.085 52.7299 272.051 53.0134 272.051Z" fill="#00758F"/>
<path d="M35 229C35 234.81 43.9544 239.521 55 239.521C66.0456 239.521 75 234.81 75 229C75 223.19 66.0453 218.479 55 218.479C43.9544 218.479 35 223.19 35 229Z" fill="url(#paint0_radial_82_186)"/>
<path d="M55 238.74C65.6141 238.74 74.2188 234.379 74.2188 229C74.2188 223.621 65.6141 219.26 55 219.26C44.3859 219.26 35.7812 223.621 35.7812 229C35.7812 234.379 44.3859 238.74 55 238.74Z" fill="#777BB3"/>
<path d="M45.8663 230.207C46.7391 230.207 47.3903 230.047 47.8025 229.729C48.2106 229.415 48.4922 228.871 48.64 228.112C48.7775 227.403 48.725 226.908 48.4838 226.64C48.2375 226.367 47.7047 226.229 46.9003 226.229H45.5053L44.7325 230.207H45.8663ZM41.3041 235.108C41.2721 235.108 41.2405 235.101 41.2115 235.088C41.1826 235.074 41.1571 235.054 41.1368 235.029C41.1164 235.004 41.1019 234.975 41.094 234.944C41.0862 234.913 41.0854 234.881 41.0916 234.85L43.1406 224.307C43.1503 224.257 43.1768 224.213 43.2155 224.181C43.2543 224.149 43.3029 224.131 43.3531 224.131H47.77C49.1581 224.131 50.1913 224.508 50.8409 225.252C51.4934 225.998 51.6953 227.043 51.44 228.356C51.3359 228.891 51.1572 229.387 50.9088 229.832C50.6501 230.29 50.3202 230.704 49.9313 231.057C49.4528 231.505 48.9113 231.83 48.3228 232.021C47.7441 232.21 47.0003 232.305 46.1134 232.305H44.3247L43.8141 234.933C43.8044 234.982 43.7779 235.027 43.739 235.059C43.7001 235.091 43.6513 235.108 43.6009 235.108H41.3041Z" fill="black"/>
<path d="M45.6844 226.446H46.9003C47.8713 226.446 48.2084 226.659 48.3231 226.786C48.5128 226.997 48.5491 227.441 48.4266 228.071C48.2894 228.776 48.035 229.277 47.6703 229.557C47.2972 229.845 46.6897 229.99 45.8663 229.99H44.9956L45.6844 226.446ZM47.77 223.914H43.3534C43.2527 223.914 43.1551 223.949 43.0774 224.013C42.9996 224.077 42.9465 224.166 42.9272 224.265L40.8781 234.809C40.866 234.871 40.8679 234.936 40.8837 234.998C40.8995 235.06 40.9288 235.118 40.9695 235.167C41.0102 235.217 41.0613 235.256 41.1191 235.284C41.177 235.311 41.2401 235.325 41.3041 235.325H43.6009C43.7016 235.325 43.7992 235.29 43.8769 235.226C43.9546 235.162 44.0076 235.073 44.0269 234.974L44.5034 232.522H46.1131C47.0231 232.522 47.7894 232.423 48.3903 232.227C49.0081 232.027 49.5766 231.686 50.0797 231.216C50.4848 230.847 50.8286 230.415 51.0981 229.938C51.3578 229.474 51.5447 228.955 51.6528 228.397C51.9216 227.015 51.7031 225.909 51.0041 225.109C50.3116 224.316 49.2234 223.914 47.77 223.914ZM44.4691 230.424H45.8663C46.7922 230.424 47.4819 230.25 47.935 229.901C48.3884 229.552 48.6938 228.969 48.8531 228.153C49.0047 227.37 48.9356 226.817 48.6453 226.495C48.3544 226.173 47.7731 226.012 46.9003 226.012H45.3266L44.4691 230.424ZM47.7703 224.347C49.0991 224.347 50.0681 224.697 50.6775 225.394C51.2869 226.091 51.47 227.065 51.2275 228.314C51.1269 228.829 50.9578 229.3 50.7197 229.726C50.4809 230.153 50.1697 230.543 49.785 230.897C49.3263 231.326 48.8172 231.632 48.2563 231.814C47.6956 231.997 46.9812 232.088 46.1134 232.088H44.1459L43.6013 234.891H41.3044L43.3538 224.347H47.7703Z" fill="white"/>
<path d="M56.7059 232.305C56.6739 232.305 56.6423 232.298 56.6133 232.285C56.5843 232.271 56.5587 232.251 56.5383 232.226C56.518 232.202 56.5033 232.173 56.4954 232.142C56.4876 232.111 56.4867 232.078 56.4928 232.047L57.3991 227.382C57.4856 226.938 57.4644 226.62 57.3397 226.485C57.2631 226.403 57.0338 226.265 56.3553 226.265H54.7128L53.5734 232.13C53.5637 232.179 53.537 232.224 53.4981 232.256C53.4592 232.288 53.4103 232.305 53.36 232.305H51.0819C51.0499 232.305 51.0183 232.298 50.9893 232.284C50.9603 232.271 50.9347 232.251 50.9144 232.226C50.894 232.201 50.8793 232.173 50.8713 232.142C50.8634 232.111 50.8624 232.078 50.8684 232.047L52.9178 221.503C52.9275 221.454 52.9541 221.409 52.993 221.378C53.0318 221.346 53.0806 221.328 53.1309 221.328H55.4091C55.4411 221.328 55.4727 221.335 55.5016 221.349C55.5306 221.362 55.5562 221.382 55.5766 221.407C55.597 221.432 55.6117 221.46 55.6196 221.491C55.6275 221.522 55.6285 221.555 55.6225 221.586L55.1281 224.131H56.8947C58.2406 224.131 59.1531 224.368 59.6847 224.857C60.2262 225.354 60.3956 226.15 60.1872 227.223L59.2337 232.13C59.224 232.179 59.1974 232.224 59.1585 232.256C59.1197 232.288 59.0709 232.305 59.0206 232.305L56.7059 232.305Z" fill="black"/>
<path d="M55.4094 221.111H53.1309C53.0302 221.111 52.9326 221.146 52.8548 221.21C52.777 221.274 52.724 221.363 52.7047 221.462L50.6556 232.005C50.6435 232.068 50.6453 232.133 50.6611 232.195C50.6769 232.257 50.7062 232.315 50.7469 232.364C50.7876 232.413 50.8387 232.453 50.8965 232.48C50.9544 232.508 51.0176 232.522 51.0816 232.522H53.36C53.4608 232.522 53.5584 232.487 53.6361 232.423C53.7139 232.359 53.767 232.27 53.7862 232.171L54.8916 226.482H56.3547C57.0322 226.482 57.1747 226.627 57.18 226.633C57.2212 226.677 57.2753 226.882 57.1859 227.341L56.2797 232.005C56.2675 232.068 56.2694 232.133 56.2852 232.195C56.301 232.257 56.3303 232.315 56.371 232.364C56.4118 232.414 56.4629 232.453 56.5208 232.481C56.5787 232.508 56.6419 232.522 56.7059 232.522H59.0209C59.1216 232.522 59.2192 232.487 59.2969 232.423C59.3746 232.359 59.4276 232.27 59.4469 232.171L60.4003 227.265C60.6237 226.113 60.4325 225.249 59.8316 224.697C59.2578 224.17 58.2972 223.914 56.8947 223.914H55.3916L55.8356 221.628C55.8478 221.565 55.846 221.5 55.8302 221.438C55.8145 221.376 55.7852 221.318 55.7444 221.269C55.7037 221.22 55.6525 221.18 55.5946 221.152C55.5367 221.125 55.4734 221.111 55.4094 221.111ZM55.4094 221.545L54.8647 224.348H56.8947C58.1719 224.348 59.0531 224.571 59.5375 225.017C60.0228 225.462 60.1678 226.184 59.9744 227.182L59.0206 232.088H56.7059L57.6125 227.423C57.7156 226.892 57.6775 226.531 57.4984 226.337C57.3194 226.145 56.9381 226.048 56.3553 226.048H54.5337L53.36 232.088H51.0812L53.1306 221.544L55.4094 221.545Z" fill="white"/>
<path d="M63.7925 230.207C64.6653 230.207 65.3169 230.047 65.7294 229.729C66.1369 229.415 66.4188 228.871 66.5666 228.112C66.7041 227.403 66.6519 226.908 66.4103 226.64C66.1641 226.367 65.6312 226.229 64.8269 226.229H63.4322L62.6588 230.207H63.7925ZM59.2312 235.108C59.1992 235.108 59.1675 235.101 59.1385 235.088C59.1095 235.074 59.0839 235.054 59.0635 235.029C59.0431 235.005 59.0285 234.976 59.0206 234.945C59.0128 234.914 59.0119 234.881 59.0181 234.85L61.0672 224.307C61.0769 224.257 61.1035 224.213 61.1423 224.181C61.1812 224.149 61.23 224.131 61.2803 224.131H65.6969C67.085 224.131 68.1181 224.508 68.7675 225.252C69.4203 225.998 69.6219 227.043 69.3666 228.356C69.269 228.873 69.0898 229.372 68.8356 229.832C68.5769 230.29 68.2469 230.704 67.8581 231.057C67.38 231.505 66.8378 231.83 66.2497 232.021C65.6709 232.21 64.9272 232.305 64.04 232.305H62.2516L61.7412 234.933C61.7316 234.982 61.705 235.027 61.6661 235.059C61.6271 235.091 61.5782 235.108 61.5278 235.108H59.2312Z" fill="black"/>
<path d="M63.6109 226.446H64.8269C65.7978 226.446 66.135 226.659 66.2494 226.786C66.44 226.997 66.4756 227.441 66.3534 228.071C66.2159 228.776 65.9616 229.277 65.5969 229.557C65.2234 229.845 64.6159 229.99 63.7928 229.99H62.9222L63.6109 226.446ZM65.6966 223.914H61.28C61.1793 223.914 61.0818 223.949 61.0041 224.013C60.9264 224.077 60.8734 224.166 60.8541 224.265L58.8047 234.809C58.7926 234.872 58.7945 234.936 58.8103 234.998C58.8261 235.06 58.8555 235.118 58.8962 235.167C58.9369 235.217 58.988 235.256 59.0459 235.284C59.1038 235.311 59.167 235.325 59.2309 235.325H61.5278C61.6285 235.325 61.7261 235.29 61.8038 235.226C61.8815 235.162 61.9345 235.073 61.9537 234.974L62.4303 232.522H64.0397C64.9494 232.522 65.7159 232.423 66.3166 232.227C66.9347 232.027 67.5031 231.686 68.0066 231.215C68.4115 230.846 68.7552 230.415 69.0247 229.938C69.2847 229.474 69.4709 228.955 69.5794 228.397C69.8481 227.015 69.63 225.909 68.9306 225.109C68.2381 224.316 67.1506 223.914 65.6966 223.914ZM62.3956 230.424H63.7925C64.7188 230.424 65.4081 230.25 65.8619 229.901C66.315 229.552 66.6206 228.969 66.7794 228.153C66.9316 227.37 66.8625 226.817 66.5716 226.495C66.2809 226.173 65.6994 226.012 64.8269 226.012H63.2534L62.3956 230.424ZM65.6966 224.347C67.025 224.347 67.9947 224.697 68.6037 225.394C69.2131 226.091 69.3966 227.065 69.1534 228.314C69.0534 228.829 68.8841 229.3 68.6459 229.726C68.4075 230.153 68.0959 230.543 67.7109 230.897C67.2525 231.326 66.7431 231.632 66.1822 231.814C65.6219 231.997 64.9078 232.088 64.0397 232.088H62.0725L61.5272 234.891H59.2303L61.2797 224.347H65.6966Z" fill="white"/>
<path d="M54.8563 153.625C45.9813 153.625 46.5425 157.462 46.5425 157.462V161.45H54.9825V162.7H43.1813C43.1813 162.7 37.5 162 37.5 171.006C37.5 180.012 42.5163 179.646 42.5163 179.646H45.4125V175.445C45.4125 175.445 45.25 170.429 50.2875 170.429H58.74C58.74 170.429 63.455 170.504 63.455 165.864V158.25C63.455 158.25 64.17 153.61 54.9025 153.61L54.8563 153.625ZM50.1912 156.296C50.4913 156.289 50.7869 156.37 51.0405 156.531C51.2942 156.691 51.4946 156.923 51.6164 157.197C51.7383 157.472 51.776 157.776 51.7248 158.072C51.6737 158.367 51.536 158.641 51.3292 158.859C51.1223 159.076 50.8557 159.228 50.5628 159.294C50.27 159.359 49.9642 159.337 49.6841 159.229C49.4041 159.121 49.1622 158.933 48.9893 158.688C48.8163 158.442 48.72 158.151 48.7125 157.851V157.826C48.7125 157.424 48.8724 157.038 49.157 156.753C49.4416 156.468 49.8275 156.309 50.23 156.309L50.1912 156.296Z" fill="url(#paint1_linear_82_186)"/>
<path d="M55.1062 188.387C63.9812 188.387 63.42 184.537 63.42 184.537V180.562H54.9812V179.312H66.8187C66.8187 179.312 72.5 179.947 72.5 170.994C72.5 162.04 67.4837 162.354 67.4837 162.354H64.55V166.5C64.55 166.5 64.7125 171.516 59.675 171.516H51.2188C51.2188 171.516 46.5 171.445 46.5 176.085V183.75C46.5 183.75 45.785 188.39 55.0525 188.39H55.1025L55.1062 188.387ZM59.7712 185.704C59.4712 185.711 59.1756 185.63 58.922 185.469C58.6683 185.309 58.4679 185.077 58.3461 184.802C58.2242 184.528 58.1865 184.224 58.2377 183.928C58.2888 183.632 58.4265 183.358 58.6333 183.141C58.8402 182.923 59.1068 182.772 59.3997 182.706C59.6925 182.64 59.9983 182.663 60.2784 182.77C60.5584 182.878 60.8003 183.067 60.9732 183.312C61.1462 183.557 61.2425 183.849 61.25 184.149V184.186C61.25 184.589 61.0901 184.975 60.8055 185.259C60.5209 185.544 60.135 185.704 59.7325 185.704H59.7712Z" fill="url(#paint2_linear_82_186)"/>
<path d="M70.0625 101.594L54.9688 92.9062C54.7188 92.75 54.375 92.6875 54 92.6875C53.625 92.6875 53.2812 92.7813 53.0312 92.9062L38.0312 101.625C37.5 101.937 37.125 102.719 37.125 103.312V120.719C37.125 121.062 37.1875 121.469 37.4375 121.812L70.8125 102.437C70.625 102.062 70.3438 101.781 70.0625 101.594Z" fill="#9B4F96"/>
<path d="M37.3438 121.781C37.5 122.031 37.7188 122.25 37.9375 122.375L53 131.094C53.25 131.25 53.5938 131.312 53.9688 131.312C54.3438 131.312 54.6875 131.219 54.9375 131.094L69.9375 122.375C70.4688 122.062 70.8438 121.281 70.8438 120.688V103.281C70.8438 103 70.8125 102.688 70.6562 102.406L37.3438 121.781Z" fill="#68217A"/>
<path d="M60.6562 115.781C59.3438 118.094 56.8438 119.656 54 119.656C49.7812 119.656 46.3438 116.219 46.3438 112C46.3438 107.781 49.7812 104.344 54 104.344C56.8438 104.344 59.3438 105.906 60.6562 108.25L64.7188 105.906C62.5938 102.188 58.5938 99.6562 54 99.6562C47.1875 99.6562 41.6562 105.188 41.6562 112C41.6562 118.812 47.1875 124.344 54 124.344C58.5625 124.344 62.5625 121.844 64.6875 118.156L60.6562 115.781ZM64.3125 112.688L64.5938 111.344H63.2812V109.875H64.875L65.25 107.938H66.7812L66.4062 109.844H67.5938L67.9688 107.938H69.4688L69.0938 109.844H69.8438V111.312H68.8125L68.5312 112.656H69.8438V114.125H68.25L67.875 116H66.3438L66.7188 114.125H65.5312L65.1562 116H63.6562L64.0312 114.125H63.2812V112.656H64.3125V112.688ZM65.8125 112.688H67L67.2812 111.344H66.0938L65.8125 112.688Z" fill="white"/>
<path d="M64.625 33H43.375C38.1973 33 34 37.1973 34 42.375V63.625C34 68.8027 38.1973 73 43.375 73H64.625C69.8027 73 74 68.8027 74 63.625V42.375C74 37.1973 69.8027 33 64.625 33Z" fill="#0073AA"/>
<path d="M40.5959 52.9991C40.5959 58.3045 43.6792 62.8895 48.1502 65.0623L41.7564 47.5442C40.99 49.2606 40.5945 51.1194 40.5959 52.9991ZM63.0481 52.3227C63.0481 50.6663 62.4531 49.5191 61.9428 48.6261C61.2633 47.522 60.6264 46.587 60.6264 45.483C60.6264 44.2508 61.5609 43.1039 62.8772 43.1039C62.9367 43.1039 62.993 43.1112 63.0509 43.1145C60.6663 40.9298 57.4892 39.5959 53.9995 39.5959C49.317 39.5959 45.1972 41.9984 42.8006 45.6375C43.115 45.6469 43.4114 45.6536 43.6631 45.6536C45.0652 45.6536 47.2353 45.4833 47.2353 45.4833C47.9578 45.4408 48.0431 46.502 47.3212 46.5875C47.3212 46.5875 46.5952 46.673 45.7872 46.7153L50.6681 61.2337L53.6014 52.4364L51.5131 46.7148C50.7914 46.6725 50.1077 46.587 50.1077 46.587C49.3853 46.5447 49.47 45.4403 50.1923 45.483C50.1923 45.483 52.4058 45.653 53.7228 45.653C55.1247 45.653 57.295 45.483 57.295 45.483C58.0181 45.4403 58.103 46.5016 57.3809 46.587C57.3809 46.587 56.6533 46.6725 55.8469 46.7148L60.6908 61.1233L62.0277 56.6558C62.6072 54.8017 63.0481 53.4702 63.0481 52.3227Z" fill="white"/>
<path d="M54.2348 54.1716L50.2133 65.8575C51.4428 66.2196 52.7179 66.4036 53.9997 66.4036C55.5157 66.4041 57.0207 66.1472 58.4506 65.6437C58.4134 65.5851 58.3815 65.5233 58.3553 65.4591L54.2348 54.1716ZM65.7608 46.5684C65.8217 47.0253 65.8519 47.4857 65.8511 47.9466C65.8511 49.3067 65.597 50.8358 64.8319 52.7477L60.7377 64.585C64.7225 62.2612 67.4028 57.9442 67.4028 52.9994C67.403 50.6689 66.8078 48.4775 65.7608 46.5684Z" fill="white"/>
<path d="M53.9997 37.375C45.3844 37.375 38.375 44.3839 38.375 52.9991C38.375 61.6153 45.3844 68.6239 53.9997 68.6239C62.6145 68.6239 69.625 61.6153 69.625 52.9991C69.6247 44.3839 62.6145 37.375 53.9997 37.375ZM53.9997 67.9078C45.7794 67.9078 39.0914 61.2197 39.0914 52.9991C39.0914 44.7789 45.7792 38.0914 53.9997 38.0914C62.2195 38.0914 68.907 44.7789 68.907 52.9991C68.907 61.2197 62.2195 67.9078 53.9997 67.9078Z" fill="white"/>
<path fill-rule="evenodd" clip-rule="evenodd" d="M124.333 66.3367C116.97 66.3367 111 60.3672 111 53.0034C111 45.6396 116.97 39.67 124.333 39.67C130.843 39.67 136.262 44.3346 137.433 50.5034H479.333C480.714 50.5034 481.833 51.6227 481.833 53.0034C481.833 54.3841 480.714 55.5034 479.333 55.5034H137.433C136.262 61.6722 130.843 66.3367 124.333 66.3367Z" fill="url(#paint3_linear_82_186)"/>
<path fill-rule="evenodd" clip-rule="evenodd" d="M124.333 123.337C116.97 123.337 111 117.367 111 110.003C111 102.64 116.97 96.67 124.333 96.67C130.843 96.67 136.262 101.335 137.433 107.503H327.333C328.714 107.503 329.833 108.623 329.833 110.003C329.833 111.384 328.714 112.503 327.333 112.503H137.433C136.262 118.672 130.843 123.337 124.333 123.337Z" fill="url(#paint4_linear_82_186)"/>
<path fill-rule="evenodd" clip-rule="evenodd" d="M124.333 181.337C116.97 181.337 111 175.367 111 168.003C111 160.64 116.97 154.67 124.333 154.67C130.843 154.67 136.262 159.335 137.433 165.503H353.333C354.714 165.503 355.833 166.623 355.833 168.003C355.833 169.384 354.714 170.503 353.333 170.503H137.433C136.262 176.672 130.843 181.337 124.333 181.337Z" fill="url(#paint5_linear_82_186)"/>
<path fill-rule="evenodd" clip-rule="evenodd" d="M124.333 242.337C116.97 242.337 111 236.367 111 229.003C111 221.64 116.97 215.67 124.333 215.67C130.843 215.67 136.262 220.335 137.433 226.503H275.333C276.714 226.503 277.833 227.623 277.833 229.003C277.833 230.384 276.714 231.503 275.333 231.503H137.433C136.262 237.672 130.843 242.337 124.333 242.337Z" fill="url(#paint6_linear_82_186)"/>
<path fill-rule="evenodd" clip-rule="evenodd" d="M124.333 301.337C116.97 301.337 111 295.367 111 288.003C111 280.64 116.97 274.67 124.333 274.67C130.843 274.67 136.262 279.335 137.433 285.503H321.333C322.714 285.503 323.833 286.623 323.833 288.003C323.833 289.384 322.714 290.503 321.333 290.503H137.433C136.262 296.672 130.843 301.337 124.333 301.337Z" fill="url(#paint7_linear_82_186)"/>
<path d="M146.193 50L139.625 26.7273H144.159L148.352 43.8295H148.568L153.045 26.7273H157.17L161.659 43.8409H161.864L166.057 26.7273H170.591L164.023 50H159.864L155.205 33.6705H155.023L150.352 50H146.193ZM179.165 50.3409C177.46 50.3409 175.983 49.9659 174.733 49.2159C173.483 48.4659 172.513 47.4167 171.824 46.0682C171.142 44.7197 170.801 43.1439 170.801 41.3409C170.801 39.5379 171.142 37.9583 171.824 36.6023C172.513 35.2462 173.483 34.1932 174.733 33.4432C175.983 32.6932 177.46 32.3182 179.165 32.3182C180.869 32.3182 182.347 32.6932 183.597 33.4432C184.847 34.1932 185.813 35.2462 186.494 36.6023C187.184 37.9583 187.528 39.5379 187.528 41.3409C187.528 43.1439 187.184 44.7197 186.494 46.0682C185.813 47.4167 184.847 48.4659 183.597 49.2159C182.347 49.9659 180.869 50.3409 179.165 50.3409ZM179.188 47.0455C180.112 47.0455 180.884 46.7917 181.506 46.2841C182.127 45.7689 182.589 45.0795 182.892 44.2159C183.203 43.3523 183.358 42.3902 183.358 41.3295C183.358 40.2614 183.203 39.2955 182.892 38.4318C182.589 37.5606 182.127 36.8674 181.506 36.3523C180.884 35.8371 180.112 35.5795 179.188 35.5795C178.241 35.5795 177.453 35.8371 176.824 36.3523C176.203 36.8674 175.737 37.5606 175.426 38.4318C175.123 39.2955 174.972 40.2614 174.972 41.3295C174.972 42.3902 175.123 43.3523 175.426 44.2159C175.737 45.0795 176.203 45.7689 176.824 46.2841C177.453 46.7917 178.241 47.0455 179.188 47.0455ZM191.02 50V32.5455H195.009V35.4545H195.19C195.509 34.447 196.054 33.6705 196.827 33.125C197.607 32.572 198.497 32.2955 199.497 32.2955C199.724 32.2955 199.978 32.3068 200.259 32.3295C200.546 32.3447 200.785 32.3712 200.974 32.4091V36.1932C200.8 36.1326 200.524 36.0795 200.145 36.0341C199.774 35.9811 199.414 35.9545 199.065 35.9545C198.315 35.9545 197.641 36.1174 197.043 36.4432C196.452 36.7614 195.986 37.2045 195.645 37.7727C195.304 38.3409 195.134 38.9962 195.134 39.7386V50H191.02ZM209.466 50.3068C208.095 50.3068 206.867 49.9545 205.784 49.25C204.701 48.5455 203.845 47.5227 203.216 46.1818C202.587 44.8409 202.273 43.2121 202.273 41.2955C202.273 39.3561 202.591 37.7197 203.227 36.3864C203.871 35.0455 204.739 34.0341 205.83 33.3523C206.92 32.6629 208.136 32.3182 209.477 32.3182C210.5 32.3182 211.341 32.4924 212 32.8409C212.659 33.1818 213.182 33.5947 213.568 34.0795C213.955 34.5568 214.254 35.0076 214.466 35.4318H214.636V26.7273H218.761V50H214.716V47.25H214.466C214.254 47.6742 213.947 48.125 213.545 48.6023C213.144 49.072 212.614 49.4735 211.955 49.8068C211.295 50.1402 210.466 50.3068 209.466 50.3068ZM210.614 46.9318C211.485 46.9318 212.227 46.697 212.841 46.2273C213.455 45.75 213.92 45.0871 214.239 44.2386C214.557 43.3902 214.716 42.4015 214.716 41.2727C214.716 40.1439 214.557 39.1629 214.239 38.3295C213.928 37.4962 213.466 36.8485 212.852 36.3864C212.246 35.9242 211.5 35.6932 210.614 35.6932C209.697 35.6932 208.932 35.9318 208.318 36.4091C207.705 36.8864 207.242 37.5455 206.932 38.3864C206.621 39.2273 206.466 40.1894 206.466 41.2727C206.466 42.3636 206.621 43.3371 206.932 44.1932C207.25 45.0417 207.716 45.7121 208.33 46.2045C208.951 46.6894 209.712 46.9318 210.614 46.9318ZM223.145 56.5455V32.5455H227.19V35.4318H227.429C227.641 35.0076 227.94 34.5568 228.327 34.0795C228.713 33.5947 229.236 33.1818 229.895 32.8409C230.554 32.4924 231.395 32.3182 232.418 32.3182C233.766 32.3182 234.982 32.6629 236.065 33.3523C237.156 34.0341 238.02 35.0455 238.656 36.3864C239.3 37.7197 239.622 39.3561 239.622 41.2955C239.622 43.2121 239.308 44.8409 238.679 46.1818C238.05 47.5227 237.194 48.5455 236.111 49.25C235.027 49.9545 233.8 50.3068 232.429 50.3068C231.429 50.3068 230.599 50.1402 229.94 49.8068C229.281 49.4735 228.751 49.072 228.349 48.6023C227.955 48.125 227.649 47.6742 227.429 47.25H227.259V56.5455H223.145ZM227.179 41.2727C227.179 42.4015 227.338 43.3902 227.656 44.2386C227.982 45.0871 228.448 45.75 229.054 46.2273C229.668 46.697 230.41 46.9318 231.281 46.9318C232.19 46.9318 232.952 46.6894 233.565 46.2045C234.179 45.7121 234.641 45.0417 234.952 44.1932C235.27 43.3371 235.429 42.3636 235.429 41.2727C235.429 40.1894 235.274 39.2273 234.963 38.3864C234.652 37.5455 234.19 36.8864 233.577 36.4091C232.963 35.9318 232.198 35.6932 231.281 35.6932C230.402 35.6932 229.656 35.9242 229.043 36.3864C228.429 36.8485 227.963 37.4962 227.645 38.3295C227.334 39.1629 227.179 40.1439 227.179 41.2727ZM243.145 50V32.5455H247.134V35.4545H247.315C247.634 34.447 248.179 33.6705 248.952 33.125C249.732 32.572 250.622 32.2955 251.622 32.2955C251.849 32.2955 252.103 32.3068 252.384 32.3295C252.671 32.3447 252.91 32.3712 253.099 32.4091V36.1932C252.925 36.1326 252.649 36.0795 252.27 36.0341C251.899 35.9811 251.539 35.9545 251.19 35.9545C250.44 35.9545 249.766 36.1174 249.168 36.4432C248.577 36.7614 248.111 37.2045 247.77 37.7727C247.429 38.3409 247.259 38.9962 247.259 39.7386V50H243.145ZM262.841 50.3409C261.091 50.3409 259.58 49.9773 258.307 49.25C257.042 48.5152 256.068 47.4773 255.386 46.1364C254.705 44.7879 254.364 43.2008 254.364 41.375C254.364 39.5795 254.705 38.0038 255.386 36.6477C256.076 35.2841 257.038 34.2235 258.273 33.4659C259.508 32.7008 260.958 32.3182 262.625 32.3182C263.701 32.3182 264.716 32.4924 265.67 32.8409C266.633 33.1818 267.481 33.7121 268.216 34.4318C268.958 35.1515 269.542 36.0682 269.966 37.1818C270.39 38.2879 270.602 39.6061 270.602 41.1364V42.3977H256.295V39.625H266.659C266.652 38.8371 266.481 38.1364 266.148 37.5227C265.814 36.9015 265.348 36.4129 264.75 36.0568C264.159 35.7008 263.47 35.5227 262.682 35.5227C261.841 35.5227 261.102 35.7273 260.466 36.1364C259.83 36.5379 259.333 37.0682 258.977 37.7273C258.629 38.3788 258.451 39.0947 258.443 39.875V42.2955C258.443 43.3106 258.629 44.1818 259 44.9091C259.371 45.6288 259.89 46.1818 260.557 46.5682C261.223 46.947 262.004 47.1364 262.898 47.1364C263.496 47.1364 264.038 47.053 264.523 46.8864C265.008 46.7121 265.428 46.4583 265.784 46.125C266.14 45.7917 266.409 45.3788 266.591 44.8864L270.432 45.3182C270.189 46.3333 269.727 47.2197 269.045 47.9773C268.371 48.7273 267.508 49.3106 266.455 49.7273C265.402 50.1364 264.197 50.3409 262.841 50.3409ZM287.878 37.1591L284.128 37.5682C284.022 37.1894 283.836 36.8333 283.571 36.5C283.313 36.1667 282.965 35.8977 282.526 35.6932C282.086 35.4886 281.548 35.3864 280.912 35.3864C280.056 35.3864 279.336 35.572 278.753 35.9432C278.177 36.3144 277.893 36.7955 277.901 37.3864C277.893 37.8939 278.079 38.3068 278.457 38.625C278.844 38.9432 279.48 39.2045 280.366 39.4091L283.344 40.0455C284.995 40.4015 286.223 40.9659 287.026 41.7386C287.836 42.5114 288.245 43.5227 288.253 44.7727C288.245 45.8712 287.923 46.8409 287.287 47.6818C286.658 48.5152 285.783 49.1667 284.662 49.6364C283.541 50.1061 282.253 50.3409 280.798 50.3409C278.662 50.3409 276.942 49.8939 275.639 49C274.336 48.0985 273.56 46.8447 273.31 45.2386L277.321 44.8523C277.503 45.6402 277.889 46.2348 278.48 46.6364C279.071 47.0379 279.84 47.2386 280.787 47.2386C281.764 47.2386 282.548 47.0379 283.139 46.6364C283.738 46.2348 284.037 45.7386 284.037 45.1477C284.037 44.6477 283.844 44.2348 283.457 43.9091C283.079 43.5833 282.488 43.3333 281.685 43.1591L278.707 42.5341C277.033 42.1856 275.795 41.5985 274.991 40.7727C274.188 39.9394 273.791 38.8864 273.798 37.6136C273.791 36.5379 274.082 35.6061 274.673 34.8182C275.272 34.0227 276.101 33.4091 277.162 32.9773C278.23 32.5379 279.461 32.3182 280.855 32.3182C282.901 32.3182 284.51 32.7538 285.685 33.625C286.866 34.4962 287.598 35.6742 287.878 37.1591ZM305.44 37.1591L301.69 37.5682C301.584 37.1894 301.399 36.8333 301.134 36.5C300.876 36.1667 300.527 35.8977 300.088 35.6932C299.649 35.4886 299.111 35.3864 298.474 35.3864C297.618 35.3864 296.899 35.572 296.315 35.9432C295.74 36.3144 295.455 36.7955 295.463 37.3864C295.455 37.8939 295.641 38.3068 296.02 38.625C296.406 38.9432 297.043 39.2045 297.929 39.4091L300.906 40.0455C302.558 40.4015 303.785 40.9659 304.588 41.7386C305.399 42.5114 305.808 43.5227 305.815 44.7727C305.808 45.8712 305.486 46.8409 304.849 47.6818C304.221 48.5152 303.346 49.1667 302.224 49.6364C301.103 50.1061 299.815 50.3409 298.361 50.3409C296.224 50.3409 294.505 49.8939 293.202 49C291.899 48.0985 291.122 46.8447 290.872 45.2386L294.884 44.8523C295.065 45.6402 295.452 46.2348 296.043 46.6364C296.634 47.0379 297.402 47.2386 298.349 47.2386C299.327 47.2386 300.111 47.0379 300.702 46.6364C301.3 46.2348 301.599 45.7386 301.599 45.1477C301.599 44.6477 301.406 44.2348 301.02 43.9091C300.641 43.5833 300.05 43.3333 299.247 43.1591L296.27 42.5341C294.596 42.1856 293.357 41.5985 292.554 40.7727C291.751 39.9394 291.353 38.8864 291.361 37.6136C291.353 36.5379 291.645 35.6061 292.236 34.8182C292.834 34.0227 293.664 33.4091 294.724 32.9773C295.793 32.5379 297.024 32.3182 298.418 32.3182C300.463 32.3182 302.073 32.7538 303.247 33.625C304.429 34.4962 305.16 35.6742 305.44 37.1591Z" fill="white"/>
<path d="M161.216 90.5795H156.966C156.845 89.8826 156.621 89.2652 156.295 88.7273C155.97 88.1818 155.564 87.7197 155.08 87.3409C154.595 86.9621 154.042 86.678 153.42 86.4886C152.807 86.2917 152.144 86.1932 151.432 86.1932C150.167 86.1932 149.045 86.5114 148.068 87.1477C147.091 87.7765 146.326 88.7008 145.773 89.9205C145.22 91.1326 144.943 92.6136 144.943 94.3636C144.943 96.1439 145.22 97.6439 145.773 98.8636C146.333 100.076 147.098 100.992 148.068 101.614C149.045 102.227 150.163 102.534 151.42 102.534C152.117 102.534 152.769 102.443 153.375 102.261C153.989 102.072 154.538 101.795 155.023 101.432C155.515 101.068 155.928 100.621 156.261 100.091C156.602 99.5606 156.837 98.9545 156.966 98.2727L161.216 98.2955C161.057 99.4015 160.712 100.439 160.182 101.409C159.659 102.379 158.973 103.235 158.125 103.977C157.277 104.712 156.284 105.288 155.148 105.705C154.011 106.114 152.75 106.318 151.364 106.318C149.318 106.318 147.492 105.845 145.886 104.898C144.28 103.951 143.015 102.583 142.091 100.795C141.167 99.0076 140.705 96.8636 140.705 94.3636C140.705 91.8561 141.17 89.7121 142.102 87.9318C143.034 86.1439 144.303 84.7765 145.909 83.8295C147.515 82.8826 149.333 82.4091 151.364 82.4091C152.659 82.4091 153.864 82.5909 154.977 82.9545C156.091 83.3182 157.083 83.8523 157.955 84.5568C158.826 85.2538 159.542 86.1098 160.102 87.125C160.67 88.1326 161.042 89.2841 161.216 90.5795ZM173.668 106L177.486 82.7273H180.668L176.849 106H173.668ZM163.179 100L163.713 96.8182H181.622L181.088 100H163.179ZM165.486 106L169.304 82.7273H172.486L168.668 106H165.486ZM164.531 91.9091L165.054 88.7273H182.963L182.44 91.9091H164.531Z" fill="white"/>
<path d="M141.295 165V141.727H150.023C151.811 141.727 153.311 142.061 154.523 142.727C155.742 143.394 156.663 144.311 157.284 145.477C157.913 146.636 158.227 147.955 158.227 149.432C158.227 150.924 157.913 152.25 157.284 153.409C156.655 154.568 155.727 155.481 154.5 156.148C153.273 156.807 151.761 157.136 149.966 157.136H144.182V153.67H149.398C150.443 153.67 151.299 153.489 151.966 153.125C152.633 152.761 153.125 152.261 153.443 151.625C153.769 150.989 153.932 150.258 153.932 149.432C153.932 148.606 153.769 147.879 153.443 147.25C153.125 146.621 152.629 146.133 151.955 145.784C151.288 145.428 150.428 145.25 149.375 145.25H145.511V165H141.295ZM164.264 171.545C163.704 171.545 163.185 171.5 162.707 171.409C162.238 171.326 161.863 171.227 161.582 171.114L162.537 167.909C163.135 168.083 163.67 168.167 164.139 168.159C164.609 168.152 165.022 168.004 165.378 167.716C165.741 167.436 166.048 166.966 166.298 166.307L166.651 165.364L160.321 147.545H164.685L168.707 160.727H168.889L172.923 147.545H177.298L170.31 167.114C169.984 168.038 169.552 168.83 169.014 169.489C168.476 170.155 167.817 170.663 167.037 171.011C166.264 171.367 165.34 171.545 164.264 171.545ZM188.861 147.545V150.727H178.827V147.545H188.861ZM181.304 143.364H185.418V159.75C185.418 160.303 185.501 160.727 185.668 161.023C185.842 161.311 186.069 161.508 186.349 161.614C186.63 161.72 186.94 161.773 187.281 161.773C187.539 161.773 187.774 161.754 187.986 161.716C188.205 161.678 188.372 161.644 188.486 161.614L189.179 164.83C188.959 164.905 188.645 164.989 188.236 165.08C187.834 165.17 187.342 165.223 186.759 165.239C185.728 165.269 184.8 165.114 183.974 164.773C183.149 164.424 182.493 163.886 182.009 163.159C181.531 162.432 181.296 161.523 181.304 160.432V143.364ZM196.79 154.773V165H192.676V141.727H196.699V150.511H196.903C197.313 149.527 197.945 148.75 198.801 148.182C199.665 147.606 200.763 147.318 202.097 147.318C203.309 147.318 204.366 147.572 205.267 148.08C206.169 148.587 206.866 149.33 207.358 150.307C207.858 151.284 208.108 152.477 208.108 153.886V165H203.994V154.523C203.994 153.348 203.691 152.436 203.085 151.784C202.487 151.125 201.646 150.795 200.562 150.795C199.835 150.795 199.184 150.955 198.608 151.273C198.04 151.583 197.593 152.034 197.267 152.625C196.949 153.216 196.79 153.932 196.79 154.773ZM219.915 165.341C218.21 165.341 216.733 164.966 215.483 164.216C214.233 163.466 213.263 162.417 212.574 161.068C211.892 159.72 211.551 158.144 211.551 156.341C211.551 154.538 211.892 152.958 212.574 151.602C213.263 150.246 214.233 149.193 215.483 148.443C216.733 147.693 218.21 147.318 219.915 147.318C221.619 147.318 223.097 147.693 224.347 148.443C225.597 149.193 226.563 150.246 227.244 151.602C227.934 152.958 228.278 154.538 228.278 156.341C228.278 158.144 227.934 159.72 227.244 161.068C226.563 162.417 225.597 163.466 224.347 164.216C223.097 164.966 221.619 165.341 219.915 165.341ZM219.938 162.045C220.862 162.045 221.634 161.792 222.256 161.284C222.877 160.769 223.339 160.08 223.642 159.216C223.953 158.352 224.108 157.39 224.108 156.33C224.108 155.261 223.953 154.295 223.642 153.432C223.339 152.561 222.877 151.867 222.256 151.352C221.634 150.837 220.862 150.58 219.938 150.58C218.991 150.58 218.203 150.837 217.574 151.352C216.953 151.867 216.487 152.561 216.176 153.432C215.873 154.295 215.722 155.261 215.722 156.33C215.722 157.39 215.873 158.352 216.176 159.216C216.487 160.08 216.953 160.769 217.574 161.284C218.203 161.792 218.991 162.045 219.938 162.045ZM235.884 154.773V165H231.77V147.545H235.702V150.511H235.906C236.308 149.534 236.948 148.758 237.827 148.182C238.713 147.606 239.808 147.318 241.111 147.318C242.315 147.318 243.365 147.576 244.259 148.091C245.16 148.606 245.857 149.352 246.349 150.33C246.849 151.307 247.096 152.492 247.088 153.886V165H242.974V154.523C242.974 153.356 242.671 152.443 242.065 151.784C241.467 151.125 240.637 150.795 239.577 150.795C238.857 150.795 238.217 150.955 237.656 151.273C237.103 151.583 236.668 152.034 236.349 152.625C236.039 153.216 235.884 153.932 235.884 154.773Z" fill="white"/>
<path d="M141.295 226V202.727H150.023C151.811 202.727 153.311 203.061 154.523 203.727C155.742 204.394 156.663 205.311 157.284 206.477C157.913 207.636 158.227 208.955 158.227 210.432C158.227 211.924 157.913 213.25 157.284 214.409C156.655 215.568 155.727 216.481 154.5 217.148C153.273 217.807 151.761 218.136 149.966 218.136H144.182V214.67H149.398C150.443 214.67 151.299 214.489 151.966 214.125C152.633 213.761 153.125 213.261 153.443 212.625C153.769 211.989 153.932 211.258 153.932 210.432C153.932 209.606 153.769 208.879 153.443 208.25C153.125 207.621 152.629 207.133 151.955 206.784C151.288 206.428 150.428 206.25 149.375 206.25H145.511V226H141.295ZM165.821 215.773V226H161.707V202.727H165.73V211.511H165.935C166.344 210.527 166.976 209.75 167.832 209.182C168.696 208.606 169.795 208.318 171.128 208.318C172.34 208.318 173.397 208.572 174.298 209.08C175.2 209.587 175.897 210.33 176.389 211.307C176.889 212.284 177.139 213.477 177.139 214.886V226H173.026V215.523C173.026 214.348 172.723 213.436 172.116 212.784C171.518 212.125 170.677 211.795 169.594 211.795C168.866 211.795 168.215 211.955 167.639 212.273C167.071 212.583 166.624 213.034 166.298 213.625C165.98 214.216 165.821 214.932 165.821 215.773ZM181.332 232.545V208.545H185.378V211.432H185.616C185.829 211.008 186.128 210.557 186.514 210.08C186.901 209.595 187.423 209.182 188.082 208.841C188.741 208.492 189.582 208.318 190.605 208.318C191.954 208.318 193.17 208.663 194.253 209.352C195.344 210.034 196.207 211.045 196.844 212.386C197.488 213.72 197.81 215.356 197.81 217.295C197.81 219.212 197.495 220.841 196.866 222.182C196.238 223.523 195.382 224.545 194.298 225.25C193.215 225.955 191.988 226.307 190.616 226.307C189.616 226.307 188.787 226.14 188.128 225.807C187.469 225.473 186.938 225.072 186.537 224.602C186.143 224.125 185.836 223.674 185.616 223.25H185.446V232.545H181.332ZM185.366 217.273C185.366 218.402 185.526 219.39 185.844 220.239C186.17 221.087 186.635 221.75 187.241 222.227C187.855 222.697 188.598 222.932 189.469 222.932C190.378 222.932 191.139 222.689 191.753 222.205C192.366 221.712 192.829 221.042 193.139 220.193C193.457 219.337 193.616 218.364 193.616 217.273C193.616 216.189 193.461 215.227 193.151 214.386C192.84 213.545 192.378 212.886 191.764 212.409C191.151 211.932 190.385 211.693 189.469 211.693C188.59 211.693 187.844 211.924 187.23 212.386C186.616 212.848 186.151 213.496 185.832 214.33C185.522 215.163 185.366 216.144 185.366 217.273Z" fill="white"/>
<path d="M141.295 261.727H146.455L153.364 278.591H153.636L160.545 261.727H165.705V285H161.659V269.011H161.443L155.011 284.932H151.989L145.557 268.977H145.341V285H141.295V261.727ZM172.67 291.545C172.11 291.545 171.591 291.5 171.114 291.409C170.644 291.326 170.269 291.227 169.989 291.114L170.943 287.909C171.542 288.083 172.076 288.167 172.545 288.159C173.015 288.152 173.428 288.004 173.784 287.716C174.148 287.436 174.455 286.966 174.705 286.307L175.057 285.364L168.727 267.545H173.091L177.114 280.727H177.295L181.33 267.545H185.705L178.716 287.114C178.39 288.038 177.958 288.83 177.42 289.489C176.883 290.155 176.223 290.663 175.443 291.011C174.67 291.367 173.746 291.545 172.67 291.545ZM201.381 268.125C201.275 267.133 200.828 266.36 200.04 265.807C199.259 265.254 198.244 264.977 196.994 264.977C196.116 264.977 195.362 265.11 194.733 265.375C194.104 265.64 193.623 266 193.29 266.455C192.956 266.909 192.786 267.428 192.778 268.011C192.778 268.496 192.888 268.917 193.108 269.273C193.335 269.629 193.642 269.932 194.028 270.182C194.415 270.424 194.843 270.629 195.312 270.795C195.782 270.962 196.256 271.102 196.733 271.216L198.915 271.761C199.794 271.966 200.638 272.242 201.449 272.591C202.267 272.939 202.998 273.379 203.642 273.909C204.294 274.439 204.809 275.08 205.188 275.83C205.566 276.58 205.756 277.458 205.756 278.466C205.756 279.83 205.407 281.03 204.71 282.068C204.013 283.098 203.006 283.905 201.688 284.489C200.377 285.064 198.79 285.352 196.926 285.352C195.116 285.352 193.544 285.072 192.21 284.511C190.884 283.951 189.847 283.133 189.097 282.057C188.354 280.981 187.953 279.67 187.892 278.125H192.04C192.1 278.936 192.35 279.61 192.79 280.148C193.229 280.686 193.801 281.087 194.506 281.352C195.218 281.617 196.013 281.75 196.892 281.75C197.809 281.75 198.612 281.614 199.301 281.341C199.998 281.061 200.544 280.674 200.938 280.182C201.331 279.682 201.532 279.098 201.54 278.432C201.532 277.826 201.354 277.326 201.006 276.932C200.657 276.53 200.169 276.197 199.54 275.932C198.919 275.659 198.191 275.417 197.358 275.205L194.71 274.523C192.794 274.03 191.278 273.284 190.165 272.284C189.059 271.277 188.506 269.939 188.506 268.273C188.506 266.902 188.877 265.701 189.619 264.67C190.369 263.64 191.388 262.841 192.676 262.273C193.964 261.697 195.422 261.409 197.051 261.409C198.703 261.409 200.15 261.697 201.392 262.273C202.642 262.841 203.623 263.633 204.335 264.648C205.047 265.655 205.415 266.814 205.438 268.125H201.381ZM220.98 291.545V282.25H220.81C220.598 282.674 220.291 283.125 219.889 283.602C219.488 284.072 218.957 284.473 218.298 284.807C217.639 285.14 216.81 285.307 215.81 285.307C214.438 285.307 213.211 284.955 212.128 284.25C211.045 283.545 210.188 282.523 209.56 281.182C208.931 279.841 208.616 278.212 208.616 276.295C208.616 274.356 208.935 272.72 209.571 271.386C210.215 270.045 211.082 269.034 212.173 268.352C213.264 267.663 214.48 267.318 215.821 267.318C216.844 267.318 217.685 267.492 218.344 267.841C219.003 268.182 219.526 268.595 219.912 269.08C220.298 269.557 220.598 270.008 220.81 270.432H221.06V267.545H225.105V291.545H220.98ZM216.957 281.932C217.829 281.932 218.571 281.697 219.185 281.227C219.798 280.75 220.264 280.087 220.582 279.239C220.901 278.39 221.06 277.402 221.06 276.273C221.06 275.144 220.901 274.163 220.582 273.33C220.272 272.496 219.81 271.848 219.196 271.386C218.59 270.924 217.844 270.693 216.957 270.693C216.041 270.693 215.276 270.932 214.662 271.409C214.048 271.886 213.586 272.545 213.276 273.386C212.965 274.227 212.81 275.189 212.81 276.273C212.81 277.364 212.965 278.337 213.276 279.193C213.594 280.042 214.06 280.712 214.673 281.205C215.295 281.689 216.056 281.932 216.957 281.932ZM233.446 261.727V285H229.332V261.727H233.446Z" fill="white"/>
<rect x="2.5" y="2.5" width="545" height="340" rx="52.5" stroke="white" stroke-width="5"/>
<defs>
<radialGradient id="paint0_radial_82_186" cx="0" cy="0" r="1" gradientUnits="userSpaceOnUse" gradientTransform="translate(47.0081 222.178) scale(26.2629 26.2629)">
<stop stop-color="#AEB2D5"/>
<stop offset="0.3" stop-color="#AEB2D5"/>
<stop offset="0.75" stop-color="#484C89"/>
<stop offset="1" stop-color="#484C89"/>
</radialGradient>
<linearGradient id="paint1_linear_82_186" x1="42.1621" y1="158.176" x2="64.3457" y2="180.51" gradientUnits="userSpaceOnUse">
<stop stop-color="#387EB8"/>
<stop offset="1" stop-color="#366994"/>
</linearGradient>
<linearGradient id="paint2_linear_82_186" x1="50.7843" y1="167.823" x2="69.7596" y2="184.389" gradientUnits="userSpaceOnUse">
<stop stop-color="#FFE052"/>
<stop offset="1" stop-color="#FFC331"/>
</linearGradient>
<linearGradient id="paint3_linear_82_186" x1="124.335" y1="53.5044" x2="479.332" y2="53.5046" gradientUnits="userSpaceOnUse">
<stop stop-color="#100892"/>
<stop offset="0.151042" stop-color="#F653E9"/>
<stop offset="0.3125" stop-color="#FFB6F9"/>
<stop offset="0.479167" stop-color="#5865F2"/>
<stop offset="0.640625" stop-color="#100892"/>
<stop offset="0.760417" stop-color="#F653E9"/>
<stop offset="0.875" stop-color="#FFB6F9"/>
<stop offset="1" stop-color="#100892"/>
</linearGradient>
<linearGradient id="paint4_linear_82_186" x1="124.334" y1="110.504" x2="327.333" y2="110.504" gradientUnits="userSpaceOnUse">
<stop stop-color="#100892"/>
<stop offset="0.151042" stop-color="#F653E9"/>
<stop offset="0.3125" stop-color="#FFB6F9"/>
<stop offset="0.479167" stop-color="#5865F2"/>
<stop offset="0.640625" stop-color="#100892"/>
<stop offset="0.760417" stop-color="#F653E9"/>
<stop offset="0.875" stop-color="#FFB6F9"/>
<stop offset="1" stop-color="#100892"/>
</linearGradient>
<linearGradient id="paint5_linear_82_186" x1="124.334" y1="168.504" x2="353.333" y2="168.504" gradientUnits="userSpaceOnUse">
<stop stop-color="#100892"/>
<stop offset="0.151042" stop-color="#F653E9"/>
<stop offset="0.3125" stop-color="#FFB6F9"/>
<stop offset="0.479167" stop-color="#5865F2"/>
<stop offset="0.640625" stop-color="#100892"/>
<stop offset="0.760417" stop-color="#F653E9"/>
<stop offset="0.875" stop-color="#FFB6F9"/>
<stop offset="1" stop-color="#100892"/>
</linearGradient>
<linearGradient id="paint6_linear_82_186" x1="124.334" y1="229.504" x2="275.333" y2="229.504" gradientUnits="userSpaceOnUse">
<stop stop-color="#100892"/>
<stop offset="0.151042" stop-color="#F653E9"/>
<stop offset="0.3125" stop-color="#FFB6F9"/>
<stop offset="0.479167" stop-color="#5865F2"/>
<stop offset="0.640625" stop-color="#100892"/>
<stop offset="0.760417" stop-color="#F653E9"/>
<stop offset="0.875" stop-color="#FFB6F9"/>
<stop offset="1" stop-color="#100892"/>
</linearGradient>
<linearGradient id="paint7_linear_82_186" x1="124.334" y1="288.504" x2="321.333" y2="288.504" gradientUnits="userSpaceOnUse">
<stop stop-color="#100892"/>
<stop offset="0.151042" stop-color="#F653E9"/>
<stop offset="0.3125" stop-color="#FFB6F9"/>
<stop offset="0.479167" stop-color="#5865F2"/>
<stop offset="0.640625" stop-color="#100892"/>
<stop offset="0.760417" stop-color="#F653E9"/>
<stop offset="0.875" stop-color="#FFB6F9"/>
<stop offset="1" stop-color="#100892"/>
</linearGradient>
</defs>
</svg>
