<svg width="474" height="688" viewBox="0 0 474 688" fill="none" xmlns="http://www.w3.org/2000/svg">
<rect x="2.5" y="2.5" width="469" height="683" rx="102.5" fill="black" fill-opacity="0.6"/>
<path d="M112.371 111.003L106 39H176L169.622 110.992L140.957 119L112.371 111.003Z" fill="#E44D26"/>
<path d="M141 112.879L164.163 106.408L169.613 44.8872H141V112.879Z" fill="#F16529"/>
<path d="M141 71.5921H129.404L128.603 62.5487H141V53.7182H119.026L121.389 80.4232H141V71.5921ZM141 94.5267L140.961 94.5376L131.202 91.8812L130.579 84.839H121.781L123.008 98.7045L140.96 103.726L141 103.715V94.5267Z" fill="#EBEBEB"/>
<path d="M140.969 71.5921V80.4232H151.76L150.743 91.876L140.969 94.5344V103.722L158.935 98.7045L161.126 73.9637L161.339 71.5921H140.969ZM140.969 53.7182V62.5487H162.137L162.922 53.7182H140.969Z" fill="white"/>
<path d="M289.37 111.002L283 39H353L346.623 110.992L317.958 119L289.37 111.002Z" fill="#1572B6"/>
<path d="M318.001 112.879L341.164 106.407L346.614 44.8868H318.001V112.879Z" fill="#33A9DC"/>
<path d="M318.001 70.9733H329.597L330.398 61.9305H318.001V53.0996H339.975L337.611 79.8042H318.001V70.9733Z" fill="white"/>
<path d="M318.053 93.9076L318.014 93.9191L308.255 91.2637L307.631 84.2206H298.835L300.062 98.0865L318.013 103.107L318.053 103.095V93.9076Z" fill="#EBEBEB"/>
<path d="M328.852 79.4307L327.796 91.2566L318.022 93.9153V103.103L335.987 98.0859L337.643 79.4307H328.852Z" fill="white"/>
<path d="M318.03 53.0996V61.9305H296.863L296.079 53.0996H318.03ZM318.001 70.9733V79.8042L308.364 79.8054L307.789 73.344L307.58 70.9746L318.001 70.9733Z" fill="#EBEBEB"/>
<path d="M101 166H181V246H101V166Z" fill="#F7DF1E"/>
<path d="M122.035 232.854L128.157 229.149C129.338 231.243 130.412 233.015 132.99 233.015C135.46 233.015 137.018 232.048 137.018 228.29V202.728H144.536V228.396C144.536 236.183 139.971 239.727 133.312 239.727C127.298 239.727 123.807 236.613 122.035 232.854ZM148.619 232.048L154.74 228.504C156.352 231.136 158.446 233.069 162.151 233.069C165.267 233.069 167.253 231.511 167.253 229.363C167.253 226.786 165.212 225.873 161.775 224.369L159.896 223.563C154.472 221.255 150.874 218.355 150.874 212.233C150.874 206.594 155.17 202.298 161.883 202.298C166.662 202.298 170.099 203.963 172.569 208.312L166.716 212.072C165.427 209.763 164.031 208.85 161.883 208.85C159.681 208.85 158.285 210.246 158.285 212.072C158.285 214.327 159.681 215.241 162.903 216.637L164.782 217.442C171.173 220.181 174.771 222.973 174.771 229.256C174.771 236.023 169.454 239.728 162.312 239.728C155.331 239.728 150.821 236.398 148.619 232.048Z" fill="black"/>
<path d="M293.77 158C288.064 158 283.842 163.015 284.031 168.454C284.213 173.68 283.977 180.448 282.28 185.967C280.579 191.502 277.701 195.008 273 195.459V200.541C277.701 200.992 280.579 204.498 282.28 210.033C283.977 215.553 284.213 222.32 284.031 227.546C283.842 232.984 288.064 238 293.771 238H352.237C357.943 238 362.164 232.985 361.975 227.546C361.794 222.32 362.03 215.553 363.726 210.033C365.429 204.498 368.299 200.991 373 200.541V195.459C368.299 195.008 365.429 191.502 363.727 185.967C362.03 180.449 361.794 173.68 361.975 168.454C362.164 163.016 357.943 158 352.237 158H293.77ZM340.797 207.245C340.797 214.735 335.234 219.277 326.003 219.277H310.288C309.839 219.276 309.408 219.097 309.09 218.778C308.772 218.459 308.594 218.026 308.594 217.574V178.426C308.594 178.202 308.637 177.981 308.723 177.774C308.808 177.568 308.933 177.38 309.09 177.222C309.247 177.064 309.434 176.938 309.64 176.853C309.846 176.767 310.066 176.723 310.289 176.723H325.913C333.611 176.723 338.662 180.911 338.662 187.34C338.662 191.852 335.264 195.892 330.934 196.599V196.835C336.829 197.484 340.797 201.583 340.797 207.245ZM324.289 182.119H315.329V194.829H322.876C328.71 194.829 331.927 192.47 331.927 188.253C331.927 184.301 329.16 182.119 324.289 182.119ZM315.329 199.872V213.879H324.619C330.693 213.879 333.911 211.432 333.911 206.832C333.911 202.231 330.603 199.872 324.229 199.872L315.329 199.872Z" fill="#7E13F8"/>
<path d="M126 401C134.28 401 141 394.28 141 386V371H126C117.72 371 111 377.72 111 386C111 394.28 117.72 401 126 401Z" fill="#0ACF83"/>
<path d="M111 356C111 347.72 117.72 341 126 341H141V371H126C117.72 371 111 364.28 111 356Z" fill="#A259FF"/>
<path d="M111 326C111 317.72 117.72 311 126 311H141V341H126C117.72 341 111 334.28 111 326Z" fill="#F24E1E"/>
<path d="M141 311H156C164.28 311 171 317.72 171 326C171 334.28 164.28 341 156 341L141 341V311Z" fill="#FF7262"/>
<path d="M171 356C171 364.28 164.28 371 156 371C147.72 371 141 364.28 141 356C141 347.72 147.72 341 156 341C164.28 341 171 347.72 171 356Z" fill="#1ABCFE"/>
<path d="M352.25 314H309.75C299.395 314 291 322.395 291 332.75V375.25C291 385.605 299.395 394 309.75 394H352.25C362.605 394 371 385.605 371 375.25V332.75C371 322.395 362.605 314 352.25 314Z" fill="#0073AA"/>
<path d="M304.192 353.998C304.192 364.609 310.358 373.779 319.3 378.125L306.513 343.088C304.98 346.521 304.189 350.239 304.192 353.998ZM349.096 352.645C349.096 349.333 347.906 347.038 346.886 345.252C345.527 343.044 344.253 341.174 344.253 338.966C344.253 336.502 346.122 334.208 348.754 334.208C348.873 334.208 348.986 334.222 349.102 334.229C344.333 329.86 337.978 327.192 330.999 327.192C321.634 327.192 313.394 331.997 308.601 339.275C309.23 339.294 309.823 339.307 310.326 339.307C313.13 339.307 317.471 338.967 317.471 338.967C318.916 338.882 319.086 341.004 317.642 341.175C317.642 341.175 316.19 341.346 314.574 341.431L324.336 370.467L330.203 352.873L326.026 341.43C324.583 341.345 323.215 341.174 323.215 341.174C321.771 341.089 321.94 338.881 323.385 338.966C323.385 338.966 327.812 339.306 330.446 339.306C333.249 339.306 337.59 338.966 337.59 338.966C339.036 338.881 339.206 341.003 337.762 341.174C337.762 341.174 336.307 341.345 334.694 341.43L344.382 370.247L347.055 361.312C348.214 357.603 349.096 354.94 349.096 352.645Z" fill="white"/>
<path d="M331.47 356.343L323.427 379.715C325.886 380.439 328.436 380.807 330.999 380.807C334.031 380.808 337.041 380.294 339.901 379.287C339.827 379.17 339.763 379.047 339.711 378.918L331.47 356.343ZM354.522 341.137C354.643 342.051 354.704 342.971 354.702 343.893C354.702 346.613 354.194 349.672 352.664 353.495L344.475 377.17C352.445 372.522 357.806 363.888 357.806 353.999C357.806 349.338 356.616 344.955 354.522 341.137Z" fill="white"/>
<path d="M330.999 322.75C313.769 322.75 299.75 336.768 299.75 353.998C299.75 371.231 313.769 385.248 330.999 385.248C348.229 385.248 362.25 371.231 362.25 353.998C362.249 336.768 348.229 322.75 330.999 322.75ZM330.999 383.816C314.559 383.816 301.183 370.439 301.183 353.998C301.183 337.558 314.558 324.183 330.999 324.183C347.439 324.183 360.814 337.558 360.814 353.998C360.814 370.439 347.439 383.816 330.999 383.816Z" fill="white"/>
<path d="M179.146 478.447L143.335 460.453C142.742 460.129 141.927 460 141.037 460C140.147 460 139.332 460.194 138.739 460.453L103.15 478.511C101.89 479.159 101 480.777 101 482.006V518.058C101 518.77 101.148 519.612 101.741 520.324L180.926 480.194C180.481 479.417 179.814 478.835 179.146 478.447Z" fill="#9B4F96"/>
<path d="M101.519 520.259C101.89 520.777 102.409 521.23 102.928 521.489L138.665 539.547C139.258 539.871 140.073 540 140.963 540C141.853 540 142.668 539.806 143.261 539.547L178.85 521.489C180.11 520.841 181 519.223 181 517.994V481.942C181 481.359 180.926 480.712 180.555 480.129L101.519 520.259Z" fill="#68217A"/>
<path d="M156.829 507.832C153.715 512.621 147.784 515.858 141.037 515.858C131.028 515.858 122.872 508.738 122.872 500C122.872 491.262 131.028 484.142 141.037 484.142C147.784 484.142 153.715 487.379 156.829 492.233L166.468 487.379C161.426 479.676 151.936 474.434 141.037 474.434C124.874 474.434 111.751 485.89 111.751 500C111.751 514.11 124.874 525.566 141.037 525.566C151.862 525.566 161.352 520.388 166.394 512.751L156.829 507.832ZM165.504 501.424L166.171 498.641H163.057V495.599H166.839L167.728 491.586H171.361L170.472 495.534H173.289L174.179 491.586H177.738L176.848 495.534H178.627V498.576H176.181L175.513 501.359H178.627V504.401H174.846L173.956 508.285H170.323L171.213 504.401H168.396L167.506 508.285H163.947L164.837 504.401H163.057V501.359H165.504V501.424ZM169.063 501.424H171.88L172.548 498.641H169.73L169.063 501.424Z" fill="white"/>
<path d="M322.671 460.035C302.386 460.035 303.669 468.861 303.669 468.861V478.033H322.96V480.909H295.986C295.986 480.909 283 479.298 283 500.014C283 520.73 294.466 519.888 294.466 519.888H301.086V510.224C301.086 510.224 300.714 498.686 312.229 498.686H331.549C331.549 498.686 342.326 498.859 342.326 488.186V470.673C342.326 470.673 343.96 460 322.777 460L322.671 460.035ZM312.009 466.179C312.694 466.161 313.37 466.349 313.95 466.718C314.53 467.087 314.988 467.621 315.266 468.252C315.545 468.883 315.631 469.583 315.514 470.263C315.397 470.943 315.082 471.573 314.61 472.074C314.137 472.574 313.527 472.922 312.858 473.074C312.189 473.225 311.49 473.174 310.849 472.926C310.209 472.677 309.657 472.244 309.261 471.68C308.866 471.115 308.646 470.446 308.629 469.756V469.698C308.629 468.772 308.994 467.885 309.644 467.23C310.295 466.575 311.177 466.208 312.097 466.208L312.009 466.179Z" fill="url(#paint0_linear_83_197)"/>
<path d="M323.243 539.994C343.529 539.994 342.246 531.139 342.246 531.139V521.995H322.957V519.12H350.014C350.014 519.12 363 520.581 363 499.986C363 479.39 351.534 480.112 351.534 480.112H344.829V489.649C344.829 489.649 345.2 501.187 333.686 501.187H314.357C314.357 501.187 303.571 501.024 303.571 511.696V529.327C303.571 529.327 301.937 540 323.12 540H323.234L323.243 539.994ZM333.906 533.821C333.22 533.839 332.544 533.651 331.964 533.282C331.385 532.913 330.927 532.379 330.648 531.748C330.37 531.117 330.283 530.417 330.4 529.737C330.517 529.057 330.832 528.427 331.305 527.926C331.777 527.426 332.387 527.078 333.056 526.926C333.726 526.775 334.425 526.826 335.065 527.074C335.705 527.323 336.258 527.756 336.653 528.32C337.048 528.885 337.269 529.554 337.286 530.244V530.331C337.286 531.256 336.92 532.144 336.27 532.799C335.619 533.453 334.737 533.821 333.817 533.821H333.906Z" fill="url(#paint1_linear_83_197)"/>
<path d="M101 618C101 634.568 118.909 648 141 648C163.091 648 181 634.568 181 618C181 601.432 163.091 588 141 588C118.909 588 101 601.432 101 618Z" fill="url(#paint2_radial_83_197)"/>
<path d="M141 645.772C162.228 645.772 179.438 633.337 179.438 618C179.438 602.661 162.228 590.228 141 590.228C119.772 590.228 102.562 602.661 102.562 618C102.562 633.337 119.772 645.772 141 645.772Z" fill="#777BB3"/>
<path d="M122.733 621.443C124.478 621.443 125.781 620.984 126.605 620.08C127.421 619.183 127.984 617.632 128.28 615.468C128.555 613.446 128.45 612.034 127.968 611.271C127.475 610.493 126.409 610.098 124.801 610.098H122.011L120.465 621.443H122.733ZM113.608 635.418C113.544 635.418 113.481 635.398 113.423 635.358C113.365 635.319 113.314 635.263 113.274 635.192C113.233 635.121 113.204 635.039 113.188 634.951C113.172 634.862 113.171 634.77 113.183 634.68L117.281 604.617C117.301 604.476 117.354 604.35 117.431 604.259C117.509 604.167 117.606 604.117 117.706 604.117H126.54C129.316 604.117 131.383 605.192 132.682 607.311C133.987 609.441 134.391 612.421 133.88 616.164C133.672 617.689 133.314 619.105 132.818 620.374C132.3 621.679 131.64 622.858 130.863 623.867C129.906 625.143 128.823 626.07 127.646 626.614C126.488 627.152 125.001 627.425 123.227 627.425H119.649L118.628 634.917C118.609 635.058 118.556 635.185 118.478 635.277C118.4 635.368 118.303 635.418 118.202 635.418H113.608Z" fill="black"/>
<path d="M122.369 610.716H124.801C126.743 610.716 127.417 611.324 127.646 611.687C128.026 612.287 128.098 613.555 127.853 615.351C127.579 617.362 127.07 618.789 126.341 619.589C125.594 620.409 124.379 620.824 122.733 620.824H120.991L122.369 610.716ZM126.54 603.499H117.707C117.505 603.499 117.31 603.598 117.155 603.781C116.999 603.963 116.893 604.217 116.854 604.499L112.756 634.563C112.732 634.742 112.736 634.927 112.767 635.104C112.799 635.28 112.858 635.445 112.939 635.586C113.02 635.726 113.123 635.84 113.238 635.918C113.354 635.996 113.48 636.036 113.608 636.036H118.202C118.403 636.036 118.598 635.936 118.754 635.753C118.909 635.571 119.015 635.317 119.054 635.035L120.007 628.043H123.226C125.046 628.043 126.579 627.76 127.781 627.202C129.016 626.63 130.153 625.66 131.159 624.318C131.97 623.266 132.657 622.036 133.196 620.676C133.716 619.351 134.089 617.872 134.306 616.282C134.843 612.341 134.406 609.185 133.008 606.904C131.623 604.644 129.447 603.499 126.54 603.499ZM119.938 622.061H122.733C124.584 622.061 125.964 621.564 126.87 620.568C127.777 619.574 128.388 617.913 128.706 615.586C129.009 613.351 128.871 611.775 128.291 610.856C127.709 609.938 126.546 609.479 124.801 609.479H121.653L119.938 622.061ZM126.541 604.734C129.198 604.734 131.136 605.729 132.355 607.717C133.574 609.706 133.94 612.482 133.455 616.045C133.254 617.513 132.916 618.855 132.439 620.071C131.962 621.288 131.339 622.4 130.57 623.41C129.653 624.633 128.634 625.506 127.513 626.025C126.391 626.545 124.962 626.805 123.227 626.805H119.292L118.203 634.798H113.609L117.708 604.734H126.541Z" fill="white"/>
<path d="M144.412 627.425C144.348 627.425 144.285 627.405 144.227 627.366C144.169 627.327 144.117 627.27 144.077 627.2C144.036 627.13 144.007 627.047 143.991 626.959C143.975 626.87 143.973 626.778 143.986 626.688L145.798 613.386C145.971 612.121 145.929 611.214 145.679 610.829C145.526 610.594 145.068 610.201 143.711 610.201H140.426L138.147 626.925C138.127 627.066 138.074 627.193 137.996 627.284C137.918 627.375 137.821 627.424 137.72 627.424H133.164C133.1 627.424 133.037 627.404 132.979 627.365C132.921 627.326 132.869 627.27 132.829 627.199C132.788 627.129 132.759 627.047 132.743 626.958C132.727 626.87 132.725 626.778 132.737 626.688L136.836 596.624C136.855 596.483 136.908 596.356 136.986 596.265C137.064 596.174 137.161 596.124 137.262 596.124H141.818C141.882 596.124 141.945 596.144 142.003 596.183C142.061 596.222 142.112 596.278 142.153 596.349C142.194 596.419 142.223 596.501 142.239 596.59C142.255 596.678 142.257 596.77 142.245 596.86L141.256 604.117H144.789C147.481 604.117 149.306 604.792 150.369 606.185C151.452 607.605 151.791 609.874 151.374 612.933L149.467 626.925C149.448 627.066 149.395 627.192 149.317 627.283C149.239 627.374 149.142 627.424 149.041 627.424L144.412 627.425Z" fill="black"/>
<path d="M141.819 595.505H137.262C137.06 595.505 136.865 595.605 136.71 595.787C136.554 595.97 136.448 596.224 136.409 596.506L132.311 626.57C132.287 626.749 132.291 626.933 132.322 627.11C132.354 627.287 132.412 627.452 132.494 627.592C132.575 627.733 132.677 627.847 132.793 627.925C132.909 628.003 133.035 628.043 133.163 628.043H137.72C137.922 628.043 138.117 627.943 138.272 627.761C138.428 627.578 138.534 627.324 138.572 627.042L140.783 610.82H143.709C145.064 610.82 145.349 611.232 145.36 611.251C145.442 611.376 145.551 611.959 145.372 613.268L143.559 626.57C143.535 626.749 143.539 626.933 143.57 627.11C143.602 627.287 143.661 627.452 143.742 627.593C143.824 627.734 143.926 627.847 144.042 627.925C144.157 628.003 144.284 628.043 144.412 628.043H149.042C149.243 628.043 149.438 627.943 149.594 627.76C149.749 627.578 149.855 627.324 149.894 627.042L151.801 613.052C152.247 609.767 151.865 607.304 150.663 605.73C149.516 604.227 147.594 603.498 144.789 603.498H141.783L142.671 596.979C142.696 596.8 142.692 596.615 142.66 596.438C142.629 596.261 142.57 596.096 142.489 595.956C142.407 595.815 142.305 595.701 142.189 595.623C142.073 595.545 141.947 595.505 141.819 595.505ZM141.819 596.743L140.729 604.734H144.789C147.344 604.734 149.106 605.371 150.075 606.641C151.046 607.912 151.336 609.97 150.949 612.817L149.041 626.806H144.412L146.225 613.504C146.431 611.991 146.355 610.959 145.997 610.408C145.639 609.858 144.876 609.583 143.711 609.583H140.067L137.72 626.805H133.162L137.261 596.741L141.819 596.743Z" fill="white"/>
<path d="M158.585 621.443C160.331 621.443 161.634 620.984 162.459 620.08C163.274 619.183 163.838 617.632 164.133 615.468C164.408 613.446 164.304 612.034 163.821 611.271C163.328 610.493 162.262 610.098 160.654 610.098H157.864L156.318 621.443H158.585ZM149.462 635.418C149.398 635.418 149.335 635.398 149.277 635.359C149.219 635.32 149.168 635.263 149.127 635.193C149.086 635.122 149.057 635.04 149.041 634.951C149.026 634.862 149.024 634.77 149.036 634.68L153.134 604.617C153.154 604.476 153.207 604.349 153.285 604.258C153.362 604.167 153.46 604.117 153.561 604.117H162.394C165.17 604.117 167.236 605.192 168.535 607.311C169.841 609.441 170.244 612.421 169.733 616.164C169.538 617.639 169.18 619.06 168.671 620.374C168.154 621.679 167.494 622.858 166.716 623.867C165.76 625.143 164.676 626.07 163.499 626.614C162.342 627.152 160.854 627.425 159.08 627.425H155.503L154.482 634.917C154.463 635.058 154.41 635.185 154.332 635.277C154.254 635.368 154.156 635.418 154.056 635.418H149.462Z" fill="black"/>
<path d="M158.222 610.716H160.654C162.596 610.716 163.27 611.324 163.499 611.687C163.88 612.287 163.951 613.555 163.707 615.351C163.432 617.362 162.923 618.789 162.194 619.589C161.447 620.409 160.232 620.824 158.586 620.824H156.844L158.222 610.716ZM162.393 603.499H153.56C153.359 603.499 153.164 603.599 153.008 603.781C152.853 603.964 152.747 604.218 152.708 604.499L148.609 634.563C148.585 634.743 148.589 634.927 148.621 635.104C148.652 635.281 148.711 635.445 148.792 635.586C148.874 635.727 148.976 635.84 149.092 635.918C149.208 635.996 149.334 636.036 149.462 636.036H154.056C154.257 636.036 154.452 635.936 154.608 635.753C154.763 635.571 154.869 635.317 154.907 635.035L155.861 628.043H159.079C160.899 628.043 162.432 627.76 163.633 627.202C164.869 626.63 166.006 625.66 167.013 624.317C167.823 623.265 168.51 622.036 169.049 620.676C169.569 619.351 169.942 617.872 170.159 616.282C170.696 612.341 170.26 609.185 168.861 606.904C167.476 604.644 165.301 603.499 162.393 603.499ZM155.791 622.061H158.585C160.438 622.061 161.816 621.564 162.724 620.568C163.63 619.574 164.241 617.913 164.559 615.586C164.863 613.351 164.725 611.775 164.143 610.856C163.562 609.938 162.399 609.479 160.654 609.479H157.507L155.791 622.061ZM162.393 604.734C165.05 604.734 166.989 605.729 168.207 607.717C169.426 609.706 169.793 612.482 169.307 616.045C169.107 617.513 168.768 618.855 168.292 620.071C167.815 621.288 167.192 622.4 166.422 623.41C165.505 624.633 164.486 625.506 163.364 626.025C162.244 626.545 160.816 626.805 159.079 626.805H155.145L154.054 634.798H149.461L153.559 604.734H162.393Z" fill="white"/>
<path d="M314.798 626.633L317.23 635.322C317.776 637.295 318.004 638.672 317.912 639.457C319.242 635.535 320.171 631.26 320.7 626.633H323.623C322.366 634.166 320.708 639.639 318.65 643.053C317.047 645.684 315.29 647 313.377 647C312.867 647 312.239 646.83 311.493 646.493V644.678C311.857 644.737 312.285 644.768 312.777 644.768C313.669 644.768 314.388 644.496 314.935 643.952C315.591 643.29 315.919 642.545 315.919 641.72C315.919 641.156 315.663 640 315.154 638.251L311.766 626.633H314.798ZM296.191 621.293L300.644 636.258H300.672L305.152 621.293H308.813C309.614 628.715 310.088 635.505 310.233 641.66H307.147C307.038 635.906 306.737 630.496 306.246 625.428H306.219L301.519 641.66H299.169L294.497 625.428H294.47C294.123 630.295 293.905 635.706 293.814 641.66H291C291.182 634.418 291.637 627.63 292.365 621.293H296.191Z" fill="#00758F"/>
<path d="M346.078 620.991C350.868 620.991 353.263 624.362 353.263 631.1C353.263 634.761 352.543 637.527 351.104 639.396C350.844 639.737 350.557 640.032 350.256 640.305L353.645 642.151L353.642 642.151L352.439 644.44L348.024 641.603C347.292 641.842 346.487 641.961 345.61 641.961C343.258 641.961 341.501 641.206 340.339 639.698C339.064 638.03 338.427 635.404 338.427 631.824C338.427 628.183 339.146 625.427 340.586 623.557C341.897 621.845 343.728 620.991 346.078 620.991ZM331.409 621.021C333.121 621.021 334.678 621.525 336.08 622.531L335.368 624.279C334.168 623.717 332.985 623.435 331.818 623.435C330.872 623.435 330.142 623.686 329.634 624.191C329.123 624.691 328.807 625.335 328.807 626.12C328.807 627.327 329.587 628.373 331.028 629.257C331.5 629.541 331.97 629.828 332.439 630.119L332.708 630.286L332.869 630.386C333.96 631.063 334.986 631.709 334.986 631.709C336.427 632.836 337.145 634.037 337.145 636.015C337.145 637.742 336.57 639.16 335.424 640.269C334.278 641.374 332.738 641.928 330.809 641.928C329.005 641.928 327.257 641.29 325.563 640.026L326.356 638.277C327.813 639.081 329.132 639.483 330.316 639.483C331.427 639.483 332.296 639.21 332.925 638.67C333.552 638.127 333.929 637.369 333.929 636.409C333.929 635.199 333.165 634.165 331.764 633.298C331.325 633.031 330.888 632.762 330.452 632.49L330.345 632.423C330.147 632.3 329.949 632.176 329.754 632.054L329.649 631.988C328.703 631.396 327.885 630.878 327.885 630.878C326.484 629.749 325.782 628.539 325.782 626.544C325.782 624.894 326.306 623.56 327.352 622.546C328.4 621.529 329.753 621.021 331.409 621.021ZM358.893 621.293V639.155H364.711V641.66H355.942V621.293H358.893ZM367.944 639.163V639.586H367.305V641.658H366.815V639.586H366.151V639.163H367.944ZM369.125 639.163L369.74 640.864L370.304 639.163H370.997V641.658H370.536V639.759L369.894 641.658H369.562L368.918 639.759H368.894V641.658H368.458V639.163H369.125ZM345.777 623.496C342.954 623.496 341.542 626.062 341.542 631.19C341.542 634.128 341.916 636.258 342.663 637.586C343.355 638.815 344.438 639.428 345.914 639.428C348.737 639.428 350.149 636.842 350.149 631.672C350.149 628.776 349.774 626.664 349.028 625.335C348.336 624.109 347.252 623.496 345.777 623.496Z" fill="#F29111"/>
<path d="M338.378 588.262C339.314 585.728 342.588 587.647 343.859 588.532C344.17 588.754 344.528 589.222 344.885 589.395C345.442 589.419 345.998 589.467 346.556 589.492C347.603 589.763 348.583 589.985 349.408 590.502C353.24 592.988 355.735 595.521 358.031 599.705C358.522 600.592 358.767 601.551 359.168 602.51C359.724 603.94 360.349 605.44 360.995 606.792C361.284 607.433 361.507 608.146 361.909 608.687C362.065 608.934 362.511 609.007 362.777 609.155C363.512 609.575 364.404 609.893 365.095 610.385C366.387 611.272 367.637 612.33 368.772 613.412C369.196 613.83 369.484 614.422 369.887 614.864V615.087C369.529 615.208 369.173 615.332 368.816 615.431C368.036 615.651 367.345 615.602 366.588 615.822C366.121 615.972 365.54 616.169 365.05 616.219L365.095 616.269C365.384 617.177 366.945 617.915 367.658 618.458C368.525 619.147 369.328 619.983 369.975 620.943C370.198 621.188 370.422 621.411 370.644 621.655C370.799 621.902 370.843 622.222 371 622.443V622.518C370.826 622.45 370.701 622.321 370.582 622.186L370.511 622.105C370.441 622.024 370.369 621.944 370.288 621.879C369.796 621.509 369.307 621.066 368.816 620.722C367.97 620.131 366.989 619.788 366.121 619.195C365.63 618.85 365.162 618.458 364.694 618.064C364.27 617.719 363.803 617.055 363.536 616.563C363.379 616.291 363.357 615.972 363.178 615.775C363.21 615.446 363.483 615.349 363.759 615.269L363.823 615.25C363.918 615.223 364.011 615.196 364.092 615.16C365.251 614.618 366.632 614.422 368.415 614.471C368.348 613.978 367.234 613.363 366.878 613.068C366.164 612.501 365.408 611.909 364.65 611.393C364.249 611.123 363.557 610.926 363.112 610.705C362.511 610.434 361.173 610.164 360.84 609.648C360.273 608.834 359.867 607.864 359.472 606.884L359.364 606.617C359.328 606.528 359.292 606.439 359.256 606.35C358.789 605.17 358.209 603.939 357.741 602.731C357.497 602.141 357.384 601.624 357.116 601.059C355.49 597.59 353.084 594.685 350.166 592.643C349.207 591.978 348.137 591.363 346.957 590.945C346.288 590.722 345.485 590.845 344.773 590.675H344.304C343.903 590.55 343.569 590.083 343.257 589.837C342.567 589.321 341.876 588.974 341.051 588.606C340.762 588.458 339.937 588.115 339.648 588.385C339.47 588.435 339.38 588.509 339.336 588.706C339.158 589 339.314 589.444 339.425 589.715C339.759 590.502 340.227 590.969 340.651 591.634C341.029 592.223 341.498 592.888 341.765 593.529C342.343 594.906 342.612 596.432 343.147 597.81C343.345 598.328 343.659 598.917 343.948 599.385C344.193 599.756 344.638 600.024 344.773 600.493C345.041 600.985 344.371 602.609 344.216 603.125C343.635 605.143 343.748 607.949 344.416 609.698L344.452 609.79L344.487 609.884C344.732 610.525 344.993 611.214 345.642 611.394C345.686 611.345 345.642 611.37 345.73 611.345C345.887 609.991 345.932 608.687 346.355 607.627C346.6 606.965 347.089 606.497 347.424 605.956C347.648 606.103 347.648 606.547 347.781 606.841C348.071 607.604 348.382 608.44 348.74 609.204C349.473 610.779 350.299 612.306 351.235 613.683C351.548 614.175 351.992 614.717 352.393 615.16C352.572 615.331 352.772 615.43 352.906 615.651H352.95V615.726C352.281 615.454 351.858 614.693 351.325 614.248C350.321 613.412 349.119 612.157 348.427 610.952C348.138 610.261 347.825 609.598 347.513 608.91V608.86C347.38 609.057 347.424 609.252 347.357 609.549C347.068 610.779 347.291 612.182 346.288 612.624C345.152 613.142 344.304 611.788 343.948 611.173C342.811 609.131 342.5 605.686 343.302 602.905C343.48 602.289 343.504 601.551 343.815 601.059C343.748 600.615 343.437 600.493 343.257 600.221C342.945 599.756 342.678 599.214 342.434 598.697C341.965 597.687 341.631 596.481 341.275 595.399C341.118 594.956 341.073 594.513 340.917 594.094C340.651 593.455 340.16 592.814 339.782 592.249C339.269 591.437 337.776 589.863 338.378 588.262ZM345.686 593.083C345.745 593.149 345.817 593.207 345.892 593.263L345.981 593.331C346.101 593.422 346.217 593.518 346.288 593.649C346.4 593.822 346.421 593.993 346.556 594.166C346.556 594.758 346.4 595.151 346.086 595.396C346.086 595.396 346.065 595.422 346.042 595.446C345.864 595.052 345.708 594.66 345.529 594.266C345.308 593.922 344.996 593.649 344.816 593.256H344.772V593.207C345.041 593.134 345.308 593.083 345.686 593.083Z" fill="#00758F"/>
<rect x="2.5" y="2.5" width="469" height="683" rx="102.5" stroke="url(#paint3_linear_83_197)" stroke-width="5"/>
<defs>
<linearGradient id="paint0_linear_83_197" x1="293.656" y1="470.503" x2="344.684" y2="521.554" gradientUnits="userSpaceOnUse">
<stop stop-color="#387EB8"/>
<stop offset="1" stop-color="#366994"/>
</linearGradient>
<linearGradient id="paint1_linear_83_197" x1="313.364" y1="492.693" x2="356.973" y2="530.524" gradientUnits="userSpaceOnUse">
<stop stop-color="#FFE052"/>
<stop offset="1" stop-color="#FFC331"/>
</linearGradient>
<radialGradient id="paint2_radial_83_197" cx="0" cy="0" r="1" gradientUnits="userSpaceOnUse" gradientTransform="translate(125.016 598.547) scale(52.5258 74.8876)">
<stop stop-color="#AEB2D5"/>
<stop offset="0.3" stop-color="#AEB2D5"/>
<stop offset="0.75" stop-color="#484C89"/>
<stop offset="1" stop-color="#484C89"/>
</radialGradient>
<linearGradient id="paint3_linear_83_197" x1="237" y1="5" x2="237" y2="683" gradientUnits="userSpaceOnUse">
<stop stop-color="#100892"/>
<stop offset="0.359375" stop-color="#F653E9"/>
<stop offset="0.692708" stop-color="#FFB6F9"/>
<stop offset="1" stop-color="#5865F2"/>
</linearGradient>
</defs>
</svg>
