<svg width="550" height="356" viewBox="0 0 550 356" fill="none" xmlns="http://www.w3.org/2000/svg">
<rect x="2.5" y="2.5" width="545" height="351" rx="52.5" fill="black" fill-opacity="0.6"/>
<path fill-rule="evenodd" clip-rule="evenodd" d="M111.333 71.3367C103.97 71.3367 98 65.3672 98 58.0034C98 50.6396 103.97 44.67 111.333 44.67C117.843 44.67 123.262 49.3346 124.433 55.5034H468.333C469.714 55.5034 470.833 56.6227 470.833 58.0034C470.833 59.3841 469.714 60.5034 468.333 60.5034H124.433C123.262 66.6722 117.843 71.3367 111.333 71.3367Z" fill="url(#paint0_linear_74_174)"/>
<path fill-rule="evenodd" clip-rule="evenodd" d="M111.333 131.337C103.97 131.337 98 125.367 98 118.003C98 110.64 103.97 104.67 111.333 104.67C117.843 104.67 123.262 109.335 124.433 115.503H415.333C416.714 115.503 417.833 116.623 417.833 118.003C417.833 119.384 416.714 120.503 415.333 120.503H124.433C123.262 126.672 117.843 131.337 111.333 131.337Z" fill="url(#paint1_linear_74_174)"/>
<path fill-rule="evenodd" clip-rule="evenodd" d="M111.333 186.337C103.97 186.337 98 180.367 98 173.003C98 165.64 103.97 159.67 111.333 159.67C117.843 159.67 123.262 164.335 124.433 170.503H332.333C333.714 170.503 334.833 171.623 334.833 173.003C334.833 174.384 333.714 175.503 332.333 175.503H124.433C123.262 181.672 117.843 186.337 111.333 186.337Z" fill="url(#paint2_linear_74_174)"/>
<path fill-rule="evenodd" clip-rule="evenodd" d="M113.333 246.337C105.97 246.337 100 240.367 100 233.003C100 225.64 105.97 219.67 113.333 219.67C119.843 219.67 125.262 224.335 126.433 230.503H391.333C392.714 230.503 393.833 231.623 393.833 233.003C393.833 234.384 392.714 235.503 391.333 235.503H126.433C125.262 241.672 119.843 246.337 113.333 246.337Z" fill="url(#paint3_linear_74_174)"/>
<path fill-rule="evenodd" clip-rule="evenodd" d="M113.333 303.337C105.97 303.337 100 297.367 100 290.003C100 282.64 105.97 276.67 113.333 276.67C119.843 276.67 125.262 281.335 126.433 287.503H468.333C469.714 287.503 470.833 288.623 470.833 290.003C470.833 291.384 469.714 292.503 468.333 292.503H126.433C125.262 298.672 119.843 303.337 113.333 303.337Z" fill="url(#paint4_linear_74_174)"/>
<path d="M40.3368 323C44.9368 323 48.6701 319.267 48.6701 314.667V306.333H40.3368C35.7368 306.333 32.0034 310.067 32.0034 314.667C32.0034 319.267 35.7368 323 40.3368 323Z" fill="#0ACF83"/>
<path d="M32.0034 298C32.0034 293.4 35.7368 289.667 40.3368 289.667H48.6701V306.333H40.3368C35.7368 306.333 32.0034 302.6 32.0034 298Z" fill="#A259FF"/>
<path d="M32.0034 281.333C32.0034 276.733 35.7368 273 40.3368 273H48.6701V289.667H40.3368C35.7368 289.667 32.0034 285.933 32.0034 281.333Z" fill="#F24E1E"/>
<path d="M48.6701 273H57.0034C61.6034 273 65.3368 276.733 65.3368 281.333C65.3368 285.933 61.6034 289.667 57.0034 289.667L48.6701 289.667V273Z" fill="#FF7262"/>
<path d="M65.3368 298C65.3368 302.6 61.6034 306.333 57.0034 306.333C52.4034 306.333 48.6701 302.6 48.6701 298C48.6701 293.4 52.4034 289.667 57.0034 289.667C61.6034 289.667 65.3368 293.4 65.3368 298Z" fill="#1ABCFE"/>
<path d="M33.3863 213C30.5336 213 28.4226 215.507 28.5171 218.225C28.608 220.837 28.49 224.22 27.6418 226.979C26.7911 229.745 25.3522 231.498 23.002 231.723V234.264C25.3522 234.489 26.7911 236.241 27.6418 239.008C28.49 241.767 28.608 245.149 28.5171 247.761C28.4226 250.479 30.5336 252.987 33.3867 252.987H62.6174C65.4703 252.987 67.5807 250.48 67.4862 247.761C67.3956 245.149 67.5133 241.767 68.3615 239.008C69.2128 236.241 70.6478 234.488 72.998 234.264V231.723C70.6478 231.498 69.2128 229.745 68.3617 226.979C67.5133 224.221 67.3956 220.837 67.4862 218.225C67.5807 215.507 65.4703 213 62.6174 213H33.3863ZM56.8977 237.614C56.8977 241.358 54.1167 243.628 49.5014 243.628H41.6446C41.4199 243.628 41.2044 243.538 41.0456 243.379C40.8867 243.219 40.7974 243.003 40.7974 242.777V223.209C40.7974 223.098 40.8193 222.987 40.8619 222.884C40.9045 222.781 40.9669 222.687 41.0456 222.608C41.1243 222.529 41.2177 222.466 41.3205 222.423C41.4233 222.38 41.5335 222.358 41.6448 222.358H49.4565C53.3049 222.358 55.8304 224.452 55.8304 227.665C55.8304 229.92 54.1314 231.94 51.9669 232.293V232.411C54.9137 232.735 56.8977 234.784 56.8977 237.614ZM48.6445 225.055H44.1649V231.408H47.9381C50.8547 231.408 52.4631 230.229 52.4631 228.121C52.4631 226.146 51.0798 225.055 48.6445 225.055ZM44.1649 233.929V240.93H48.8095C51.846 240.93 53.4548 239.707 53.4548 237.408C53.4548 235.108 51.8013 233.929 48.6142 233.929L44.1649 233.929Z" fill="#7E13F8"/>
<path d="M28 155H68V195H28V155Z" fill="#F7DF1E"/>
<path d="M38.5175 188.427L41.5784 186.574C42.1691 187.621 42.7062 188.507 43.9948 188.507C45.23 188.507 46.0089 188.024 46.0089 186.145V173.364H49.7678V186.198C49.7678 190.091 47.4856 191.863 44.1559 191.863C41.1489 191.863 39.4036 190.306 38.5175 188.427ZM51.8095 188.024L54.8702 186.252C55.6759 187.568 56.7231 188.534 58.5756 188.534C60.1333 188.534 61.1264 187.756 61.1264 186.682C61.1264 185.393 60.1061 184.936 58.3877 184.185L57.4481 183.782C54.7361 182.627 52.9372 181.177 52.9372 178.116C52.9372 175.297 55.0852 173.149 58.4416 173.149C60.8312 173.149 62.5497 173.981 63.7847 176.156L60.8578 178.036C60.2133 176.881 59.5155 176.425 58.4414 176.425C57.3405 176.425 56.6423 177.123 56.6423 178.036C56.6423 179.164 57.3405 179.62 58.9514 180.318L59.8911 180.721C63.0864 182.091 64.8853 183.487 64.8853 186.628C64.8853 190.011 62.2272 191.864 58.6561 191.864C55.1656 191.864 52.9103 190.199 51.8095 188.024Z" fill="black"/>
<path d="M33.8794 133.663L30.7375 98.4225H65.2626L62.1176 133.658L47.9791 137.578L33.8794 133.663Z" fill="#1572B6"/>
<path d="M48.0004 134.582L59.425 131.414L62.1129 101.304H48.0004V134.582Z" fill="#33A9DC"/>
<path d="M48.0004 114.072H53.7197L54.1147 109.646H48.0004V105.323H58.8385L57.6722 118.394H48.0004V114.072Z" fill="white"/>
<path d="M48.026 125.297L48.0069 125.302L43.1935 124.002L42.8857 120.555H38.5475L39.1529 127.342L48.0063 129.799L48.026 129.793V125.297Z" fill="#EBEBEB"/>
<path d="M53.3522 118.211L52.8316 123.999L48.011 125.3V129.797L56.8716 127.342L57.6885 118.211H53.3522Z" fill="white"/>
<path d="M48.015 105.323V109.646H37.575L37.1882 105.323H48.015ZM48.0004 114.072V118.394L43.2475 118.394L42.9638 115.232L42.8607 114.072L48.0004 114.072Z" fill="#EBEBEB"/>
<path d="M33.9491 73.5862L30.8225 38.519H65.1775L62.0475 73.5809L47.9791 77.4809L33.9491 73.5862Z" fill="#E44D26"/>
<path d="M48 74.5L59.3681 71.3481L62.0428 41.3862H48V74.5Z" fill="#F16529"/>
<path d="M48 54.3922H42.3088L41.9156 49.9878H48V45.6872H37.2153L38.3753 58.6931H48V54.3922ZM48 65.5619L47.9809 65.5672L43.1913 64.2734L42.8853 60.8437H38.5675L39.17 67.5965L47.9803 70.0422L48 70.0369V65.5619Z" fill="#EBEBEB"/>
<path d="M47.985 54.3922V58.6931H53.2809L52.7819 64.2709L47.985 65.5656V70.0403L56.8022 67.5965L57.8775 55.5472L57.9822 54.3922H47.985ZM47.985 45.6872V49.9878H58.3738L58.7591 45.6872H47.985Z" fill="white"/>
<path d="M126.295 55V31.7273H130.511V41.5795H141.295V31.7273H145.523V55H141.295V45.1136H130.511V55H126.295ZM149.085 35.2614V31.7273H167.653V35.2614H160.46V55H156.278V35.2614H149.085ZM171.233 31.7273H176.392L183.301 48.5909H183.574L190.483 31.7273H195.642V55H191.597V39.0114H191.381L184.949 54.9318H181.926L175.494 38.9773H175.278V55H171.233V31.7273ZM200.233 55V31.7273H204.449V51.4659H214.699V55H200.233Z" fill="white"/>
<path d="M146.216 98.5795H141.966C141.845 97.8826 141.621 97.2652 141.295 96.7273C140.97 96.1818 140.564 95.7197 140.08 95.3409C139.595 94.9621 139.042 94.678 138.42 94.4886C137.807 94.2917 137.144 94.1932 136.432 94.1932C135.167 94.1932 134.045 94.5114 133.068 95.1477C132.091 95.7765 131.326 96.7008 130.773 97.9205C130.22 99.1326 129.943 100.614 129.943 102.364C129.943 104.144 130.22 105.644 130.773 106.864C131.333 108.076 132.098 108.992 133.068 109.614C134.045 110.227 135.163 110.534 136.42 110.534C137.117 110.534 137.769 110.443 138.375 110.261C138.989 110.072 139.538 109.795 140.023 109.432C140.515 109.068 140.928 108.621 141.261 108.091C141.602 107.561 141.837 106.955 141.966 106.273L146.216 106.295C146.057 107.402 145.712 108.439 145.182 109.409C144.659 110.379 143.973 111.235 143.125 111.977C142.277 112.712 141.284 113.288 140.148 113.705C139.011 114.114 137.75 114.318 136.364 114.318C134.318 114.318 132.492 113.845 130.886 112.898C129.28 111.951 128.015 110.583 127.091 108.795C126.167 107.008 125.705 104.864 125.705 102.364C125.705 99.8561 126.17 97.7121 127.102 95.9318C128.034 94.1439 129.303 92.7765 130.909 91.8295C132.515 90.8826 134.333 90.4091 136.364 90.4091C137.659 90.4091 138.864 90.5909 139.977 90.9545C141.091 91.3182 142.083 91.8523 142.955 92.5568C143.826 93.2538 144.542 94.1098 145.102 95.125C145.67 96.1326 146.042 97.2841 146.216 98.5795ZM162.724 97.125C162.618 96.1326 162.171 95.3598 161.384 94.8068C160.603 94.2538 159.588 93.9773 158.338 93.9773C157.459 93.9773 156.705 94.1098 156.077 94.375C155.448 94.6402 154.967 95 154.634 95.4545C154.3 95.9091 154.13 96.428 154.122 97.0114C154.122 97.4962 154.232 97.9167 154.452 98.2727C154.679 98.6288 154.986 98.9318 155.372 99.1818C155.759 99.4242 156.187 99.6288 156.656 99.7955C157.126 99.9621 157.599 100.102 158.077 100.216L160.259 100.761C161.137 100.966 161.982 101.242 162.793 101.591C163.611 101.939 164.342 102.379 164.986 102.909C165.637 103.439 166.152 104.08 166.531 104.83C166.91 105.58 167.099 106.458 167.099 107.466C167.099 108.83 166.751 110.03 166.054 111.068C165.357 112.098 164.349 112.905 163.031 113.489C161.721 114.064 160.134 114.352 158.27 114.352C156.459 114.352 154.887 114.072 153.554 113.511C152.228 112.951 151.19 112.133 150.44 111.057C149.698 109.981 149.296 108.67 149.236 107.125H153.384C153.444 107.936 153.694 108.61 154.134 109.148C154.573 109.686 155.145 110.087 155.849 110.352C156.562 110.617 157.357 110.75 158.236 110.75C159.152 110.75 159.955 110.614 160.645 110.341C161.342 110.061 161.887 109.674 162.281 109.182C162.675 108.682 162.876 108.098 162.884 107.432C162.876 106.826 162.698 106.326 162.349 105.932C162.001 105.53 161.512 105.197 160.884 104.932C160.262 104.659 159.535 104.417 158.702 104.205L156.054 103.523C154.137 103.03 152.622 102.284 151.509 101.284C150.402 100.277 149.849 98.9394 149.849 97.2727C149.849 95.9015 150.221 94.7008 150.963 93.6705C151.713 92.6402 152.732 91.8409 154.02 91.2727C155.308 90.697 156.766 90.4091 158.395 90.4091C160.046 90.4091 161.493 90.697 162.736 91.2727C163.986 91.8409 164.967 92.6326 165.679 93.6477C166.391 94.6553 166.759 95.8144 166.781 97.125H162.724ZM183.506 97.125C183.4 96.1326 182.953 95.3598 182.165 94.8068C181.384 94.2538 180.369 93.9773 179.119 93.9773C178.241 93.9773 177.487 94.1098 176.858 94.375C176.229 94.6402 175.748 95 175.415 95.4545C175.081 95.9091 174.911 96.428 174.903 97.0114C174.903 97.4962 175.013 97.9167 175.233 98.2727C175.46 98.6288 175.767 98.9318 176.153 99.1818C176.54 99.4242 176.968 99.6288 177.438 99.7955C177.907 99.9621 178.381 100.102 178.858 100.216L181.04 100.761C181.919 100.966 182.763 101.242 183.574 101.591C184.392 101.939 185.123 102.379 185.767 102.909C186.419 103.439 186.934 104.08 187.312 104.83C187.691 105.58 187.881 106.458 187.881 107.466C187.881 108.83 187.532 110.03 186.835 111.068C186.138 112.098 185.131 112.905 183.812 113.489C182.502 114.064 180.915 114.352 179.051 114.352C177.241 114.352 175.669 114.072 174.335 113.511C173.009 112.951 171.972 112.133 171.222 111.057C170.479 109.981 170.078 108.67 170.017 107.125H174.165C174.225 107.936 174.475 108.61 174.915 109.148C175.354 109.686 175.926 110.087 176.631 110.352C177.343 110.617 178.138 110.75 179.017 110.75C179.934 110.75 180.737 110.614 181.426 110.341C182.123 110.061 182.669 109.674 183.062 109.182C183.456 108.682 183.657 108.098 183.665 107.432C183.657 106.826 183.479 106.326 183.131 105.932C182.782 105.53 182.294 105.197 181.665 104.932C181.044 104.659 180.316 104.417 179.483 104.205L176.835 103.523C174.919 103.03 173.403 102.284 172.29 101.284C171.184 100.277 170.631 98.9394 170.631 97.2727C170.631 95.9015 171.002 94.7008 171.744 93.6705C172.494 92.6402 173.513 91.8409 174.801 91.2727C176.089 90.697 177.547 90.4091 179.176 90.4091C180.828 90.4091 182.275 90.697 183.517 91.2727C184.767 91.8409 185.748 92.6326 186.46 93.6477C187.172 94.6553 187.54 95.8144 187.562 97.125H183.506Z" fill="white"/>
<path d="M135.477 145.727H139.659V162.091C139.652 163.591 139.333 164.883 138.705 165.966C138.076 167.042 137.197 167.871 136.068 168.455C134.947 169.03 133.64 169.318 132.148 169.318C130.784 169.318 129.557 169.076 128.466 168.591C127.383 168.098 126.523 167.371 125.886 166.409C125.25 165.447 124.932 164.25 124.932 162.818H129.125C129.133 163.447 129.269 163.989 129.534 164.443C129.807 164.898 130.182 165.246 130.659 165.489C131.136 165.731 131.686 165.852 132.307 165.852C132.981 165.852 133.553 165.712 134.023 165.432C134.492 165.144 134.848 164.72 135.091 164.159C135.341 163.598 135.47 162.909 135.477 162.091V145.727ZM149.074 169.352C147.968 169.352 146.972 169.155 146.085 168.761C145.206 168.36 144.509 167.769 143.994 166.989C143.487 166.208 143.233 165.246 143.233 164.102C143.233 163.117 143.415 162.303 143.778 161.659C144.142 161.015 144.638 160.5 145.267 160.114C145.896 159.727 146.604 159.436 147.392 159.239C148.188 159.034 149.009 158.886 149.858 158.795C150.881 158.689 151.71 158.595 152.347 158.511C152.983 158.42 153.445 158.284 153.733 158.102C154.028 157.913 154.176 157.621 154.176 157.227V157.159C154.176 156.303 153.922 155.64 153.415 155.17C152.907 154.701 152.176 154.466 151.222 154.466C150.214 154.466 149.415 154.686 148.824 155.125C148.241 155.564 147.847 156.083 147.642 156.682L143.801 156.136C144.104 155.076 144.604 154.189 145.301 153.477C145.998 152.758 146.85 152.22 147.858 151.864C148.866 151.5 149.979 151.318 151.199 151.318C152.04 151.318 152.877 151.417 153.71 151.614C154.544 151.811 155.305 152.136 155.994 152.591C156.684 153.038 157.237 153.648 157.653 154.42C158.078 155.193 158.29 156.159 158.29 157.318V169H154.335V166.602H154.199C153.949 167.087 153.597 167.542 153.142 167.966C152.695 168.383 152.131 168.72 151.449 168.977C150.775 169.227 149.983 169.352 149.074 169.352ZM150.142 166.33C150.968 166.33 151.684 166.167 152.29 165.841C152.896 165.508 153.362 165.068 153.688 164.523C154.021 163.977 154.188 163.383 154.188 162.739V160.682C154.059 160.788 153.839 160.886 153.528 160.977C153.225 161.068 152.884 161.148 152.506 161.216C152.127 161.284 151.752 161.345 151.381 161.398C151.009 161.451 150.688 161.496 150.415 161.534C149.801 161.617 149.252 161.754 148.767 161.943C148.282 162.133 147.9 162.398 147.619 162.739C147.339 163.072 147.199 163.504 147.199 164.034C147.199 164.792 147.475 165.364 148.028 165.75C148.581 166.136 149.286 166.33 150.142 166.33ZM177.392 151.545L171.176 169H166.631L160.415 151.545H164.801L168.812 164.511H168.994L173.017 151.545H177.392ZM184.761 169.352C183.655 169.352 182.659 169.155 181.773 168.761C180.894 168.36 180.197 167.769 179.682 166.989C179.174 166.208 178.92 165.246 178.92 164.102C178.92 163.117 179.102 162.303 179.466 161.659C179.83 161.015 180.326 160.5 180.955 160.114C181.583 159.727 182.292 159.436 183.08 159.239C183.875 159.034 184.697 158.886 185.545 158.795C186.568 158.689 187.398 158.595 188.034 158.511C188.67 158.42 189.133 158.284 189.42 158.102C189.716 157.913 189.864 157.621 189.864 157.227V157.159C189.864 156.303 189.61 155.64 189.102 155.17C188.595 154.701 187.864 154.466 186.909 154.466C185.902 154.466 185.102 154.686 184.511 155.125C183.928 155.564 183.534 156.083 183.33 156.682L179.489 156.136C179.792 155.076 180.292 154.189 180.989 153.477C181.686 152.758 182.538 152.22 183.545 151.864C184.553 151.5 185.667 151.318 186.886 151.318C187.727 151.318 188.564 151.417 189.398 151.614C190.231 151.811 190.992 152.136 191.682 152.591C192.371 153.038 192.924 153.648 193.341 154.42C193.765 155.193 193.977 156.159 193.977 157.318V169H190.023V166.602H189.886C189.636 167.087 189.284 167.542 188.83 167.966C188.383 168.383 187.818 168.72 187.136 168.977C186.462 169.227 185.67 169.352 184.761 169.352ZM185.83 166.33C186.655 166.33 187.371 166.167 187.977 165.841C188.583 165.508 189.049 165.068 189.375 164.523C189.708 163.977 189.875 163.383 189.875 162.739V160.682C189.746 160.788 189.527 160.886 189.216 160.977C188.913 161.068 188.572 161.148 188.193 161.216C187.814 161.284 187.439 161.345 187.068 161.398C186.697 161.451 186.375 161.496 186.102 161.534C185.489 161.617 184.939 161.754 184.455 161.943C183.97 162.133 183.587 162.398 183.307 162.739C183.027 163.072 182.886 163.504 182.886 164.034C182.886 164.792 183.163 165.364 183.716 165.75C184.269 166.136 184.973 166.33 185.83 166.33ZM210.943 152.125C210.837 151.133 210.39 150.36 209.602 149.807C208.822 149.254 207.807 148.977 206.557 148.977C205.678 148.977 204.924 149.11 204.295 149.375C203.667 149.64 203.186 150 202.852 150.455C202.519 150.909 202.348 151.428 202.341 152.011C202.341 152.496 202.451 152.917 202.67 153.273C202.898 153.629 203.205 153.932 203.591 154.182C203.977 154.424 204.405 154.629 204.875 154.795C205.345 154.962 205.818 155.102 206.295 155.216L208.477 155.761C209.356 155.966 210.201 156.242 211.011 156.591C211.83 156.939 212.561 157.379 213.205 157.909C213.856 158.439 214.371 159.08 214.75 159.83C215.129 160.58 215.318 161.458 215.318 162.466C215.318 163.83 214.97 165.03 214.273 166.068C213.576 167.098 212.568 167.905 211.25 168.489C209.939 169.064 208.352 169.352 206.489 169.352C204.678 169.352 203.106 169.072 201.773 168.511C200.447 167.951 199.409 167.133 198.659 166.057C197.917 164.981 197.515 163.67 197.455 162.125H201.602C201.663 162.936 201.913 163.61 202.352 164.148C202.792 164.686 203.364 165.087 204.068 165.352C204.78 165.617 205.576 165.75 206.455 165.75C207.371 165.75 208.174 165.614 208.864 165.341C209.561 165.061 210.106 164.674 210.5 164.182C210.894 163.682 211.095 163.098 211.102 162.432C211.095 161.826 210.917 161.326 210.568 160.932C210.22 160.53 209.731 160.197 209.102 159.932C208.481 159.659 207.754 159.417 206.92 159.205L204.273 158.523C202.356 158.03 200.841 157.284 199.727 156.284C198.621 155.277 198.068 153.939 198.068 152.273C198.068 150.902 198.439 149.701 199.182 148.67C199.932 147.64 200.951 146.841 202.239 146.273C203.527 145.697 204.985 145.409 206.614 145.409C208.265 145.409 209.712 145.697 210.955 146.273C212.205 146.841 213.186 147.633 213.898 148.648C214.61 149.655 214.977 150.814 215 152.125H210.943ZM226.509 169.341C224.766 169.341 223.27 168.958 222.02 168.193C220.777 167.428 219.819 166.371 219.145 165.023C218.478 163.667 218.145 162.106 218.145 160.341C218.145 158.568 218.486 157.004 219.168 155.648C219.849 154.284 220.812 153.223 222.054 152.466C223.304 151.701 224.781 151.318 226.486 151.318C227.902 151.318 229.156 151.58 230.247 152.102C231.346 152.617 232.221 153.348 232.872 154.295C233.524 155.235 233.895 156.333 233.986 157.591H230.054C229.895 156.75 229.516 156.049 228.918 155.489C228.327 154.92 227.535 154.636 226.543 154.636C225.702 154.636 224.963 154.864 224.327 155.318C223.69 155.765 223.194 156.409 222.838 157.25C222.49 158.091 222.315 159.098 222.315 160.273C222.315 161.462 222.49 162.485 222.838 163.341C223.187 164.189 223.675 164.845 224.304 165.307C224.94 165.761 225.687 165.989 226.543 165.989C227.149 165.989 227.69 165.875 228.168 165.648C228.652 165.413 229.058 165.076 229.384 164.636C229.709 164.197 229.933 163.663 230.054 163.034H233.986C233.887 164.269 233.524 165.364 232.895 166.318C232.266 167.265 231.41 168.008 230.327 168.545C229.243 169.076 227.971 169.341 226.509 169.341ZM237.364 169V151.545H241.352V154.455H241.534C241.852 153.447 242.398 152.67 243.17 152.125C243.951 151.572 244.841 151.295 245.841 151.295C246.068 151.295 246.322 151.307 246.602 151.33C246.89 151.345 247.129 151.371 247.318 151.409V155.193C247.144 155.133 246.867 155.08 246.489 155.034C246.117 154.981 245.758 154.955 245.409 154.955C244.659 154.955 243.985 155.117 243.386 155.443C242.795 155.761 242.33 156.205 241.989 156.773C241.648 157.341 241.477 157.996 241.477 158.739V169H237.364ZM250.051 169V151.545H254.165V169H250.051ZM252.119 149.068C251.468 149.068 250.907 148.852 250.438 148.42C249.968 147.981 249.733 147.455 249.733 146.841C249.733 146.22 249.968 145.693 250.438 145.261C250.907 144.822 251.468 144.602 252.119 144.602C252.778 144.602 253.339 144.822 253.801 145.261C254.271 145.693 254.506 146.22 254.506 146.841C254.506 147.455 254.271 147.981 253.801 148.42C253.339 148.852 252.778 149.068 252.119 149.068ZM258.395 175.545V151.545H262.44V154.432H262.679C262.891 154.008 263.19 153.557 263.577 153.08C263.963 152.595 264.486 152.182 265.145 151.841C265.804 151.492 266.645 151.318 267.668 151.318C269.016 151.318 270.232 151.663 271.315 152.352C272.406 153.034 273.27 154.045 273.906 155.386C274.55 156.72 274.872 158.356 274.872 160.295C274.872 162.212 274.558 163.841 273.929 165.182C273.3 166.523 272.444 167.545 271.361 168.25C270.277 168.955 269.05 169.307 267.679 169.307C266.679 169.307 265.849 169.14 265.19 168.807C264.531 168.473 264.001 168.072 263.599 167.602C263.205 167.125 262.899 166.674 262.679 166.25H262.509V175.545H258.395ZM262.429 160.273C262.429 161.402 262.588 162.39 262.906 163.239C263.232 164.087 263.698 164.75 264.304 165.227C264.918 165.697 265.66 165.932 266.531 165.932C267.44 165.932 268.202 165.689 268.815 165.205C269.429 164.712 269.891 164.042 270.202 163.193C270.52 162.337 270.679 161.364 270.679 160.273C270.679 159.189 270.524 158.227 270.213 157.386C269.902 156.545 269.44 155.886 268.827 155.409C268.213 154.932 267.448 154.693 266.531 154.693C265.652 154.693 264.906 154.924 264.293 155.386C263.679 155.848 263.213 156.496 262.895 157.33C262.584 158.163 262.429 159.144 262.429 160.273ZM287.111 151.545V154.727H277.077V151.545H287.111ZM279.554 147.364H283.668V163.75C283.668 164.303 283.751 164.727 283.918 165.023C284.092 165.311 284.319 165.508 284.599 165.614C284.88 165.72 285.19 165.773 285.531 165.773C285.789 165.773 286.024 165.754 286.236 165.716C286.455 165.678 286.622 165.644 286.736 165.614L287.429 168.83C287.209 168.905 286.895 168.989 286.486 169.08C286.084 169.17 285.592 169.223 285.009 169.239C283.978 169.269 283.05 169.114 282.224 168.773C281.399 168.424 280.743 167.886 280.259 167.159C279.781 166.432 279.546 165.523 279.554 164.432V147.364Z" fill="white"/>
<path d="M126.295 230V206.727H135.205C136.886 206.727 138.284 206.992 139.398 207.523C140.519 208.045 141.356 208.761 141.909 209.67C142.47 210.58 142.75 211.61 142.75 212.761C142.75 213.708 142.568 214.519 142.205 215.193C141.841 215.86 141.352 216.402 140.739 216.818C140.125 217.235 139.439 217.534 138.682 217.716V217.943C139.508 217.989 140.299 218.242 141.057 218.705C141.822 219.159 142.447 219.803 142.932 220.636C143.417 221.47 143.659 222.477 143.659 223.659C143.659 224.864 143.367 225.947 142.784 226.909C142.201 227.864 141.322 228.617 140.148 229.17C138.973 229.723 137.496 230 135.716 230H126.295ZM130.511 226.477H135.045C136.576 226.477 137.678 226.186 138.352 225.602C139.034 225.011 139.375 224.254 139.375 223.33C139.375 222.64 139.205 222.019 138.864 221.466C138.523 220.905 138.038 220.466 137.409 220.148C136.78 219.822 136.03 219.659 135.159 219.659H130.511V226.477ZM130.511 216.625H134.682C135.409 216.625 136.064 216.492 136.648 216.227C137.231 215.955 137.689 215.572 138.023 215.08C138.364 214.58 138.534 213.989 138.534 213.307C138.534 212.405 138.216 211.663 137.58 211.08C136.951 210.496 136.015 210.205 134.773 210.205H130.511V216.625ZM154.759 230.341C153.054 230.341 151.577 229.966 150.327 229.216C149.077 228.466 148.107 227.417 147.418 226.068C146.736 224.72 146.395 223.144 146.395 221.341C146.395 219.538 146.736 217.958 147.418 216.602C148.107 215.246 149.077 214.193 150.327 213.443C151.577 212.693 153.054 212.318 154.759 212.318C156.463 212.318 157.94 212.693 159.19 213.443C160.44 214.193 161.406 215.246 162.088 216.602C162.777 217.958 163.122 219.538 163.122 221.341C163.122 223.144 162.777 224.72 162.088 226.068C161.406 227.417 160.44 228.466 159.19 229.216C157.94 229.966 156.463 230.341 154.759 230.341ZM154.781 227.045C155.705 227.045 156.478 226.792 157.099 226.284C157.721 225.769 158.183 225.08 158.486 224.216C158.796 223.352 158.952 222.39 158.952 221.33C158.952 220.261 158.796 219.295 158.486 218.432C158.183 217.561 157.721 216.867 157.099 216.352C156.478 215.837 155.705 215.58 154.781 215.58C153.834 215.58 153.046 215.837 152.418 216.352C151.796 216.867 151.33 217.561 151.02 218.432C150.717 219.295 150.565 220.261 150.565 221.33C150.565 222.39 150.717 223.352 151.02 224.216C151.33 225.08 151.796 225.769 152.418 226.284C153.046 226.792 153.834 227.045 154.781 227.045ZM174.227 230.341C172.523 230.341 171.045 229.966 169.795 229.216C168.545 228.466 167.576 227.417 166.886 226.068C166.205 224.72 165.864 223.144 165.864 221.341C165.864 219.538 166.205 217.958 166.886 216.602C167.576 215.246 168.545 214.193 169.795 213.443C171.045 212.693 172.523 212.318 174.227 212.318C175.932 212.318 177.409 212.693 178.659 213.443C179.909 214.193 180.875 215.246 181.557 216.602C182.246 217.958 182.591 219.538 182.591 221.341C182.591 223.144 182.246 224.72 181.557 226.068C180.875 227.417 179.909 228.466 178.659 229.216C177.409 229.966 175.932 230.341 174.227 230.341ZM174.25 227.045C175.174 227.045 175.947 226.792 176.568 226.284C177.189 225.769 177.652 225.08 177.955 224.216C178.265 223.352 178.42 222.39 178.42 221.33C178.42 220.261 178.265 219.295 177.955 218.432C177.652 217.561 177.189 216.867 176.568 216.352C175.947 215.837 175.174 215.58 174.25 215.58C173.303 215.58 172.515 215.837 171.886 216.352C171.265 216.867 170.799 217.561 170.489 218.432C170.186 219.295 170.034 220.261 170.034 221.33C170.034 222.39 170.186 223.352 170.489 224.216C170.799 225.08 171.265 225.769 171.886 226.284C172.515 226.792 173.303 227.045 174.25 227.045ZM194.798 212.545V215.727H184.764V212.545H194.798ZM187.241 208.364H191.355V224.75C191.355 225.303 191.438 225.727 191.605 226.023C191.779 226.311 192.007 226.508 192.287 226.614C192.567 226.72 192.878 226.773 193.219 226.773C193.476 226.773 193.711 226.754 193.923 226.716C194.143 226.678 194.31 226.644 194.423 226.614L195.116 229.83C194.897 229.905 194.582 229.989 194.173 230.08C193.772 230.17 193.279 230.223 192.696 230.239C191.666 230.269 190.738 230.114 189.912 229.773C189.086 229.424 188.431 228.886 187.946 228.159C187.469 227.432 187.234 226.523 187.241 225.432V208.364ZM211.784 217.159L208.034 217.568C207.928 217.189 207.742 216.833 207.477 216.5C207.22 216.167 206.871 215.898 206.432 215.693C205.992 215.489 205.455 215.386 204.818 215.386C203.962 215.386 203.242 215.572 202.659 215.943C202.083 216.314 201.799 216.795 201.807 217.386C201.799 217.894 201.985 218.307 202.364 218.625C202.75 218.943 203.386 219.205 204.273 219.409L207.25 220.045C208.902 220.402 210.129 220.966 210.932 221.739C211.742 222.511 212.152 223.523 212.159 224.773C212.152 225.871 211.83 226.841 211.193 227.682C210.564 228.515 209.689 229.167 208.568 229.636C207.447 230.106 206.159 230.341 204.705 230.341C202.568 230.341 200.848 229.894 199.545 229C198.242 228.098 197.466 226.845 197.216 225.239L201.227 224.852C201.409 225.64 201.795 226.235 202.386 226.636C202.977 227.038 203.746 227.239 204.693 227.239C205.67 227.239 206.455 227.038 207.045 226.636C207.644 226.235 207.943 225.739 207.943 225.148C207.943 224.648 207.75 224.235 207.364 223.909C206.985 223.583 206.394 223.333 205.591 223.159L202.614 222.534C200.939 222.186 199.701 221.598 198.898 220.773C198.095 219.939 197.697 218.886 197.705 217.614C197.697 216.538 197.989 215.606 198.58 214.818C199.178 214.023 200.008 213.409 201.068 212.977C202.136 212.538 203.367 212.318 204.761 212.318C206.807 212.318 208.417 212.754 209.591 213.625C210.773 214.496 211.504 215.674 211.784 217.159ZM224.267 212.545V215.727H214.233V212.545H224.267ZM216.71 208.364H220.824V224.75C220.824 225.303 220.907 225.727 221.074 226.023C221.248 226.311 221.475 226.508 221.756 226.614C222.036 226.72 222.347 226.773 222.688 226.773C222.945 226.773 223.18 226.754 223.392 226.716C223.612 226.678 223.778 226.644 223.892 226.614L224.585 229.83C224.366 229.905 224.051 229.989 223.642 230.08C223.241 230.17 222.748 230.223 222.165 230.239C221.134 230.269 220.206 230.114 219.381 229.773C218.555 229.424 217.9 228.886 217.415 228.159C216.938 227.432 216.703 226.523 216.71 225.432V208.364ZM227.707 230V212.545H231.696V215.455H231.878C232.196 214.447 232.741 213.67 233.514 213.125C234.295 212.572 235.185 212.295 236.185 212.295C236.412 212.295 236.666 212.307 236.946 212.33C237.234 212.345 237.473 212.371 237.662 212.409V216.193C237.488 216.133 237.211 216.08 236.832 216.034C236.461 215.981 236.101 215.955 235.753 215.955C235.003 215.955 234.329 216.117 233.73 216.443C233.139 216.761 232.673 217.205 232.332 217.773C231.991 218.341 231.821 218.996 231.821 219.739V230H227.707ZM245.105 230.352C243.999 230.352 243.003 230.155 242.116 229.761C241.238 229.36 240.541 228.769 240.026 227.989C239.518 227.208 239.264 226.246 239.264 225.102C239.264 224.117 239.446 223.303 239.81 222.659C240.173 222.015 240.67 221.5 241.298 221.114C241.927 220.727 242.635 220.436 243.423 220.239C244.219 220.034 245.041 219.886 245.889 219.795C246.912 219.689 247.741 219.595 248.378 219.511C249.014 219.42 249.476 219.284 249.764 219.102C250.06 218.913 250.207 218.621 250.207 218.227V218.159C250.207 217.303 249.954 216.64 249.446 216.17C248.938 215.701 248.207 215.466 247.253 215.466C246.245 215.466 245.446 215.686 244.855 216.125C244.272 216.564 243.878 217.083 243.673 217.682L239.832 217.136C240.135 216.076 240.635 215.189 241.332 214.477C242.029 213.758 242.882 213.22 243.889 212.864C244.897 212.5 246.01 212.318 247.23 212.318C248.071 212.318 248.908 212.417 249.741 212.614C250.575 212.811 251.336 213.136 252.026 213.591C252.715 214.038 253.268 214.648 253.685 215.42C254.109 216.193 254.321 217.159 254.321 218.318V230H250.366V227.602H250.23C249.98 228.087 249.628 228.542 249.173 228.966C248.726 229.383 248.162 229.72 247.48 229.977C246.806 230.227 246.014 230.352 245.105 230.352ZM246.173 227.33C246.999 227.33 247.715 227.167 248.321 226.841C248.927 226.508 249.393 226.068 249.719 225.523C250.052 224.977 250.219 224.383 250.219 223.739V221.682C250.09 221.788 249.87 221.886 249.56 221.977C249.257 222.068 248.916 222.148 248.537 222.216C248.158 222.284 247.783 222.345 247.412 222.398C247.041 222.451 246.719 222.496 246.446 222.534C245.832 222.617 245.283 222.754 244.798 222.943C244.313 223.133 243.931 223.398 243.651 223.739C243.37 224.072 243.23 224.504 243.23 225.034C243.23 225.792 243.507 226.364 244.06 226.75C244.613 227.136 245.317 227.33 246.173 227.33ZM258.457 236.545V212.545H262.503V215.432H262.741C262.954 215.008 263.253 214.557 263.639 214.08C264.026 213.595 264.548 213.182 265.207 212.841C265.866 212.492 266.707 212.318 267.73 212.318C269.079 212.318 270.295 212.663 271.378 213.352C272.469 214.034 273.332 215.045 273.969 216.386C274.613 217.72 274.935 219.356 274.935 221.295C274.935 223.212 274.62 224.841 273.991 226.182C273.363 227.523 272.507 228.545 271.423 229.25C270.34 229.955 269.113 230.307 267.741 230.307C266.741 230.307 265.912 230.14 265.253 229.807C264.594 229.473 264.063 229.072 263.662 228.602C263.268 228.125 262.961 227.674 262.741 227.25H262.571V236.545H258.457ZM262.491 221.273C262.491 222.402 262.651 223.39 262.969 224.239C263.295 225.087 263.76 225.75 264.366 226.227C264.98 226.697 265.723 226.932 266.594 226.932C267.503 226.932 268.264 226.689 268.878 226.205C269.491 225.712 269.954 225.042 270.264 224.193C270.582 223.337 270.741 222.364 270.741 221.273C270.741 220.189 270.586 219.227 270.276 218.386C269.965 217.545 269.503 216.886 268.889 216.409C268.276 215.932 267.51 215.693 266.594 215.693C265.715 215.693 264.969 215.924 264.355 216.386C263.741 216.848 263.276 217.496 262.957 218.33C262.647 219.163 262.491 220.144 262.491 221.273Z" fill="white"/>
<path d="M126.295 287V263.727H141.205V267.261H130.511V273.58H140.182V277.114H130.511V287H126.295ZM144.864 287V269.545H148.977V287H144.864ZM146.932 267.068C146.28 267.068 145.72 266.852 145.25 266.42C144.78 265.981 144.545 265.455 144.545 264.841C144.545 264.22 144.78 263.693 145.25 263.261C145.72 262.822 146.28 262.602 146.932 262.602C147.591 262.602 148.152 262.822 148.614 263.261C149.083 263.693 149.318 264.22 149.318 264.841C149.318 265.455 149.083 265.981 148.614 266.42C148.152 266.852 147.591 267.068 146.932 267.068ZM160.798 293.909C159.321 293.909 158.052 293.708 156.991 293.307C155.931 292.913 155.079 292.383 154.435 291.716C153.791 291.049 153.344 290.311 153.094 289.5L156.798 288.602C156.965 288.943 157.207 289.28 157.526 289.614C157.844 289.955 158.272 290.235 158.81 290.455C159.355 290.682 160.041 290.795 160.866 290.795C162.033 290.795 162.999 290.511 163.764 289.943C164.529 289.383 164.912 288.458 164.912 287.17V283.864H164.707C164.495 284.288 164.185 284.723 163.776 285.17C163.374 285.617 162.84 285.992 162.173 286.295C161.514 286.598 160.685 286.75 159.685 286.75C158.344 286.75 157.128 286.436 156.037 285.807C154.954 285.17 154.09 284.223 153.446 282.966C152.81 281.701 152.491 280.117 152.491 278.216C152.491 276.299 152.81 274.682 153.446 273.364C154.09 272.038 154.957 271.034 156.048 270.352C157.139 269.663 158.355 269.318 159.696 269.318C160.719 269.318 161.56 269.492 162.219 269.841C162.885 270.182 163.416 270.595 163.81 271.08C164.204 271.557 164.503 272.008 164.707 272.432H164.935V269.545H168.991V287.284C168.991 288.777 168.635 290.011 167.923 290.989C167.211 291.966 166.238 292.697 165.003 293.182C163.768 293.667 162.366 293.909 160.798 293.909ZM160.832 283.523C161.704 283.523 162.446 283.311 163.06 282.886C163.673 282.462 164.139 281.852 164.457 281.057C164.776 280.261 164.935 279.307 164.935 278.193C164.935 277.095 164.776 276.133 164.457 275.307C164.147 274.481 163.685 273.841 163.071 273.386C162.465 272.924 161.719 272.693 160.832 272.693C159.916 272.693 159.151 272.932 158.537 273.409C157.923 273.886 157.461 274.542 157.151 275.375C156.84 276.201 156.685 277.14 156.685 278.193C156.685 279.261 156.84 280.197 157.151 281C157.469 281.795 157.935 282.417 158.548 282.864C159.17 283.303 159.931 283.523 160.832 283.523ZM173.207 287V269.545H177.139V272.511H177.344C177.707 271.511 178.31 270.731 179.151 270.17C179.991 269.602 180.995 269.318 182.162 269.318C183.344 269.318 184.34 269.606 185.151 270.182C185.969 270.75 186.545 271.527 186.878 272.511H187.06C187.446 271.542 188.098 270.769 189.014 270.193C189.938 269.61 191.033 269.318 192.298 269.318C193.904 269.318 195.215 269.826 196.23 270.841C197.245 271.856 197.753 273.337 197.753 275.284V287H193.628V275.92C193.628 274.837 193.34 274.045 192.764 273.545C192.188 273.038 191.484 272.784 190.651 272.784C189.658 272.784 188.882 273.095 188.321 273.716C187.768 274.33 187.491 275.129 187.491 276.114V287H183.457V275.75C183.457 274.848 183.185 274.129 182.639 273.591C182.101 273.053 181.397 272.784 180.526 272.784C179.935 272.784 179.397 272.936 178.912 273.239C178.427 273.534 178.041 273.955 177.753 274.5C177.465 275.038 177.321 275.667 177.321 276.386V287H173.207ZM206.949 287.352C205.843 287.352 204.847 287.155 203.96 286.761C203.081 286.36 202.384 285.769 201.869 284.989C201.362 284.208 201.108 283.246 201.108 282.102C201.108 281.117 201.29 280.303 201.653 279.659C202.017 279.015 202.513 278.5 203.142 278.114C203.771 277.727 204.479 277.436 205.267 277.239C206.063 277.034 206.884 276.886 207.733 276.795C208.756 276.689 209.585 276.595 210.222 276.511C210.858 276.42 211.32 276.284 211.608 276.102C211.903 275.913 212.051 275.621 212.051 275.227V275.159C212.051 274.303 211.797 273.64 211.29 273.17C210.782 272.701 210.051 272.466 209.097 272.466C208.089 272.466 207.29 272.686 206.699 273.125C206.116 273.564 205.722 274.083 205.517 274.682L201.676 274.136C201.979 273.076 202.479 272.189 203.176 271.477C203.873 270.758 204.725 270.22 205.733 269.864C206.741 269.5 207.854 269.318 209.074 269.318C209.915 269.318 210.752 269.417 211.585 269.614C212.419 269.811 213.18 270.136 213.869 270.591C214.559 271.038 215.112 271.648 215.528 272.42C215.953 273.193 216.165 274.159 216.165 275.318V287H212.21V284.602H212.074C211.824 285.087 211.472 285.542 211.017 285.966C210.57 286.383 210.006 286.72 209.324 286.977C208.65 287.227 207.858 287.352 206.949 287.352ZM208.017 284.33C208.843 284.33 209.559 284.167 210.165 283.841C210.771 283.508 211.237 283.068 211.562 282.523C211.896 281.977 212.062 281.383 212.062 280.739V278.682C211.934 278.788 211.714 278.886 211.403 278.977C211.1 279.068 210.759 279.148 210.381 279.216C210.002 279.284 209.627 279.345 209.256 279.398C208.884 279.451 208.563 279.496 208.29 279.534C207.676 279.617 207.127 279.754 206.642 279.943C206.157 280.133 205.775 280.398 205.494 280.739C205.214 281.072 205.074 281.504 205.074 282.034C205.074 282.792 205.35 283.364 205.903 283.75C206.456 284.136 207.161 284.33 208.017 284.33Z" fill="white"/>
<rect x="2.5" y="2.5" width="545" height="351" rx="52.5" stroke="white" stroke-width="5"/>
<defs>
<linearGradient id="paint0_linear_74_174" x1="111.335" y1="58.5044" x2="468.332" y2="58.5046" gradientUnits="userSpaceOnUse">
<stop stop-color="#100892"/>
<stop offset="0.151042" stop-color="#F653E9"/>
<stop offset="0.3125" stop-color="#FFB6F9"/>
<stop offset="0.479167" stop-color="#5865F2"/>
<stop offset="0.640625" stop-color="#100892"/>
<stop offset="0.760417" stop-color="#F653E9"/>
<stop offset="0.875" stop-color="#FFB6F9"/>
<stop offset="1" stop-color="#100892"/>
</linearGradient>
<linearGradient id="paint1_linear_74_174" x1="111.334" y1="118.504" x2="415.333" y2="118.505" gradientUnits="userSpaceOnUse">
<stop stop-color="#100892"/>
<stop offset="0.151042" stop-color="#F653E9"/>
<stop offset="0.3125" stop-color="#FFB6F9"/>
<stop offset="0.479167" stop-color="#5865F2"/>
<stop offset="0.640625" stop-color="#100892"/>
<stop offset="0.760417" stop-color="#F653E9"/>
<stop offset="0.875" stop-color="#FFB6F9"/>
<stop offset="1" stop-color="#100892"/>
</linearGradient>
<linearGradient id="paint2_linear_74_174" x1="111.334" y1="173.504" x2="332.333" y2="173.504" gradientUnits="userSpaceOnUse">
<stop stop-color="#100892"/>
<stop offset="0.151042" stop-color="#F653E9"/>
<stop offset="0.3125" stop-color="#FFB6F9"/>
<stop offset="0.479167" stop-color="#5865F2"/>
<stop offset="0.640625" stop-color="#100892"/>
<stop offset="0.760417" stop-color="#F653E9"/>
<stop offset="0.875" stop-color="#FFB6F9"/>
<stop offset="1" stop-color="#100892"/>
</linearGradient>
<linearGradient id="paint3_linear_74_174" x1="113.334" y1="233.504" x2="391.333" y2="233.505" gradientUnits="userSpaceOnUse">
<stop stop-color="#100892"/>
<stop offset="0.151042" stop-color="#F653E9"/>
<stop offset="0.3125" stop-color="#FFB6F9"/>
<stop offset="0.479167" stop-color="#5865F2"/>
<stop offset="0.640625" stop-color="#100892"/>
<stop offset="0.760417" stop-color="#F653E9"/>
<stop offset="0.875" stop-color="#FFB6F9"/>
<stop offset="1" stop-color="#100892"/>
</linearGradient>
<linearGradient id="paint4_linear_74_174" x1="113.335" y1="290.504" x2="468.332" y2="290.505" gradientUnits="userSpaceOnUse">
<stop stop-color="#100892"/>
<stop offset="0.151042" stop-color="#F653E9"/>
<stop offset="0.3125" stop-color="#FFB6F9"/>
<stop offset="0.479167" stop-color="#5865F2"/>
<stop offset="0.640625" stop-color="#100892"/>
<stop offset="0.760417" stop-color="#F653E9"/>
<stop offset="0.875" stop-color="#FFB6F9"/>
<stop offset="1" stop-color="#100892"/>
</linearGradient>
</defs>
</svg>
