<svg width="168" height="50" viewBox="0 0 168 50" fill="none" xmlns="http://www.w3.org/2000/svg">
<path d="M45.7913 31.5778C43.072 31.5778 40.524 30.4265 38.209 28.5523L38.7727 25.9065L38.7972 25.8085C39.2992 22.9915 40.8917 18.2631 45.7913 18.2631C49.4658 18.2631 52.4547 21.252 52.4547 24.9265C52.4423 28.5889 49.4537 31.5778 45.7913 31.5778ZM45.7913 11.514C39.5318 11.514 34.6815 15.5807 32.7096 22.2686C29.6962 17.7487 27.4178 12.3225 26.0828 7.75359H19.3459V25.2817C19.3459 28.7359 16.5286 31.5529 13.0743 31.5529C9.62008 31.5529 6.80309 28.7359 6.80309 25.2817V7.75359H0.0655065V25.2817C0.0409967 32.4598 5.88381 38.3513 13.0616 38.3513C20.2397 38.3513 26.0825 32.4598 26.0825 25.2817V22.3421C27.393 25.0735 28.9975 27.8294 30.9452 30.2794L26.8171 49.6814H33.7135L36.7021 35.6075C39.3233 37.2856 42.3368 38.3392 45.791 38.3392C53.1769 38.3392 59.1913 32.2882 59.1913 24.902C59.1913 17.5281 53.1773 11.514 45.7913 11.514Z" fill="#6FDA44"/>
<path d="M79.7573 12.2735L84.1057 29.8016L88.8952 12.2735H94.6031L87.2417 37.6042H81.5335L77.0139 19.9657L72.506 37.5918H66.7982L59.4361 12.2614H65.1443L69.9335 29.7895L74.2818 12.2614H79.757L79.7573 12.2735ZM108.261 11.514C100.85 11.514 94.8482 17.5281 94.8482 24.9265C94.8482 32.3372 100.862 38.3392 108.261 38.3392C115.671 38.3392 121.685 32.3372 121.685 24.9265C121.685 17.516 115.671 11.514 108.261 11.514ZM108.261 32.8271C103.9 32.8271 100.372 29.2993 100.372 24.9389C100.372 20.5781 103.912 17.0506 108.261 17.0506C112.621 17.0506 116.149 20.5781 116.149 24.9389C116.149 29.2872 112.621 32.8271 108.261 32.8271ZM137.989 17.9448C134.155 17.9448 131.056 21.0559 131.056 24.8774V37.5918H125.311V12.2735H131.056V16.1686C131.056 16.1686 133.506 12.2611 138.54 12.2611H140.304V17.9448H137.989ZM157.269 23.9467C161.347 21.6438 164.116 17.2709 164.116 12.2611H158.371C158.371 16.4869 154.941 19.9167 150.716 19.9167H149.944V0.0490112H144.199V37.5915H149.944V25.6614H150.63C151.193 25.6614 151.928 26.0291 152.259 26.482L160.416 37.5918H167.3L157.269 23.9467Z" fill="white"/>
</svg>
