<svg width="36" height="36" viewBox="0 0 36 36" fill="none" xmlns="http://www.w3.org/2000/svg">
<path d="M34.9972 27.0199L25.6192 17.6429L34.9942 8.26686C35.0866 8.17451 35.1599 8.06487 35.2098 7.94421C35.2598 7.82354 35.2856 7.69421 35.2856 7.56361C35.2856 7.433 35.2598 7.30367 35.2098 7.18301C35.1599 7.06234 35.0866 6.95271 34.9942 6.86036L28.4267 0.291358C28.2401 0.104802 27.9871 0 27.7232 0C27.4594 0 27.2063 0.104802 27.0197 0.291358L17.6432 9.66736L8.26824 0.291358C7.89524 -0.0821425 7.23474 -0.0821425 6.86124 0.291358L0.292238 6.85936C0.105927 7.04608 0.00129366 7.29908 0.00129366 7.56286C0.00129366 7.82663 0.105927 8.07963 0.292238 8.26636L9.66874 17.6429L0.290738 27.0204C0.104549 27.2071 0 27.4601 0 27.7239C0 27.9876 0.104549 28.2406 0.290738 28.4274L6.85874 34.9959C6.95106 35.0883 7.06072 35.1617 7.18143 35.2118C7.30215 35.2619 7.43155 35.2876 7.56224 35.2876C7.69292 35.2876 7.82233 35.2619 7.94304 35.2118C8.06376 35.1617 8.17341 35.0883 8.26574 34.9959L17.6432 25.6184L27.0212 34.9954C27.2157 35.1894 27.4692 35.2869 27.7247 35.2869C27.9802 35.2869 28.2342 35.1894 28.4287 34.9954L34.9977 28.4269C35.1842 28.2402 35.2889 27.9871 35.2888 27.7233C35.2887 27.4594 35.1839 27.2064 34.9972 27.0199Z" fill="white"/>
</svg>
