<svg width="20" height="20" viewBox="0 0 20 20" fill="none" xmlns="http://www.w3.org/2000/svg">
<path d="M19.8347 15.3141L14.5197 9.99946L19.833 4.68541C19.8854 4.63307 19.9269 4.57093 19.9552 4.50255C19.9836 4.43416 19.9981 4.36086 19.9981 4.28683C19.9981 4.21281 19.9836 4.13951 19.9552 4.07112C19.9269 4.00273 19.8854 3.94059 19.833 3.88825L16.1109 0.165133C16.0051 0.0593989 15.8617 0 15.7122 0C15.5626 0 15.4192 0.0593989 15.3135 0.165133L9.99933 5.47918L4.68604 0.165133C4.47464 -0.046556 4.1003 -0.046556 3.88862 0.165133L0.165626 3.88768C0.0600344 3.99351 0.000733183 4.13691 0.000733183 4.28641C0.000733183 4.43591 0.0600344 4.5793 0.165626 4.68513L5.47977 9.99946L0.164776 15.3144C0.0592533 15.4202 0 15.5636 0 15.7131C0 15.8626 0.0592533 16.0059 0.164776 16.1118L3.8872 19.8346C3.93952 19.8871 4.00167 19.9286 4.07009 19.957C4.1385 19.9854 4.21184 20 4.28591 20C4.35997 20 4.43331 19.9854 4.50173 19.957C4.57014 19.9286 4.63229 19.8871 4.68462 19.8346L9.99933 14.5197L15.3143 19.8343C15.4246 19.9443 15.5682 19.9996 15.713 19.9996C15.8578 19.9996 16.0018 19.9443 16.112 19.8343L19.835 16.1115C19.9407 16.0057 20.0001 15.8623 20 15.7127C19.9999 15.5632 19.9405 15.4198 19.8347 15.3141Z" fill="white"/>
</svg>
